<svg width="80" height="80" viewBox="0 0 80 80" fill="none" xmlns="http://www.w3.org/2000/svg">
<g clip-path="url(#clip0_213_319)">
<path d="M76.5517 78.8582H3.44831C2.17327 78.8582 1.14182 77.8267 1.14182 76.5517V3.44449C1.14182 2.17326 2.17327 1.14182 3.44831 1.14182H76.5555C77.8267 1.14182 78.862 2.17326 78.862 3.44449V76.5517C78.862 77.8267 77.8305 78.8582 76.5555 78.8582" fill="#F9B333"/>
<path d="M3.44831 1.14182H76.5555C77.8267 1.14182 78.862 2.17326 78.862 3.4483V76.5555C78.862 77.8267 77.8305 78.8582 76.5593 78.8582H3.44831C2.17708 78.8582 1.14182 77.8267 1.14182 76.5517V3.4483C1.14182 2.17707 2.17327 1.14182 3.44831 1.14182Z" stroke="black" stroke-width="2.28365" stroke-miterlimit="10"/>
<path d="M58.3223 31.7123L58.3054 43.8385L62.9374 43.845L62.9543 31.7188L58.3223 31.7123Z" fill="#965F15"/>
<path d="M64.5501 31.7124L64.5332 43.8386L69.1157 43.845L69.1326 31.7188L64.5501 31.7124Z" fill="#965F15"/>
<path d="M71.0674 31.7012L71.0504 43.8274L75.2904 43.8333L75.3073 31.7071L71.0674 31.7012Z" fill="#965F15"/>
<path d="M53.6277 36.3214V37.2158C53.6277 37.4138 53.464 37.5736 53.2661 37.5736H52.3717C52.1737 37.5736 52.0139 37.41 52.0139 37.212V36.3176C52.0139 36.1197 52.1776 35.9598 52.3755 35.9598H53.2699C53.4678 35.9598 53.6277 36.1235 53.6277 36.3214Z" fill="#965F15"/>
<path d="M53.6315 32.2147V33.1091C53.6315 33.307 53.4678 33.4669 53.2699 33.4669H52.3755C52.1776 33.4669 52.0177 33.3032 52.0177 33.1053V32.2109C52.0177 32.0129 52.1814 31.8531 52.3793 31.8531H53.2737C53.4716 31.8531 53.6315 32.0167 53.6315 32.2147Z" fill="#965F15"/>
<path d="M75.524 30.1061C74.131 30.1099 72.7875 30.1137 70.9035 30.1213C71.7903 22.6386 67.2192 14.6877 60.3911 11.3992C53.563 8.10696 44.6605 9.74737 39.53 15.3309C37.311 17.7439 35.7886 20.7926 35.1872 24.0164C34.799 26.0983 34.7914 28.2335 34.7838 30.3497C34.7685 35.3851 34.7495 40.4206 34.7343 45.4598C34.7267 47.595 34.7229 49.7417 35.1111 51.8426C36.2643 58.0275 41.0866 63.356 47.0926 65.2324C53.0986 67.1088 60.0333 65.5103 64.6958 61.2855C69.3582 57.0608 71.9349 50.4991 71.1128 44.1734C72.6695 44.1696 73.739 44.1658 75.2957 44.1619C75.84 52.0177 73.5982 60.0676 67.7635 65.2058C61.9249 70.344 53.3689 72.2051 45.9356 69.9177C38.5023 67.6302 32.4621 61.2627 30.6085 53.7076C29.3601 48.6227 29.9196 43.3018 29.9272 38.0684C29.9386 32.4697 29.3182 26.7491 30.8064 21.3521C32.2337 16.1644 35.6249 11.5553 40.1161 8.59033C45.8671 4.79947 53.2395 3.74519 59.7821 5.92988C61.198 6.40183 62.5682 7.0108 63.866 7.74538C66.4656 9.21072 68.7873 11.1708 70.637 13.5154C74.2985 18.1512 75.8742 24.3285 75.5164 30.1137" fill="#DD9F3C"/>
<path d="M64.4902 30.1099C65.3999 30.1099 69.2402 30.1898 69.2402 30.1099C69.2402 29.1355 69.2326 27.6017 69.2136 26.6273C69.1641 23.8337 68.1669 21.0895 66.6292 18.7792C65.3199 16.8076 63.6224 15.0644 61.6204 13.7856C59.3634 12.3431 56.5888 11.5248 53.9322 11.2812C48.7787 10.8054 43.3246 12.933 40.0171 16.9675C38.7269 18.5432 37.6345 20.3511 36.9951 22.315C36.2757 24.534 36.1692 26.8747 36.211 29.1888C36.2377 30.8292 36.1806 32.4849 36.1844 34.1291C36.192 36.7477 36.2149 39.3625 36.2301 41.981C36.2453 44.5159 36.0816 47.0964 36.3481 49.6237C36.5878 51.8578 37.3148 54.0311 38.3995 55.995C39.3473 57.7078 40.4092 59.2721 41.9354 60.5167C45.5207 63.4397 50.0309 64.8784 54.6515 64.4712C56.7487 64.2885 58.6936 63.493 60.5167 62.473C61.7004 61.8107 62.9221 61.1637 63.9307 60.2388C64.9431 59.3101 65.8642 57.9742 66.5912 56.8133C68.1593 54.2975 68.9091 51.6333 69.0689 48.6797C69.088 48.3068 69.2783 44.1657 69.1869 44.1505C69.1527 44.1467 64.5397 44.1505 64.5397 44.1505C64.5169 45.5359 64.4978 46.9175 64.4826 48.3029C64.4217 53.8789 59.9534 58.6327 54.5792 59.6451C49.6503 60.5738 44.9536 57.9247 42.4378 53.7456C41.7222 52.5581 41.4368 51.4201 41.2731 50.0652C40.9077 47.0622 41.1247 44.0325 41.1209 41.0143C41.1209 37.5622 41.1209 34.1139 41.1209 30.6618C41.1285 27.4723 40.8088 24.2219 42.5976 21.3978C43.9184 19.312 46.0383 17.5041 48.3372 16.5945C50.6056 15.7001 53.2851 15.7381 55.6373 16.2634C58.3738 16.8723 60.6651 18.6498 62.3322 20.8687C64.4141 23.6357 64.4826 26.7643 64.4826 30.1061" fill="#DD9F3C"/>
<path d="M47.1497 39.9562C47.1764 41.7298 47.2335 43.4997 47.3438 45.2695C47.4466 46.9404 47.4694 48.733 47.8386 50.3696C48.1888 51.9111 49.0604 53.0529 50.6361 53.4335C52.2423 53.8218 54.0578 53.7 55.5307 52.874C57.2473 51.9149 58.0579 50.1261 58.2749 48.2344C58.313 47.8995 58.3777 44.1695 58.3434 44.1695C58.4157 44.1695 62.6405 44.2 62.8079 44.2C62.7661 46.9518 62.7394 49.7759 61.7689 52.2422C60.9239 54.4003 59.2226 56.1891 57.1559 57.2587C55.466 58.1341 53.7342 58.4005 51.8426 58.3015C51.188 58.2673 50.4306 58.1645 49.8102 57.9437C48.1165 57.3462 46.5902 56.33 45.319 55.0511C44.1163 53.837 43.6405 52.4744 43.3208 50.8492C42.8527 48.4742 42.708 46.0307 42.6243 43.6177C42.5025 40.0856 42.5976 36.5345 42.5976 33.0025C42.5976 31.6475 42.6624 30.2773 42.6129 28.93C42.5748 27.8529 42.5444 26.7643 42.7194 25.6986C43.4007 21.5576 46.9937 18.3529 51.051 17.6868C52.8436 17.3938 54.6781 17.5384 56.3871 18.1626C60.4558 19.6508 62.9221 23.5825 62.945 27.8415C62.945 28.0089 62.9868 30.1594 62.865 30.1594C61.3464 30.1594 59.9153 30.1365 58.3624 30.1365C58.3624 29.5314 58.3624 28.9262 58.3586 28.321C58.3548 27.0955 58.4005 25.771 57.7877 24.6634C57.0531 23.3389 55.5269 22.5967 54.0768 22.3988C51.5267 22.0486 48.6798 22.9392 47.5646 25.4703C47.1079 26.5055 47.1117 27.6626 47.1764 28.7739C47.2449 29.9538 47.1611 31.168 47.1535 32.3555C47.1383 34.8751 47.1079 37.4176 47.1459 39.96" fill="#DD9F3C"/>
<path d="M42.08 12.5981H48.8168V60.5167H42.08V12.5981ZM44.9879 47.6102L61.6052 27.3124L69.5333 27.4152L44.5616 55.5992L44.9917 47.6064L44.9879 47.6102ZM52.9502 40.8392L57.2777 36.3481L72.2394 60.5205H64.9051L52.9502 40.8392Z" fill="#1B8EA9"/>
<path d="M18.7602 59.0704C16.899 58.1341 15.3842 56.7715 14.2195 54.9864C13.0549 53.2014 12.2746 51.0548 11.8826 48.5542V48.5199H18.5432V48.5542C18.783 50.2973 19.4795 51.6523 20.6328 52.619C21.786 53.5896 23.2894 54.073 25.1392 54.073C27.2744 54.073 28.9224 53.3612 30.0871 51.934C31.2517 50.5067 31.8341 48.6036 31.8341 46.0117V42.0267C31.8341 39.4576 31.2517 37.4594 30.0871 36.0322C28.9224 34.6049 27.2744 33.8931 25.1392 33.8931C23.9859 33.8931 22.8745 34.2205 21.8088 34.8713C20.9258 35.4118 20.1342 36.1273 19.43 37.0255C19.137 37.4023 18.6802 37.5089 18.2007 37.5089H14.505C13.6296 37.5089 12.9216 36.801 12.9216 35.9256V14.0749C12.9216 13.1995 13.6296 12.4915 14.505 12.4915L42.2323 12.5981V18.9352H19.5861V29.6151C20.412 28.9414 21.3369 28.4162 22.3607 28.047C23.3846 27.6778 24.4274 27.4913 25.4969 27.4913C28.2411 27.4913 30.5857 28.0584 32.5344 29.1888C34.4831 30.3192 35.9637 31.9749 36.9761 34.152C37.9885 36.329 38.4947 38.9514 38.4947 42.0229V46.0079C38.4947 49.0794 37.9733 51.5952 36.9266 53.7723C35.8799 55.9494 34.3575 57.6088 32.3555 58.7545C30.3535 59.8963 27.948 60.471 25.1392 60.471C22.7451 60.471 20.6137 60.0028 18.7526 59.0666" fill="#1B8EA9"/>
<path d="M51.7741 75.4543C51.7193 75.4543 51.6736 75.4361 51.6371 75.3995C51.6006 75.363 51.5823 75.3188 51.5823 75.2671V72.6683L51.6371 72.7322L51.121 73.0885C51.0905 73.1098 51.0555 73.1205 51.0159 73.1205C50.9642 73.1205 50.92 73.1022 50.8835 73.0656C50.8469 73.0261 50.8287 72.9819 50.8287 72.9332C50.8287 72.8662 50.8607 72.8129 50.9246 72.7733L51.6508 72.2938C51.6752 72.2786 51.6995 72.2679 51.7239 72.2618C51.7482 72.2557 51.7726 72.2542 51.7969 72.2572C51.8518 72.2572 51.8944 72.2755 51.9248 72.312C51.9583 72.3455 51.9751 72.3882 51.9751 72.4399V75.2671C51.9751 75.3188 51.9553 75.363 51.9157 75.3995C51.8792 75.4361 51.832 75.4543 51.7741 75.4543ZM52.8839 74.9245C52.9021 74.9245 52.9219 74.9291 52.9432 74.9382C52.9676 74.9443 52.9935 74.9596 53.0209 74.9839C53.0818 75.0387 53.1533 75.0829 53.2355 75.1164C53.3177 75.1499 53.4121 75.1666 53.5187 75.1666C53.6496 75.1666 53.7699 75.1377 53.8795 75.0798C53.9891 75.0189 54.0774 74.9337 54.1444 74.8241C54.2145 74.7144 54.2495 74.5881 54.2495 74.445C54.2495 74.2897 54.2145 74.1633 54.1444 74.0659C54.0774 73.9654 53.9907 73.8923 53.8841 73.8467C53.7806 73.7979 53.671 73.7736 53.5552 73.7736C53.5126 73.7736 53.473 73.7766 53.4365 73.7827C53.4 73.7888 53.3649 73.7964 53.3315 73.8056C53.301 73.8147 53.2721 73.8193 53.2447 73.8193C53.196 73.8193 53.1579 73.8025 53.1305 73.769C53.1031 73.7355 53.0894 73.6944 53.0894 73.6457C53.0894 73.6183 53.094 73.5939 53.1031 73.5726C53.1153 73.5483 53.1335 73.5224 53.1579 73.495L54.0439 72.5358L54.117 72.6226H52.8199C52.7712 72.6226 52.7301 72.6059 52.6966 72.5724C52.6631 72.5389 52.6464 72.4978 52.6464 72.4491C52.6464 72.4003 52.6631 72.3608 52.6966 72.3303C52.7301 72.2968 52.7712 72.2801 52.8199 72.2801H54.3089C54.3758 72.2801 54.4246 72.2999 54.455 72.3394C54.4855 72.376 54.5007 72.4171 54.5007 72.4628C54.5007 72.4902 54.4931 72.5161 54.4778 72.5404C54.4657 72.5648 54.4489 72.5876 54.4276 72.6089L53.5415 73.5726L53.4365 73.4813C53.4517 73.4691 53.4867 73.4584 53.5415 73.4493C53.5964 73.4371 53.642 73.431 53.6786 73.431C53.8491 73.431 54.0059 73.4721 54.149 73.5544C54.2921 73.6366 54.4063 73.7523 54.4915 73.9015C54.5768 74.0507 54.6194 74.2242 54.6194 74.4221C54.6194 74.6414 54.5692 74.8317 54.4687 74.993C54.3682 75.1544 54.2297 75.2793 54.0531 75.3676C53.8795 75.4559 53.6831 75.5 53.4639 75.5C53.3421 75.5 53.2218 75.4817 53.1031 75.4452C52.9874 75.4056 52.8869 75.3493 52.8016 75.2762C52.7621 75.2549 52.7347 75.2305 52.7194 75.2031C52.7073 75.1757 52.7012 75.1483 52.7012 75.1209C52.7012 75.0753 52.7179 75.0311 52.7514 74.9885C52.7879 74.9459 52.8321 74.9245 52.8839 74.9245ZM55.3288 73.5909C55.2649 73.5909 55.2146 73.5726 55.1781 73.5361C55.1446 73.4965 55.1279 73.4447 55.1279 73.3808V73.2894C55.1279 73.2255 55.1446 73.1753 55.1781 73.1387C55.2146 73.1022 55.2649 73.0839 55.3288 73.0839H55.3654C55.4323 73.0839 55.4826 73.1022 55.5161 73.1387C55.5496 73.1753 55.5663 73.2255 55.5663 73.2894V73.3808C55.5663 73.4447 55.5496 73.4965 55.5161 73.5361C55.4826 73.5726 55.4323 73.5909 55.3654 73.5909H55.3288ZM55.3288 75.4543C55.2649 75.4543 55.2146 75.4361 55.1781 75.3995C55.1446 75.36 55.1279 75.3082 55.1279 75.2443V75.1529C55.1279 75.089 55.1446 75.0387 55.1781 75.0022C55.2146 74.9656 55.2649 74.9474 55.3288 74.9474H55.3654C55.4323 74.9474 55.4826 74.9656 55.5161 75.0022C55.5496 75.0387 55.5663 75.089 55.5663 75.1529V75.2443C55.5663 75.3082 55.5496 75.36 55.5161 75.3995C55.4826 75.4361 55.4323 75.4543 55.3654 75.4543H55.3288ZM57.9816 75.1118C58.0303 75.1118 58.0714 75.1285 58.1049 75.162C58.1384 75.1955 58.1552 75.2366 58.1552 75.2854C58.1552 75.3341 58.1384 75.3752 58.1049 75.4087C58.0714 75.4391 58.0303 75.4543 57.9816 75.4543H56.3237C56.2689 75.4543 56.2232 75.4391 56.1867 75.4087C56.1532 75.3752 56.1364 75.331 56.1364 75.2762C56.1364 75.2275 56.1547 75.1834 56.1912 75.1438L57.2234 74.0156C57.3757 73.8512 57.4899 73.6975 57.566 73.5544C57.6451 73.4082 57.6847 73.2788 57.6847 73.1661C57.6847 72.9804 57.6284 72.8327 57.5157 72.7231C57.4061 72.6104 57.2584 72.5541 57.0727 72.5541C56.9905 72.5541 56.9083 72.5724 56.8261 72.6089C56.7439 72.6424 56.6693 72.6896 56.6023 72.7505C56.5353 72.8084 56.4805 72.8738 56.4379 72.9469C56.4135 72.9865 56.3876 73.0124 56.3602 73.0245C56.3359 73.0337 56.31 73.0382 56.2826 73.0382C56.2369 73.0382 56.1958 73.023 56.1593 72.9926C56.1227 72.9591 56.1044 72.921 56.1044 72.8784C56.1044 72.8449 56.1136 72.8144 56.1318 72.787C56.1501 72.7566 56.1745 72.7231 56.2049 72.6866C56.2689 72.5983 56.348 72.5191 56.4424 72.4491C56.5399 72.376 56.6449 72.3181 56.7576 72.2755C56.8733 72.2329 56.9859 72.2116 57.0955 72.2116C57.2904 72.2116 57.4594 72.2496 57.6025 72.3257C57.7487 72.4019 57.8613 72.51 57.9405 72.65C58.0197 72.7901 58.0592 72.9545 58.0592 73.1433C58.0592 73.3047 58.0105 73.4828 57.9131 73.6777C57.8157 73.8725 57.6725 74.0705 57.4838 74.2714L56.6845 75.1575L56.6388 75.1118H57.9816ZM60.0589 75.4543C60.0072 75.4543 59.963 75.4361 59.9265 75.3995C59.893 75.363 59.8762 75.3188 59.8762 75.2671V72.7688L59.9493 72.7962L58.8577 74.2212L58.8395 74.1664H60.5476C60.5964 74.1664 60.6375 74.1831 60.671 74.2166C60.7044 74.2501 60.7212 74.2912 60.7212 74.3399C60.7212 74.3856 60.7044 74.4252 60.671 74.4587C60.6375 74.4891 60.5964 74.5043 60.5476 74.5043H58.5883C58.5426 74.5043 58.5 74.4861 58.4604 74.4495C58.4238 74.413 58.4056 74.3704 58.4056 74.3217C58.4056 74.276 58.4208 74.2364 58.4512 74.2029L59.9082 72.3303C59.9295 72.3029 59.9539 72.2846 59.9813 72.2755C60.0087 72.2633 60.0361 72.2572 60.0635 72.2572C60.1153 72.2572 60.1579 72.2755 60.1914 72.312C60.2249 72.3455 60.2416 72.3882 60.2416 72.4399V75.2671C60.2416 75.3188 60.2234 75.363 60.1868 75.3995C60.1533 75.4361 60.1107 75.4543 60.0589 75.4543ZM61.2915 75.4498C61.2276 75.4498 61.1774 75.4315 61.1408 75.395C61.1073 75.3584 61.0906 75.3082 61.0906 75.2443V75.1529C61.0906 75.0859 61.1073 75.0342 61.1408 74.9976C61.1774 74.9611 61.2276 74.9428 61.2915 74.9428H61.3281C61.3951 74.9428 61.4453 74.9611 61.4788 74.9976C61.5123 75.0342 61.529 75.0859 61.529 75.1529V75.2443C61.529 75.3082 61.5123 75.3584 61.4788 75.395C61.4453 75.4315 61.3951 75.4498 61.3281 75.4498H61.2915ZM63.0504 72.2024C63.224 72.2024 63.3762 72.2359 63.5071 72.3029C63.6411 72.3669 63.7522 72.4552 63.8406 72.5678C63.9289 72.6805 63.9958 72.8068 64.0415 72.9469C64.0872 73.087 64.11 73.2316 64.11 73.3808C64.11 73.5117 64.0933 73.6579 64.0598 73.8193C64.0263 73.9806 63.9745 74.1451 63.9045 74.3125C63.8375 74.48 63.7492 74.6414 63.6396 74.7967C63.53 74.9489 63.399 75.0859 63.2468 75.2077C63.0946 75.3295 62.9195 75.4239 62.7216 75.4909C62.6942 75.5 62.6698 75.5046 62.6485 75.5046C62.5998 75.5046 62.5556 75.4894 62.516 75.4589C62.4795 75.4285 62.4612 75.3828 62.4612 75.3219C62.4612 75.2793 62.4749 75.2427 62.5023 75.2123C62.5297 75.1788 62.5663 75.1544 62.6119 75.1392C62.7764 75.0783 62.9332 74.9839 63.0824 74.856C63.2346 74.7251 63.3656 74.5729 63.4752 74.3993C63.5878 74.2227 63.6624 74.0385 63.699 73.8467L63.8086 73.8101C63.7599 73.8923 63.6959 73.97 63.6168 74.0431C63.5376 74.1131 63.4447 74.1709 63.3381 74.2166C63.2346 74.2623 63.1189 74.2851 62.991 74.2851C62.7931 74.2851 62.6226 74.2379 62.4795 74.1435C62.3364 74.0491 62.2253 73.9228 62.1461 73.7644C62.0669 73.6061 62.0273 73.431 62.0273 73.2392C62.0273 73.0535 62.0715 72.883 62.1598 72.7277C62.2511 72.5693 62.3744 72.443 62.5297 72.3486C62.685 72.2511 62.8586 72.2024 63.0504 72.2024ZM63.055 72.545C62.9301 72.545 62.8175 72.5754 62.717 72.6363C62.6196 72.6942 62.5419 72.7764 62.4841 72.883C62.4262 72.9865 62.3973 73.1052 62.3973 73.2392C62.3973 73.3671 62.4216 73.4843 62.4704 73.5909C62.5221 73.6975 62.5952 73.7827 62.6896 73.8467C62.787 73.9076 62.9043 73.938 63.0413 73.938C63.1844 73.938 63.3077 73.906 63.4112 73.8421C63.5148 73.7781 63.5939 73.6929 63.6487 73.5863C63.7066 73.4767 63.7355 73.358 63.7355 73.2301C63.7355 73.1052 63.7081 72.9926 63.6533 72.8921C63.5985 72.7886 63.5193 72.7048 63.4158 72.6409C63.3153 72.5769 63.195 72.545 63.055 72.545ZM65.6151 72.2024C65.7886 72.2024 65.9409 72.2359 66.0718 72.3029C66.2058 72.3669 66.3169 72.4552 66.4052 72.5678C66.4935 72.6805 66.5605 72.8068 66.6062 72.9469C66.6518 73.087 66.6747 73.2316 66.6747 73.3808C66.6747 73.5117 66.6579 73.6579 66.6244 73.8193C66.5909 73.9806 66.5392 74.1451 66.4691 74.3125C66.4021 74.48 66.3138 74.6414 66.2042 74.7967C66.0946 74.9489 65.9637 75.0859 65.8114 75.2077C65.6592 75.3295 65.4841 75.4239 65.2862 75.4909C65.2588 75.5 65.2344 75.5046 65.2131 75.5046C65.1644 75.5046 65.1203 75.4894 65.0807 75.4589C65.0441 75.4285 65.0259 75.3828 65.0259 75.3219C65.0259 75.2793 65.0396 75.2427 65.067 75.2123C65.0944 75.1788 65.1309 75.1544 65.1766 75.1392C65.341 75.0783 65.4978 74.9839 65.647 74.856C65.7993 74.7251 65.9302 74.5729 66.0398 74.3993C66.1525 74.2227 66.2271 74.0385 66.2636 73.8467L66.3732 73.8101C66.3245 73.8923 66.2606 73.97 66.1814 74.0431C66.1022 74.1131 66.0094 74.1709 65.9028 74.2166C65.7993 74.2623 65.6836 74.2851 65.5557 74.2851C65.3578 74.2851 65.1872 74.2379 65.0441 74.1435C64.901 74.0491 64.7899 73.9228 64.7107 73.7644C64.6316 73.6061 64.592 73.431 64.592 73.2392C64.592 73.0535 64.6361 72.883 64.7244 72.7277C64.8158 72.5693 64.9391 72.443 65.0944 72.3486C65.2497 72.2511 65.4232 72.2024 65.6151 72.2024ZM65.6196 72.545C65.4948 72.545 65.3821 72.5754 65.2816 72.6363C65.1842 72.6942 65.1066 72.7764 65.0487 72.883C64.9909 72.9865 64.9619 73.1052 64.9619 73.2392C64.9619 73.3671 64.9863 73.4843 65.035 73.5909C65.0868 73.6975 65.1598 73.7827 65.2542 73.8467C65.3517 73.9076 65.4689 73.938 65.6059 73.938C65.749 73.938 65.8723 73.906 65.9759 73.8421C66.0794 73.7781 66.1586 73.6929 66.2134 73.5863C66.2712 73.4767 66.3001 73.358 66.3001 73.2301C66.3001 73.1052 66.2727 72.9926 66.2179 72.8921C66.1631 72.7886 66.084 72.7048 65.9804 72.6409C65.88 72.5769 65.7597 72.545 65.6196 72.545Z" fill="#1D1D1B"/>
</g>
<defs>
<clipPath id="clip0_213_319">
<rect width="80" height="80" fill="white"/>
</clipPath>
</defs>
</svg>
