<svg width="70" height="22" viewBox="0 0 70 22" fill="none" xmlns="http://www.w3.org/2000/svg">
<path fill-rule="evenodd" clip-rule="evenodd" d="M29.5481 9.49207C30.1806 9.46587 30.803 9.66218 31.3142 10.0491C31.7686 10.4143 32.0237 10.9854 31.9983 11.5808C32.012 12.0793 31.874 12.5696 31.6039 12.9823C31.3239 13.381 30.9519 13.7006 30.5219 13.9118C30.0097 14.1654 29.4639 14.3385 28.9024 14.4254C28.2377 14.5355 27.5652 14.5881 26.8921 14.5827C26.8903 14.7625 26.921 14.941 26.9828 15.109C27.0473 15.2682 27.153 15.4059 27.2882 15.5068C27.4577 15.6286 27.6486 15.7147 27.8501 15.76C28.1405 15.8267 28.4375 15.8577 28.7349 15.8522C29.1348 15.8551 29.5336 15.8096 29.9233 15.7166C30.1921 15.6585 30.4554 15.5762 30.7104 15.4707L30.3125 17.1832C30.1641 17.2321 30.0001 17.2773 29.8256 17.3225C29.3433 17.4379 28.8495 17.4938 28.3545 17.4889C27.8343 17.4993 27.3161 17.418 26.8223 17.2483C26.4298 17.1136 26.0718 16.8886 25.7752 16.5901C25.5072 16.3084 25.3048 15.9669 25.1836 15.5918C25.0566 15.183 24.9947 14.7554 25.0004 14.3259C25.0004 13.7049 25.1049 13.0887 25.3092 12.5049C25.5037 11.9321 25.8083 11.4061 26.2045 10.9587C27.0633 9.99379 28.2818 9.45932 29.5481 9.49207ZM29.5237 12.7579C29.7256 12.6582 29.8989 12.5054 30.0263 12.3148C30.1118 12.1794 30.1606 12.0226 30.1676 11.8609C30.1782 11.6368 30.0824 11.4214 29.9111 11.284C29.697 11.136 29.4421 11.0643 29.1851 11.0797C28.6869 11.0859 28.2048 11.2641 27.8152 11.586C27.3801 11.926 27.0788 12.4685 26.9113 13.2136C27.4537 13.2243 27.9959 13.1819 28.5307 13.087C28.8756 13.0288 29.2102 12.9179 29.5237 12.7579Z" fill="#575756"/>
<path d="M35.7662 9.34583C36.0841 9.16417 36.4508 9.07354 36.8219 9.08491C37.2869 9.07712 37.7505 9.13537 38.1973 9.2577C38.534 9.35206 38.8536 9.49422 39.1452 9.67932L40 8.20885C39.8922 8.14664 39.7516 8.07407 39.5817 7.99285C39.3854 7.89743 39.1806 7.81823 38.9699 7.75613C38.6992 7.67733 38.4234 7.61499 38.1443 7.56951C37.7956 7.51329 37.4423 7.48669 37.0886 7.49002C35.8892 7.49002 34.9638 7.76361 34.3123 8.31079C33.6583 8.86694 33.2985 9.66868 33.3297 10.5001C33.3217 10.8213 33.3711 11.1414 33.4758 11.447C33.5646 11.6907 33.7002 11.9168 33.8758 12.114C34.049 12.3035 34.2531 12.4657 34.4804 12.5944C34.7142 12.7291 34.968 12.8639 35.2384 12.9987C35.4575 13.1041 35.6621 13.206 35.8539 13.3097C36.0322 13.4076 36.1988 13.5235 36.3507 13.6553C36.4873 13.7723 36.6006 13.9116 36.6849 14.0666C36.7692 14.2226 36.8113 14.3959 36.8073 14.5711C36.8153 14.787 36.761 15.0008 36.6502 15.1897C36.5468 15.3532 36.4065 15.4931 36.2393 15.5992C36.0578 15.7121 35.855 15.7907 35.642 15.8308C35.4016 15.877 35.1567 15.8995 34.9114 15.8982C34.6429 15.8988 34.3749 15.8745 34.1114 15.8256C33.8746 15.7847 33.6413 15.727 33.4137 15.6528C33.2208 15.5839 33.0329 15.5031 32.8511 15.4109C32.6813 15.3279 32.5443 15.2554 32.4347 15.1932V15.2018L32 16.9021C32.2054 17.012 32.4213 17.1034 32.6447 17.1751C32.936 17.2677 33.2339 17.3404 33.5361 17.3928C33.9223 17.4598 34.3142 17.4922 34.7068 17.4896C36.017 17.4896 37.0301 17.216 37.7461 16.6688C38.4621 16.1216 38.8219 15.3193 38.8256 14.2618C38.8332 13.9249 38.7762 13.5894 38.6575 13.2717C38.5496 13.0044 38.3912 12.7579 38.19 12.5442C37.9861 12.3301 37.749 12.1466 37.4868 11.9999C37.1957 11.8349 36.8958 11.6844 36.5881 11.549C36.2712 11.42 35.9719 11.2552 35.6968 11.0582C35.4461 10.8627 35.3102 10.5649 35.3315 10.2582C35.3315 9.82447 35.4758 9.52208 35.7662 9.34583Z" fill="#575756"/>
<path fill-rule="evenodd" clip-rule="evenodd" d="M43.1915 9.98975C44.1578 9.98975 44.8699 10.2339 45.3207 10.7275C45.7845 11.2539 46.0267 11.9355 45.9977 12.6326C45.9958 13.2638 45.8964 13.8911 45.703 14.4927C45.528 15.0724 45.2396 15.6125 44.8541 16.0826C44.4575 16.5516 43.9595 16.9268 43.3967 17.1806C42.749 17.4661 42.0449 17.6052 41.3359 17.5876C41.1272 17.5876 40.964 17.5807 40.8483 17.5703C40.7479 17.5621 40.6482 17.5465 40.5501 17.5235L40.1608 19.0822L38 19.9897L40.3502 10.4799C40.5776 10.385 40.8121 10.308 41.0517 10.2495C41.3061 10.1872 41.5586 10.1352 41.8164 10.0954C42.0436 10.0603 42.2599 10.04 42.4701 10.0202C42.4985 10.0176 42.5267 10.0149 42.5548 10.0123C42.7916 9.98975 43.0038 9.98975 43.1915 9.98975ZM43.3476 14.9983C43.5915 14.6963 43.7765 14.3521 43.893 13.9834C44.0211 13.5905 44.0868 13.1804 44.0877 12.7676C44.0881 12.6163 44.0722 12.4653 44.0404 12.3173C44.0107 12.1766 43.9509 12.0437 43.865 11.9276C43.7717 11.8068 43.6468 11.7134 43.5037 11.6575C43.3083 11.5822 43.0995 11.5468 42.8898 11.5535C42.714 11.5519 42.5382 11.5617 42.3637 11.583C42.2342 11.6016 42.106 11.6276 41.9796 11.6609L40.9272 15.911C40.9831 15.9327 41.0427 15.9433 41.1026 15.9422H41.3078C41.7101 15.9502 42.1085 15.8642 42.4707 15.6911C42.8107 15.5262 43.1101 15.2898 43.3476 14.9983Z" fill="#575756"/>
<path fill-rule="evenodd" clip-rule="evenodd" d="M46.646 16.7061C47.0779 17.2272 47.7381 17.4878 48.6266 17.4878C49.2892 17.5089 49.9465 17.3599 50.5381 17.0545C51.0716 16.7707 51.5379 16.3714 51.9044 15.8847C52.2758 15.3916 52.5548 14.8328 52.7274 14.2364C52.9077 13.6281 52.9995 12.9962 53 12.3607C53 11.4111 52.764 10.6956 52.292 10.2142C51.7942 9.72302 51.1203 9.46195 50.4283 9.4921C49.7678 9.47661 49.1138 9.62727 48.5239 9.93078C47.9866 10.2158 47.5153 10.6146 47.1416 11.1006C46.7659 11.5944 46.4794 12.1526 46.2956 12.7489C46.1036 13.3575 46.0039 13.9925 46 14.6318C45.9982 15.4965 46.2124 16.1862 46.646 16.7061ZM49.8691 15.4694C49.6292 15.6603 49.3325 15.7616 49.0283 15.7565H49.0337C48.6 15.7565 48.3115 15.6084 48.1699 15.3178C48.0116 14.9396 47.939 14.5298 47.9576 14.1191C47.9619 13.7935 48.0083 13.47 48.0956 13.1568C48.1786 12.8261 48.3054 12.5084 48.4726 12.2127C48.634 11.9326 48.8474 11.6873 49.1009 11.4905C49.3392 11.3016 49.6328 11.1999 49.9345 11.2017C50.3841 11.2035 50.6761 11.3497 50.8195 11.6404C50.9777 12.0186 51.0497 12.4284 51.0301 12.8391C51.0205 13.5117 50.8374 14.1698 50.4991 14.7473C50.3325 15.024 50.1191 15.2684 49.8691 15.4694Z" fill="#575756"/>
<path d="M59.0238 9.38574L58.9745 9.59399L59.0256 9.38574H59.0238Z" fill="#575756"/>
<path d="M59 9.55535L58.9812 9.64307L58.605 11.3472L58.5777 11.4741C58.3068 11.4423 58.0345 11.4267 57.762 11.4274C57.4876 11.4277 57.2135 11.447 56.9413 11.4853C56.6772 11.517 56.4169 11.5796 56.165 11.6719L54.8809 17.4897H53L54.6261 10.1489C55.6246 9.72642 56.6844 9.50325 57.7552 9.49002C58.1709 9.48702 58.5865 9.50882 59 9.55535Z" fill="#575756"/>
<path d="M60.0651 14.4426C60.018 14.6416 59.9907 14.8445 59.9834 15.0486C59.9834 15.3602 60.0899 15.568 60.3063 15.6701C60.5375 15.7766 60.7905 15.8304 61.0461 15.8277C61.3446 15.8269 61.6421 15.7938 61.9332 15.729C62.2359 15.6627 62.5326 15.5724 62.8202 15.4589V15.4797L62.3909 17.211C62.168 17.2836 61.9404 17.3414 61.7096 17.3841C61.3188 17.455 60.9221 17.4904 60.5245 17.4897C59.6742 17.4897 59.0414 17.3097 58.6263 16.9496C58.2111 16.5895 58.0024 16.0701 58 15.3914C58.0008 15.2224 58.0121 15.0536 58.0337 14.8859C58.0553 14.6972 58.0909 14.5103 58.1402 14.3267L58.5074 12.8412L58.7646 11.8024L58.8161 11.5964L59.2082 10.0105L59.563 8.58739L61.809 7.48975L61.1614 10.0209H64L63.6044 11.6137H60.7765L60.0651 14.4426Z" fill="#575756"/>
<path d="M66.3182 11.2646C66.4446 11.2114 66.5786 11.1768 66.7157 11.1618C66.8408 11.1468 66.9666 11.1389 67.0926 11.1383C67.5147 11.1326 67.9361 11.1713 68.3494 11.2537C68.6547 11.3212 68.9516 11.4197 69.235 11.5477L70 9.9823C69.6355 9.82529 69.2529 9.71026 68.86 9.63964C68.3414 9.53626 67.8127 9.48608 67.2829 9.48995C66.1222 9.48995 65.2517 9.72501 64.6713 10.1951C64.0912 10.6627 63.7681 11.3597 63.7952 12.0851C63.7907 12.3302 63.8302 12.5742 63.912 12.8065C63.9881 13.0087 64.1082 13.1931 64.2643 13.3476C64.4372 13.5138 64.6362 13.6532 64.8541 13.7606C65.1219 13.8924 65.3989 14.0063 65.6832 14.1014C65.9413 14.2006 66.1542 14.2818 66.3219 14.3539C66.4627 14.4089 66.5962 14.4797 66.7195 14.5649C66.8032 14.622 66.8722 14.6966 66.9211 14.7831C66.9616 14.8641 66.9816 14.9531 66.9795 15.0428C66.9733 15.2676 66.8446 15.4728 66.6404 15.5839C66.4143 15.7354 66.0035 15.8099 65.4081 15.8075C64.9268 15.8178 64.4474 15.7451 63.993 15.5929C63.7838 15.5189 63.5992 15.4486 63.439 15.3801L63 17.0988C63.1017 17.1366 63.2167 17.1727 63.3392 17.2088C63.6376 17.2937 63.9416 17.3594 64.2493 17.4054C64.6521 17.4638 65.0591 17.4915 65.4665 17.4883C66.0275 17.5012 66.587 17.4263 67.1227 17.2665C67.5362 17.1433 67.9203 16.9435 68.2533 16.6786C68.7821 16.2436 69.0885 15.611 69.0937 14.9436C69.0991 14.6808 69.0629 14.4188 68.9863 14.1663C68.9143 13.9575 68.7938 13.767 68.6339 13.6091C68.4557 13.435 68.252 13.2868 68.0291 13.169C67.7469 13.0234 67.4562 12.8933 67.1585 12.7795C66.8778 12.6821 66.6536 12.5991 66.484 12.5198C66.3461 12.4611 66.2159 12.3872 66.0958 12.2998C66.0178 12.2474 65.957 12.1748 65.9206 12.0906C65.8902 12.0096 65.8755 11.9241 65.8773 11.8381C65.873 11.7113 65.9188 11.5877 66.0054 11.4918C66.0912 11.3953 66.1979 11.3177 66.3182 11.2646Z" fill="#575756"/>
<path d="M59.0203 9.40234L58.9781 9.57734L59.022 9.40234H59.0203Z" fill="#575756"/>
<path d="M59.0212 9.40234L58.9772 9.57734L59.0229 9.40234H59.0212Z" fill="#575756"/>
<path d="M21 10.9897C21 16.7887 16.299 21.4897 10.5 21.4897C4.70101 21.4897 0 16.7887 0 10.9897C0 5.19076 4.70101 0.489746 10.5 0.489746C13.2849 0.48928 15.9559 1.59538 17.9251 3.56461C19.8944 5.53384 21.0005 8.20483 21 10.9897Z" fill="#575756"/>
<path d="M13 5.49142C12.9991 6.59599 12.1029 7.49067 10.9983 7.48975C9.89376 7.48882 8.99908 6.59264 9 5.48807C9.00093 4.3835 9.8971 3.48882 11.0017 3.48975C11.5322 3.48975 12.041 3.70074 12.4159 4.07623C12.7907 4.45171 13.0009 4.96085 13 5.49142Z" fill="white"/>
<path fill-rule="evenodd" clip-rule="evenodd" d="M16.0107 8.9608C16.4979 9.12478 16.9378 9.48416 16.9905 10.0075C17.0505 10.435 16.8142 10.8362 16.5924 11.1851C16.0615 11.9912 15.4383 12.7379 14.7346 13.4112C13.9166 14.2241 13.055 14.9813 12.1752 15.7262C12.7405 16.1658 13.3131 16.5985 13.8948 17.0189L13.8366 17.0748L12.686 18.1738L12.3588 18.4896C12.3497 18.4969 12.0142 18.2395 11.8789 18.1357C11.852 18.1151 11.8331 18.1005 11.8261 18.0953L11.1917 17.6086C9.33938 16.192 7.51612 14.7213 5.92008 13.0518C5.28748 12.3906 4.65852 11.6841 4.2277 10.8816C4.11968 10.6987 4.04586 10.4992 4.00956 10.2919C3.97687 10.0433 4.0285 9.79131 4.15681 9.57314C4.4113 9.15095 4.87121 8.97475 5.34202 8.86136C6.33955 8.62081 7.38377 8.57597 8.40988 8.53191C8.49261 8.52836 8.57523 8.52481 8.6577 8.52117C9.5248 8.48279 10.3955 8.48627 11.2644 8.49674C12.3576 8.49968 13.4498 8.55792 14.5365 8.6712C14.7874 8.70086 15.0418 8.73226 15.2909 8.78285C15.42 8.80727 15.549 8.83344 15.6781 8.86659C15.7919 8.88758 15.9033 8.91913 16.0107 8.9608ZM10.5264 14.3599L10.6663 14.243L10.6754 14.2378C11.3862 13.6446 12.0861 13.0358 12.7586 12.4007C13.3238 11.8805 13.8528 11.3251 14.342 10.7382C14.0366 10.6998 13.7294 10.6754 13.4221 10.6544C12.2787 10.569 11.1299 10.5567 9.98467 10.569C8.87868 10.566 7.77344 10.6242 6.67444 10.7434C7.20805 11.3811 7.78623 11.9832 8.40499 12.5455C8.76007 12.8805 9.12363 13.2091 9.49568 13.5312C9.68837 13.6999 9.88287 13.8662 10.0792 14.0302L10.3882 14.2918L10.47 14.3599C10.4882 14.3913 10.5082 14.3913 10.5264 14.3599Z" fill="white"/>
</svg>
