<svg width="81" height="80" viewBox="0 0 81 80" fill="none" xmlns="http://www.w3.org/2000/svg">
<g clip-path="url(#clip0_213_334)">
<path d="M77.5594 78.8582H4.24674C3.0326 78.8582 2.04682 77.8724 2.04682 76.6583V3.34173C2.04682 2.12759 3.0326 1.14182 4.24674 1.14182H77.5594C78.7736 1.14182 79.7594 2.12759 79.7594 3.34173V76.6544C79.7594 77.8686 78.7736 78.8544 77.5594 78.8544" fill="#048729"/>
<path d="M77.5633 1.14182H4.24674C3.03176 1.14182 2.04682 2.12675 2.04682 3.34173V76.6583C2.04682 77.8732 3.03176 78.8582 4.24674 78.8582H77.5633C78.7782 78.8582 79.7632 77.8732 79.7632 76.6583V3.34173C79.7632 2.12675 78.7782 1.14182 77.5633 1.14182Z" stroke="black" stroke-width="2.28365" stroke-miterlimit="10"/>
<path d="M22.2685 8.98233L8.72269 20.5528L17.4729 20.8345L6.18403 36.3557H18.3178L4.20487 50.4686H42.8708L26.7825 36.3557L37.7897 36.074L24.5255 20.8345L32.427 19.4224L22.2685 8.98233Z" fill="#1A6B2F"/>
<path d="M63.1458 10.8664L49.8931 20.0124L57.7298 21.0781L46.1403 33.9845L57.0485 35.1111L43.0535 46.4875L77.8145 50.0804L64.6606 35.899L74.5831 36.6678L64.0745 21.7327L71.3099 21.1999L63.1458 10.8664Z" fill="#1A6B2F"/>
<path d="M41.9916 4.79565L23.7224 20.4006L35.5213 20.7812L20.297 41.7146H36.6631L17.6327 60.745H69.776L48.0814 41.7146L62.9251 41.334L45.0365 20.7812L55.6935 18.8782L41.9916 4.79565Z" fill="#155624"/>
<path d="M6.04202 72.2202V71.6783H7.43138C7.6544 71.6783 7.80307 71.656 7.87741 71.6114C7.98446 71.5474 8.03798 71.4515 8.03798 71.3237C8.03798 71.1765 7.97554 71.0687 7.85065 71.0003C7.77928 70.9617 7.66555 70.9423 7.50944 70.9423H6.94522C6.60029 70.9423 6.352 70.8799 6.20036 70.755C6.1052 70.6762 6.03087 70.5773 5.97734 70.4584C5.92382 70.338 5.89706 70.2101 5.89706 70.0748C5.89706 69.8607 5.9595 69.6652 6.08439 69.4883C6.2063 69.3173 6.40181 69.2177 6.67091 69.1894C6.7616 69.1805 6.8969 69.1761 7.07679 69.1761H8.58659V69.718H7.22398C7.0203 69.7195 6.885 69.7284 6.8181 69.7447C6.68132 69.7789 6.61293 69.8823 6.61293 70.0547C6.61293 70.2004 6.67017 70.2986 6.78465 70.3491C6.86196 70.3833 6.98982 70.4004 7.16823 70.4004H7.65663C7.9064 70.4004 8.09299 70.422 8.21639 70.4651C8.43197 70.5379 8.5799 70.6658 8.66018 70.8487C8.7256 70.9958 8.75831 71.1534 8.75831 71.3214C8.75831 71.5058 8.71594 71.6716 8.63119 71.8188C8.51225 72.0269 8.3331 72.1511 8.09373 72.1912C7.97777 72.2105 7.80382 72.2202 7.57188 72.2202H6.04202ZM9.19095 69.1761H9.83769V70.8843C9.84661 71.1014 9.85627 71.2456 9.86668 71.317C9.8875 71.4553 9.95366 71.5504 10.0652 71.6024C10.1782 71.653 10.3759 71.6783 10.6584 71.6783H11.2806V72.2202H10.5915C10.2659 72.2217 10.0295 72.2031 9.88229 72.1644C9.54629 72.0663 9.33368 71.853 9.24448 71.5244C9.21028 71.398 9.19244 71.1847 9.19095 70.8843V69.1761ZM11.4612 72.2202L12.7212 69.1761H13.4683L14.7284 72.2202H13.9679L13.6735 71.5155H12.5161L12.2217 72.2202H11.4612ZM13.0959 69.9075L12.661 70.9735H13.5285L13.0959 69.9075ZM13.8341 68.3844L13.2609 68.9464H12.8595L13.2788 68.3844H13.8341ZM17.661 69.1761L16.3296 72.2202H15.6806L14.3961 69.1761H15.1253L16.0218 71.4664L16.9317 69.1761H17.661ZM18.6288 69.1761V72.2202H17.9821V69.1761H18.6288ZM18.6511 70.6792L19.8175 69.1761H20.6694L19.3982 70.6792L20.6092 72.2202H19.7551L18.6511 70.6792ZM22.1212 69.156C22.426 69.156 22.6936 69.208 22.9241 69.3121C23.1961 69.4355 23.3864 69.6429 23.495 69.9343C23.5812 70.1633 23.6243 70.4324 23.6243 70.7416C23.6243 71.0509 23.5715 71.3192 23.466 71.5467C23.3366 71.8202 23.1367 72.0106 22.8661 72.1176C22.6639 72.1979 22.4312 72.238 22.1681 72.238C21.8261 72.238 21.528 72.1741 21.2738 72.0462C21.0612 71.9392 20.8984 71.7719 20.7854 71.5445C20.6739 71.3155 20.6181 71.0382 20.6181 70.7126C20.6181 70.1328 20.7623 69.7195 21.0508 69.4727C21.2946 69.2645 21.6514 69.159 22.1212 69.156ZM22.1257 69.6689C21.8268 69.6689 21.6128 69.7663 21.4834 69.9611C21.3823 70.1127 21.3318 70.3565 21.3318 70.6925C21.3318 71.0494 21.3957 71.3118 21.5235 71.4798C21.6499 71.6448 21.8514 71.7273 22.1279 71.7273C22.3955 71.7273 22.5925 71.6441 22.7189 71.4776C22.8468 71.3095 22.9107 71.0501 22.9107 70.6992C22.9107 70.3811 22.8594 70.138 22.7568 69.97C22.6364 69.7708 22.426 69.6704 22.1257 69.6689ZM26.8981 69.1761L25.5668 72.2202H24.9178L23.6332 69.1761H24.3625L25.259 71.4664L26.1689 69.1761H26.8981ZM27.1301 72.2202V71.6783H28.5194C28.7425 71.6783 28.8911 71.656 28.9655 71.6114C29.0725 71.5474 29.126 71.4515 29.126 71.3237C29.126 71.1765 29.0636 71.0687 28.9387 71.0003C28.8673 70.9617 28.7536 70.9423 28.5975 70.9423H28.0333C27.6884 70.9423 27.4401 70.8799 27.2884 70.755C27.1933 70.6762 27.1189 70.5773 27.0654 70.4584C27.0119 70.338 26.9851 70.2101 26.9851 70.0748C26.9851 69.8607 27.0476 69.6652 27.1725 69.4883C27.2944 69.3173 27.4899 69.2177 27.759 69.1894C27.8497 69.1805 27.985 69.1761 28.1649 69.1761H29.6747V69.718H28.312C28.1084 69.7195 27.9731 69.7284 27.9062 69.7447C27.7694 69.7789 27.701 69.8823 27.701 70.0547C27.701 70.2004 27.7582 70.2986 27.8727 70.3491C27.95 70.3833 28.0779 70.4004 28.2563 70.4004H28.7447C28.9945 70.4004 29.1811 70.422 29.3045 70.4651C29.52 70.5379 29.668 70.6658 29.7482 70.8487C29.8137 70.9958 29.8464 71.1534 29.8464 71.3214C29.8464 71.5058 29.804 71.6716 29.7193 71.8188C29.6003 72.0269 29.4212 72.1511 29.1818 72.1912C29.0658 72.2105 28.8919 72.2202 28.6599 72.2202H27.1301ZM30.9614 69.1761V72.2202H30.3147V69.1761H30.9614ZM30.9837 70.6792L32.1501 69.1761H33.002L31.7308 70.6792L32.9418 72.2202H32.0876L30.9837 70.6792ZM34.1505 70.8843L33.0243 69.1761H33.7825L34.4806 70.3647L35.2165 69.1761H35.9859L34.7972 70.9111V72.2202H34.1505V70.8843ZM35.2054 68.3844L34.6322 68.9464H34.2308L34.6501 68.3844H35.2054ZM37.4199 69.1761H38.0666V70.8843C38.0755 71.1014 38.0852 71.2456 38.0956 71.317C38.1164 71.4553 38.1826 71.5504 38.2941 71.6024C38.4071 71.653 38.6048 71.6783 38.8873 71.6783H39.5095V72.2202H38.8204C38.4948 72.2217 38.2584 72.2031 38.1112 72.1644C37.7752 72.0663 37.5626 71.853 37.4734 71.5244C37.4392 71.398 37.4214 71.1847 37.4199 70.8843V69.1761ZM42.1745 69.1761V69.718H41.3293C41.1078 69.718 40.9464 69.7336 40.8453 69.7648C40.7457 69.7946 40.6625 69.8533 40.5956 69.941C40.551 70.0005 40.5205 70.0607 40.5041 70.1216C40.4878 70.1826 40.4737 70.2867 40.4618 70.4339H42.1745V70.9758H40.4618C40.4841 71.2389 40.5606 71.4218 40.6915 71.5244C40.8223 71.627 41.0446 71.6783 41.3583 71.6783H42.1745V72.2202H41.3293C41.1003 72.2202 40.8989 72.2061 40.7249 72.1778C40.4514 72.1332 40.2335 72.0135 40.0715 71.8188C39.841 71.5393 39.7258 71.1601 39.7258 70.6814C39.7258 70.1506 39.8886 69.7381 40.2142 69.4437C40.3257 69.3441 40.4447 69.2749 40.571 69.2363C40.6974 69.1961 40.8669 69.1761 41.0795 69.1761H42.1745ZM42.6785 72.2202V71.6783H44.0679C44.2909 71.6783 44.4396 71.656 44.5139 71.6114C44.6209 71.5474 44.6745 71.4515 44.6745 71.3237C44.6745 71.1765 44.612 71.0687 44.4871 71.0003C44.4158 70.9617 44.302 70.9423 44.1459 70.9423H43.5817C43.2368 70.9423 42.9885 70.8799 42.8368 70.755C42.7417 70.6762 42.6674 70.5773 42.6138 70.4584C42.5603 70.338 42.5336 70.2101 42.5336 70.0748C42.5336 69.8607 42.596 69.6652 42.7209 69.4883C42.8428 69.3173 43.0383 69.2177 43.3074 69.1894C43.3981 69.1805 43.5334 69.1761 43.7133 69.1761H45.2231V69.718H43.8605C43.6568 69.7195 43.5215 69.7284 43.4546 69.7447C43.3178 69.7789 43.2494 69.8823 43.2494 70.0547C43.2494 70.2004 43.3067 70.2986 43.4211 70.3491C43.4985 70.3833 43.6263 70.4004 43.8047 70.4004H44.2931C44.5429 70.4004 44.7295 70.422 44.8529 70.4651C45.0685 70.5379 45.2164 70.6658 45.2967 70.8487C45.3621 70.9958 45.3948 71.1534 45.3948 71.3214C45.3948 71.5058 45.3524 71.6716 45.2677 71.8188C45.1487 72.0269 44.9696 72.1511 44.7302 72.1912C44.6143 72.2105 44.4403 72.2202 44.2084 72.2202H42.6785ZM45.8631 72.2202V69.1761H46.5099V72.2202H45.8631ZM46.831 68.3844L46.3493 68.9464H45.9546L46.3069 68.3844H46.831ZM47.781 69.1761V72.2202H47.1343V69.1761H47.781ZM47.8033 70.6792L48.9697 69.1761H49.8216L48.5504 70.6792L49.7614 72.2202H48.9072L47.8033 70.6792Z" fill="#35ED61"/>
</g>
<defs>
<clipPath id="clip0_213_334">
<rect width="80" height="80" fill="white" transform="translate(0.904999)"/>
</clipPath>
</defs>
</svg>
