<svg width="72" height="40" viewBox="0 0 72 40" fill="none" xmlns="http://www.w3.org/2000/svg">
<path d="M5.31511 19.6383V39.718H1.92273V15.8699C1.98156 15.8612 2.04442 15.8433 2.10786 15.8433C3.69274 15.8433 5.27762 15.8485 6.86192 15.841C7.05167 15.8405 7.12088 15.9097 7.18374 16.0781C8.53504 19.6833 9.89441 23.2856 11.2503 26.889C12.2752 29.6136 13.2972 32.3398 14.3226 35.0643C14.3509 35.1399 14.397 35.2085 14.4772 35.3619C14.5672 35.1537 14.6335 35.0251 14.6808 34.889C15.6445 32.1108 16.6053 29.331 17.5691 26.5522C18.775 23.0768 19.9856 19.6031 21.1852 16.1254C21.2619 15.9033 21.3634 15.8341 21.5941 15.8358C23.1213 15.8457 24.6485 15.841 26.1757 15.841C26.2611 15.841 26.3459 15.841 26.4537 15.841V39.7249H23.0988V19.5368C23.0689 19.5304 23.0383 19.5235 23.0083 19.5172C22.9379 19.6931 22.8595 19.8667 22.7984 20.0455C21.8767 22.7371 20.9591 25.4305 20.0381 28.1221C18.741 31.9107 17.4405 35.6976 16.1486 39.4879C16.0799 39.6892 15.9848 39.7474 15.7795 39.7451C14.8094 39.7347 13.8393 39.7301 12.8692 39.7474C12.6184 39.7521 12.5226 39.6598 12.4459 39.4395C11.7215 37.369 10.9873 35.3014 10.2555 33.2332C8.74613 28.9711 7.2368 24.7095 5.7269 20.448C5.62712 20.1666 5.52504 19.8857 5.42353 19.6048C5.38778 19.6152 5.35202 19.6256 5.31568 19.6366L5.31511 19.6383Z" fill="white"/>
<path d="M69.524 15.8423V18.8402H69.1722C67.1646 18.8402 65.157 18.8188 63.1499 18.85C62.2906 18.8632 61.4249 18.9376 60.5759 19.0726C59.1191 19.3044 58.0862 20.154 57.3462 21.4147C56.6437 22.6115 56.3254 23.9039 56.255 25.2731C56.2394 25.5782 56.2112 25.8827 56.1852 26.2345H69.5194V29.2111H56.1408C56.1829 29.7446 56.2043 30.2394 56.2631 30.7291C56.42 32.0273 56.8 33.2529 57.4823 34.3792C58.2834 35.7017 59.4807 36.4082 60.9831 36.6199C61.5512 36.7 62.1291 36.7404 62.703 36.7444C64.8542 36.7589 67.006 36.7508 69.1578 36.7508C69.2714 36.7508 69.3845 36.7508 69.5183 36.7508V39.7423C69.4174 39.7423 69.3158 39.7423 69.2143 39.7423C66.6692 39.7423 64.1235 39.7654 61.5783 39.7319C60.0373 39.7118 58.5164 39.5105 57.1097 38.8045C55.7636 38.1292 54.8022 37.0628 54.0386 35.7946C53.0334 34.126 52.5645 32.2972 52.3926 30.3744C52.2144 28.3771 52.2738 26.3908 52.625 24.4161C52.9849 22.3958 53.7179 20.5364 55.0254 18.9278C56.2971 17.3631 57.9356 16.4202 59.9208 16.1347C61.0471 15.9726 62.1897 15.8798 63.3276 15.8544C65.315 15.81 67.3036 15.8423 69.2922 15.8423C69.358 15.8423 69.4243 15.8423 69.524 15.8423Z" fill="white"/>
<path d="M37.8161 15.8521H41.3331C41.3331 15.9812 41.3331 16.1018 41.3331 16.2217C41.3331 20.8668 41.3181 25.5124 41.3469 30.1575C41.3533 31.2066 41.4634 32.262 41.6157 33.3019C41.8822 35.1203 43.0524 36.1204 44.7831 36.497C45.4625 36.6446 46.1673 36.7231 46.8629 36.7386C48.4564 36.7738 50.0511 36.7508 51.6452 36.7513C51.7496 36.7513 51.8534 36.7513 51.9768 36.7513V39.7429C51.8943 39.7429 51.8032 39.7429 51.7121 39.7429C49.7529 39.7429 47.7937 39.7625 45.8345 39.7331C44.7416 39.7169 43.6493 39.6102 42.6042 39.2503C40.1935 38.4198 38.7366 36.7311 38.1593 34.2679C37.9067 33.19 37.8242 32.0884 37.8219 30.9857C37.8121 26.043 37.8167 21.0998 37.8161 16.1571C37.8161 16.0637 37.8161 15.9703 37.8161 15.8521Z" fill="white"/>
<path d="M30.4495 39.7226V22.3484H33.5979V39.7226H30.4495Z" fill="white"/>
<path d="M9.82756 8.73275C9.82064 9.62439 9.72663 10.6481 9.33848 11.6297C8.81596 12.9522 7.83608 13.7435 6.49632 14.1247C5.56777 14.3883 4.62537 14.4136 3.67722 14.2406C2.01621 13.9367 0.907717 12.9954 0.420949 11.3702C-0.129259 9.53269 -0.159827 7.69058 0.446326 5.85598C1.02653 4.10096 2.28209 3.15511 4.07344 2.88577C5.00256 2.7462 5.92707 2.79868 6.83371 3.07494C8.11234 3.46424 8.92323 4.32704 9.37713 5.55896C9.73701 6.53653 9.82179 7.55505 9.82698 8.73333L9.82756 8.73275ZM1.60903 8.58222C1.71169 9.31007 1.76533 10.0489 1.92797 10.7629C2.16731 11.8108 2.76539 12.5992 3.86869 12.8432C4.34854 12.9493 4.85838 12.9654 5.35264 12.951C6.71605 12.9118 7.69536 12.053 7.96296 10.7237C8.22884 9.40234 8.22019 8.07931 8.00391 6.75454C7.83608 5.72794 7.40872 4.8784 6.3902 4.44297C5.79039 4.1869 5.1577 4.15921 4.52387 4.21054C3.34559 4.3057 2.48452 4.85245 2.056 6.00074C1.74514 6.83355 1.69266 7.69923 1.60903 8.58222Z" fill="white"/>
<path d="M47.0929 2.9613C47.0929 3.41347 47.0883 3.79584 47.0952 4.17822C47.0981 4.33337 47.0283 4.3772 46.8864 4.37431C46.6177 4.36797 46.3489 4.37258 46.0796 4.37258C44.8505 4.37258 43.6209 4.36509 42.3919 4.37835C41.8976 4.38354 41.4207 4.46371 41.0585 4.86743C40.525 5.46204 40.5285 6.74125 41.0879 7.24763C41.4172 7.5458 41.8342 7.63692 42.2598 7.65596C43.0171 7.68998 43.7761 7.68249 44.5322 7.72459C44.9411 7.74766 45.354 7.80706 45.7514 7.90626C46.3362 8.05275 46.7693 8.42821 47.0618 8.95189C47.6287 9.96695 47.7273 11.0431 47.4049 12.1482C47.0739 13.2838 46.1857 14.0007 45.0051 14.1056C44.4808 14.1523 43.952 14.165 43.4248 14.1685C42.186 14.1771 40.9472 14.1714 39.7083 14.1714C39.6057 14.1714 39.5024 14.1714 39.3715 14.1714C39.3715 13.7498 39.3738 13.3588 39.3709 12.9683C39.3692 12.7451 39.5324 12.7953 39.6564 12.7953C40.991 12.793 42.3262 12.7976 43.6607 12.7912C43.9952 12.7895 44.332 12.7734 44.6637 12.7313C45.3373 12.6453 45.7554 12.2358 45.8454 11.5841C45.9054 11.1498 45.8875 10.6804 45.7883 10.2536C45.6343 9.59322 45.1401 9.29563 44.3436 9.27371C43.471 9.24891 42.5938 9.27659 41.7263 9.19816C41.2234 9.15317 40.7032 9.01187 40.2482 8.79444C39.4978 8.43571 39.1639 7.72978 39.0457 6.94195C38.917 6.08723 39.0382 5.25903 39.4759 4.49601C39.9702 3.63493 40.7315 3.1176 41.7033 3.07088C43.4842 2.9861 45.2692 2.9936 47.0935 2.96188L47.0929 2.9613Z" fill="white"/>
<path d="M18.9291 14.1715C18.9954 13.9863 19.0438 13.845 19.0963 13.7049C20.3905 10.2519 21.6888 6.80015 22.9743 3.34376C23.0718 3.08134 23.1837 2.96599 23.4795 2.98445C23.9577 3.01386 24.4398 3.00579 24.9197 2.98618C25.1452 2.97695 25.2369 3.0675 25.3067 3.26417C25.9832 5.16856 26.6655 7.07064 27.3489 8.97273C27.9516 10.6493 28.5572 12.3242 29.1616 14.0002C29.1771 14.0434 29.1921 14.0867 29.2216 14.1703C28.6875 14.1703 28.1829 14.1778 27.6794 14.1605C27.6159 14.1582 27.5317 14.033 27.5011 13.9488C27.2041 13.1293 26.9111 12.3086 26.6297 11.4838C26.568 11.3033 26.4919 11.2295 26.2883 11.2312C24.8285 11.2416 23.3688 11.2399 21.9091 11.2324C21.717 11.2312 21.6265 11.2814 21.559 11.474C21.2816 12.2699 20.9748 13.0555 20.6939 13.8496C20.6108 14.0844 20.5093 14.2014 20.2314 14.1795C19.8149 14.1472 19.3939 14.1715 18.9297 14.1715H18.9291ZM22.1334 9.84072H26.0253C25.3978 7.9842 24.7789 6.15478 24.1607 4.32479C24.1341 4.32652 24.1082 4.32883 24.0817 4.33056C23.4357 6.15767 22.7892 7.98535 22.1329 9.84014L22.1334 9.84072Z" fill="white"/>
<path d="M68.6082 14.1714C68.0857 14.1714 67.6058 14.1818 67.1271 14.1616C67.0435 14.1581 66.9247 14.0387 66.8907 13.947C66.5879 13.1304 66.292 12.3102 66.0134 11.4849C65.9448 11.2813 65.8433 11.2312 65.642 11.2323C64.1927 11.2404 62.7428 11.2404 61.2934 11.2323C61.1002 11.2312 61.0079 11.2848 60.941 11.4722C60.6457 12.3016 60.3285 13.1234 60.0304 13.9516C59.9738 14.1091 59.9081 14.1823 59.7276 14.1766C59.2691 14.1627 58.81 14.1719 58.3059 14.1719C58.5251 13.5837 58.7298 13.0306 58.9369 12.4786C59.9588 9.75528 60.9808 7.03192 62.0034 4.30798C62.1447 3.93195 62.2912 3.55765 62.4267 3.17931C62.474 3.04723 62.5357 2.98552 62.6903 2.98841C63.2468 2.99936 63.804 2.99936 64.3605 2.98841C64.5381 2.98495 64.6062 3.053 64.6633 3.21391C65.3225 5.06236 65.9904 6.90792 66.6565 8.75406C67.2834 10.4918 67.9109 12.2295 68.5378 13.9672C68.5569 14.0197 68.5742 14.0733 68.607 14.1708L68.6082 14.1714ZM65.4113 9.84468C64.7821 7.98354 64.1696 6.17027 63.5565 4.35701C63.5237 4.35931 63.4908 4.36162 63.4579 4.36393C62.8154 6.18066 62.1729 7.99738 61.5195 9.84468H65.4113Z" fill="white"/>
<path d="M12.938 14.1593H11.3796V3.00692C11.45 3.00173 11.514 2.99308 11.578 2.99308C13.1618 2.99308 14.7461 2.98097 16.3298 3.00058C17.3189 3.01326 18.1984 3.30567 18.8034 4.15982C19.2458 4.78385 19.4182 5.49093 19.4448 6.24127C19.4811 7.28056 19.3081 8.26101 18.6379 9.10478C18.1627 9.70286 17.5138 9.97681 16.7871 10.0131C15.629 10.0714 14.4675 10.0662 13.3077 10.087C13.1946 10.0893 13.0816 10.087 12.938 10.087V14.1587V14.1593ZM12.9489 8.68549C14.084 8.68549 15.1873 8.71433 16.2877 8.67338C16.8471 8.65262 17.3258 8.38616 17.5415 7.81577C17.8207 7.0787 17.8835 6.32144 17.6621 5.55899C17.4758 4.91766 17.0795 4.49029 16.3782 4.41762C16.2069 4.39974 16.0351 4.3761 15.8632 4.37495C14.9894 4.36975 14.1151 4.37033 13.2414 4.37091C13.1485 4.37091 13.0556 4.38187 12.9489 4.38879V8.68607V8.68549Z" fill="white"/>
<path d="M28.109 2.99248C28.6817 2.99248 29.2094 2.98441 29.7366 3.00114C29.8162 3.00344 29.9332 3.10437 29.9632 3.18569C30.5907 4.88361 31.2073 6.58557 31.8272 8.28579C32.3227 9.64459 32.8192 11.0028 33.3158 12.361C33.3314 12.4043 33.3516 12.4458 33.396 12.5508C33.4583 12.4406 33.5056 12.3783 33.5315 12.3085C34.651 9.28124 35.7698 6.25394 36.8829 3.22433C36.9435 3.05939 37.0127 2.98095 37.2048 2.98729C37.6719 3.00287 38.1397 2.99248 38.6495 2.99248C38.4338 3.55654 38.2342 4.08252 38.0318 4.60678C36.8714 7.60813 35.7098 10.6083 34.5506 13.6102C34.3343 14.1703 34.3389 14.172 33.7386 14.172C33.3925 14.172 33.0465 14.1599 32.7016 14.1766C32.5061 14.1864 32.4178 14.1207 32.3469 13.9367C31.5418 11.8454 30.7262 9.75878 29.9148 7.66984C29.353 6.22453 28.7919 4.77807 28.2313 3.33218C28.1938 3.23587 28.1615 3.13782 28.1096 2.99248H28.109Z" fill="white"/>
<path d="M57.6704 14.1708C56.9887 14.1708 56.3744 14.1777 55.7614 14.1639C55.6645 14.1616 55.5462 14.0854 55.477 14.0087C54.8369 13.2976 54.2036 12.5801 53.5721 11.8615C52.9538 11.1573 52.3396 10.4497 51.723 9.74316C51.3597 9.32675 50.9958 8.91092 50.6174 8.47721C50.9121 8.13867 51.1844 7.82089 51.4629 7.50772C52.5449 6.2931 53.6286 5.07965 54.7123 3.86619C54.9038 3.65164 55.1039 3.44517 55.2832 3.22139C55.4297 3.03857 55.6022 2.98032 55.8317 2.98724C56.3087 3.00223 56.7868 2.99185 57.3261 2.99185C57.2349 3.11354 57.183 3.1989 57.1161 3.26984C56.7159 3.69605 56.3133 4.12053 55.9084 4.5427C54.9066 5.58775 53.902 6.6305 52.9002 7.67555C52.7479 7.83415 52.6222 8.02332 52.4538 8.16058C52.2277 8.34514 52.3004 8.48183 52.463 8.64908C52.7704 8.96456 53.0668 9.29099 53.3702 9.61051C54.1621 10.4445 54.958 11.275 55.7475 12.1112C56.3767 12.778 56.999 13.451 57.6698 14.1702L57.6704 14.1708Z" fill="white"/>
<path d="M50.4963 14.1611H48.9604V3.01099H50.4963V14.1611Z" fill="white"/>
<path d="M36.128 15.6432C35.6556 16.3301 35.2254 16.9564 34.7946 17.5828C34.2697 18.3458 33.7403 19.1054 33.2224 19.873C33.1151 20.0322 33.0015 20.1089 32.8025 20.1054C32.1225 20.0939 31.4426 20.1008 30.7124 20.1008C30.9073 19.7311 31.0804 19.3949 31.2603 19.0621C31.8445 17.9859 32.4288 16.9097 33.0211 15.8387C33.0672 15.7551 33.178 15.6524 33.2604 15.6513C34.1913 15.638 35.1221 15.6426 36.1286 15.6426L36.128 15.6432Z" fill="white"/>
<path d="M72 2.73175C71.9983 3.98847 70.9515 5.03294 69.693 5.03352C68.4115 5.03352 67.3157 3.95675 67.329 2.70926C67.3428 1.44562 68.4242 0.398844 69.7109 0.403458C70.944 0.408071 72.0011 1.48427 71.9994 2.73175H72ZM67.765 2.71849C67.7465 3.7768 68.599 4.64999 69.659 4.66037C70.6931 4.67075 71.5605 3.82064 71.5876 2.77039C71.6141 1.74091 70.7854 0.819863 69.8153 0.801407C68.6139 0.778338 67.7846 1.55405 67.7644 2.71849H67.765Z" fill="white"/>
<path d="M65.8128 0.00151673C65.1691 0.668804 64.5809 1.2813 63.9874 1.88861C63.9401 1.93705 63.8559 1.97108 63.7878 1.97396C63.515 1.98377 63.2417 1.978 62.8956 1.978C63.3651 1.31648 63.789 0.712059 64.2244 0.115711C64.2711 0.0522699 64.3848 0.00901434 64.469 0.00670739C64.8888 -0.00425065 65.3087 0.00151673 65.8128 0.00151673Z" fill="white"/>
<path d="M69.1434 2.95272V3.95682H68.5586V1.44973C69.0921 1.44973 69.6181 1.42897 70.1412 1.45723C70.4699 1.47511 70.7629 1.61814 70.8604 1.97745C70.9648 2.36156 70.7762 2.63724 70.4405 2.88293C70.8569 3.14189 70.8696 3.5433 70.8921 3.95797H70.328C70.1988 3.6598 70.1377 3.31894 69.9364 3.12055C69.787 2.9729 69.4554 3.00981 69.1434 2.95329V2.95272ZM69.1572 1.86845C69.1134 2.69607 69.0384 2.56457 69.8176 2.56111C69.8551 2.56111 69.8926 2.53977 69.9295 2.53977C70.1573 2.53862 70.2133 2.40597 70.2196 2.20353C70.2265 1.98091 70.1118 1.88229 69.9157 1.87191C69.6694 1.85864 69.422 1.86845 69.1567 1.86845H69.1572Z" fill="white"/>
</svg>
