<svg width="81" height="80" viewBox="0 0 81 80" fill="none" xmlns="http://www.w3.org/2000/svg">
<g clip-path="url(#clip0_213_344)">
<path d="M76.6041 78.8582H5.20588C3.46269 78.8582 2.04683 77.4461 2.04683 75.6991V4.29706C2.04683 2.55387 3.45888 1.14182 5.20588 1.14182H76.6079C78.3511 1.14182 79.767 2.55387 79.767 4.29706V75.6991C79.767 77.4423 78.3549 78.8582 76.6079 78.8582" fill="#01443F"/>
<path d="M5.20588 1.14182H76.6079C78.3511 1.14182 79.767 2.55768 79.767 4.30086V75.7029C79.767 77.4461 78.3511 78.8582 76.6117 78.8582H5.20588C3.46269 78.8582 2.04683 77.4423 2.04683 75.6991V4.30086C2.04683 2.55768 3.46269 1.14182 5.20588 1.14182Z" stroke="black" stroke-width="2.28365" stroke-miterlimit="10"/>
<path d="M40.4045 67.1126C40.473 67.006 40.5149 66.9451 40.5529 66.8804C41.1277 65.8528 41.6986 64.8214 42.2847 63.7975C43.9365 60.9201 45.596 58.0465 47.2478 55.1691C48.3592 53.2356 49.4554 51.2945 50.5629 49.3611C51.4954 47.7321 52.4393 46.1107 53.3756 44.4893C54.2929 42.8983 55.2178 41.3112 56.1236 39.7165C56.98 38.2092 57.9011 36.7363 58.4986 35.0845C59.1723 33.2195 59.5833 31.3126 59.6747 29.3373C59.7584 27.5218 59.5986 25.7291 59.1837 23.9555C58.6394 21.6338 57.7069 19.4795 56.3634 17.5194C54.8752 15.3461 53.0331 13.5382 50.7989 12.1186C48.2222 10.4781 45.4323 9.49237 42.4065 9.16124C40.4464 8.9481 38.5053 9.06609 36.5718 9.4467C33.5764 10.0404 30.8931 11.3193 28.4915 13.1805C26.7787 14.5088 25.3324 16.0921 24.1716 17.9343C23.3571 19.2283 22.672 20.5795 22.1696 22.0258C21.2828 24.5949 20.9402 27.2325 21.1686 29.9462C21.3475 32.0777 21.8346 34.1444 22.7291 36.0778C23.3571 37.4366 24.1411 38.7269 24.8795 40.0362C26.0822 42.1638 27.3002 44.2837 28.5219 46.4037C30.2841 49.46 32.054 52.5049 33.8162 55.5612C34.6535 57.0151 35.4756 58.4804 36.313 59.9382C37.4472 61.9135 38.5852 63.8889 39.7194 65.8642C39.9478 66.2601 40.1609 66.6673 40.4045 67.1164" fill="#E5007E"/>
<path d="M40.4007 67.1126C40.1571 66.6635 39.944 66.2562 39.7156 65.8604C38.5814 63.8851 37.4434 61.9097 36.3092 59.9343C35.4756 58.4766 34.6535 57.0113 33.8124 55.5574C32.0502 52.5011 30.2803 49.4562 28.5181 46.3999C27.2964 44.2799 26.0784 42.16 24.8757 40.0324C24.1373 38.7269 23.3495 37.4366 22.7253 36.0778C21.8308 34.1405 21.3436 32.0776 21.1648 29.9462C20.9364 27.2363 21.2789 24.5987 22.1658 22.0258C22.6644 20.5795 23.3533 19.2283 24.1678 17.9342C25.3286 16.0921 26.7749 14.5088 28.4877 13.1805C30.8893 11.3155 33.5726 10.0404 36.568 9.44669C38.5015 9.06228 40.4426 8.94809 42.4027 9.16124C45.4285 9.49236 48.2184 10.4781 50.7951 12.1186C53.0293 13.542 54.8752 15.3499 56.3596 17.5194C57.7031 19.4833 58.6394 21.6338 59.1799 23.9555C59.5948 25.7291 59.7546 27.5256 59.6709 29.3373C59.5795 31.3126 59.1685 33.2195 58.4948 35.0844C57.8972 36.7325 56.9762 38.2054 56.1198 39.7164C55.2102 41.3112 54.2891 42.8983 53.3718 44.4893C52.4355 46.1145 51.4916 47.7359 50.5591 49.3611C49.4516 51.2945 48.3554 53.2356 47.244 55.1691C45.5922 58.0465 43.9289 60.9201 42.2809 63.7975C41.6948 64.8175 41.1277 65.8528 40.5491 66.8804C40.5111 66.9451 40.4692 67.0098 40.4007 67.1126ZM40.4007 44.1772C49.2118 44.1886 56.1274 37.037 56.2188 28.5228C56.3139 19.5176 48.9263 12.5791 40.4882 12.541C31.6543 12.503 24.6549 19.6622 24.5826 28.2297C24.5103 36.9114 31.4754 44.1543 40.4045 44.1772" fill="white"/>
<path d="M33.329 27.5484C34.1245 27.5484 34.4784 27.6207 34.7639 27.8224C35.1483 28.0965 35.3538 28.5151 35.3538 29.0442C35.3538 29.6417 35.0874 30.1251 34.5888 30.4296C34.2653 30.6275 33.7857 30.7189 33.1311 30.7189C32.3052 30.7189 31.7913 30.578 31.3917 30.2469C30.8398 29.7978 30.5506 29.0594 30.5506 28.0965C30.5506 27.0802 30.8817 26.2848 31.5021 25.8128C31.8561 25.5388 32.3128 25.4284 33.1083 25.4284H35.1255V26.2163H33.329C32.5564 26.2163 32.2024 26.319 31.9436 26.6007C31.7381 26.829 31.6505 27.0955 31.6201 27.5446H33.329V27.5484ZM31.6049 28.3363C31.6049 29.5085 32.0387 29.9576 33.1577 29.9576C33.9304 29.9576 34.3072 29.6836 34.3072 29.1165C34.3072 28.8653 34.2044 28.6369 34.0217 28.5037C33.8733 28.3857 33.6601 28.3401 33.2719 28.3401H31.601L31.6049 28.3363Z" fill="white"/>
<path d="M40.3931 26.1021C40.7547 26.5208 40.9602 27.2211 40.9602 28.0318C40.9602 28.892 40.7394 29.6075 40.3398 30.0566C39.9211 30.5134 39.354 30.7265 38.5281 30.7265C36.724 30.7265 35.8905 29.893 35.8905 28.0737C35.8905 27.183 36.1265 26.4446 36.5451 26.026C36.9486 25.6149 37.6147 25.398 38.4254 25.398C39.316 25.398 40.0011 25.6416 40.3931 26.1059M37.1655 26.8215C37.0247 27.0955 36.9372 27.5636 36.9372 28.0013C36.9372 28.5761 37.0552 29.1356 37.2455 29.4324C37.4738 29.7864 37.8582 29.9615 38.433 29.9615C39.0381 29.9615 39.4111 29.7712 39.6471 29.3563C39.8108 29.0708 39.9135 28.538 39.9135 28.0089C39.9135 27.4342 39.7955 26.9318 39.5824 26.6388C39.3616 26.3305 38.9278 26.1592 38.3949 26.1592C37.805 26.1592 37.3787 26.3876 37.1655 26.8215Z" fill="white"/>
<path d="M43.5255 28.5646C42.73 28.5646 42.3761 28.4923 42.0906 28.2906C41.7062 28.0166 41.5007 27.5903 41.5007 27.0612C41.5007 26.4713 41.7671 25.9917 42.2657 25.6834C42.5816 25.4855 43.0688 25.3942 43.7234 25.3942C44.5493 25.3942 45.0631 25.535 45.4628 25.8661C46.0223 26.3152 46.3039 27.0536 46.3039 28.0242C46.3039 28.9376 46.0147 29.7407 45.5161 30.1746C45.0746 30.5514 44.6254 30.6884 43.7424 30.6884H41.7252V29.9006H43.5217C44.2943 29.9006 44.6483 29.7978 44.9071 29.5162C45.1126 29.2878 45.2002 29.0214 45.2306 28.5722H43.5217L43.5255 28.5646ZM45.2496 27.7768C45.2496 26.6121 44.8158 26.1554 43.7082 26.1554C43.3123 26.1554 43.0383 26.2163 42.867 26.3457C42.6767 26.4789 42.5511 26.7301 42.5511 27.0079C42.5511 27.2515 42.6539 27.4799 42.8328 27.6131C42.9812 27.7311 43.1944 27.7768 43.5826 27.7768H45.2534H45.2496Z" fill="white"/>
<path d="M52.6791 26.8481C53.4974 26.8481 53.76 26.9128 54.0189 27.1564C54.2777 27.4076 54.3804 27.7311 54.3804 28.283V30.6846H53.4898V28.3553C53.4898 27.7501 53.2995 27.5522 52.7248 27.5522H52.1425V30.6884H51.2518V27.5522H49.9616V30.6884H49.071V26.8519H52.6791V26.8481Z" fill="white"/>
<path d="M29.8236 25.3942H28.8492V30.7113H29.8236V25.3942Z" fill="white"/>
<path d="M29.1233 25.3942H27.5323V26.3685H29.1233V25.3942Z" fill="white"/>
<path d="M59.7927 66.2296C59.7927 66.7358 59.6633 67.0974 59.4083 67.3257C59.1647 67.5351 58.8259 67.6455 58.4187 67.6455C57.9582 67.6455 57.5966 67.497 57.3834 67.2344C57.2084 67.0175 57.098 66.6178 57.1018 66.2106C57.1018 65.7995 57.2236 65.4113 57.4177 65.1905C57.6537 64.9165 58.0152 64.7795 58.4796 64.7795C59.3778 64.7833 59.8003 65.2476 59.7965 66.2258M57.5737 66.203C57.5699 66.9566 57.8326 67.2839 58.4491 67.2877C58.8297 67.2877 59.0924 67.1507 59.218 66.8842C59.2789 66.751 59.3207 66.496 59.3207 66.2334C59.3207 65.9099 59.2674 65.6168 59.1761 65.4646C59.0391 65.2476 58.8031 65.1334 58.4682 65.1296C57.8516 65.1258 57.5737 65.4532 57.5699 66.1991" fill="#88C48C"/>
<path d="M60.592 67.6188H60.1466L60.1619 64.8366L61.3912 64.8442C61.7756 64.8442 61.9583 64.9013 62.1334 65.0611C62.3009 65.2172 62.3808 65.4417 62.3808 65.7272C62.3808 66.0317 62.2742 66.2905 62.0839 66.4427C61.9317 66.5722 61.7071 66.6178 61.2999 66.6178H60.5996L60.592 67.6226V67.6188ZM61.3303 66.26C61.5511 66.26 61.6805 66.2258 61.768 66.1421C61.8518 66.0583 61.9089 65.8871 61.9089 65.712C61.9089 65.5483 61.8594 65.4075 61.768 65.3161C61.6881 65.2324 61.5587 65.1982 61.3189 65.1982H60.6072L60.5996 66.2562H61.3303V66.26Z" fill="#88C48C"/>
<path d="M63.3133 64.8556H63.8956L64.9842 67.6454H64.5122L64.2344 66.9147L62.9175 66.9071L62.6168 67.6302H62.1448L63.3133 64.8556ZM63.0545 66.5531L64.0974 66.5607L63.5988 65.1905L63.0583 66.5531H63.0545Z" fill="#88C48C"/>
<path d="M66.3277 67.6531L65.7987 67.6493L64.6226 64.8632L65.1364 64.867L66.0689 67.2344L67.0471 64.8784L67.5266 64.8823L66.3277 67.6531Z" fill="#88C48C"/>
<path d="M67.6446 67.3067L68.8435 67.3143C69.0491 67.3143 69.1556 67.2953 69.2432 67.2496C69.365 67.1811 69.4297 67.0593 69.4297 66.888C69.4297 66.6825 69.3459 66.5379 69.1899 66.4846C69.11 66.458 69.0072 66.4503 68.7636 66.4503H68.5353C68.2003 66.4503 67.991 66.4047 67.8464 66.3133C67.656 66.1915 67.5533 65.9822 67.5533 65.7196C67.5533 65.4151 67.6979 65.1563 67.9377 65.0116C68.0976 64.9203 68.2917 64.886 68.638 64.886L69.7798 64.8937V65.2476L68.6342 65.24C68.3868 65.24 68.2802 65.259 68.1851 65.3161C68.0899 65.3808 68.0252 65.5102 68.0252 65.6549C68.0252 65.9327 68.1927 66.0431 68.6304 66.0469H68.7979C69.2698 66.0507 69.4639 66.0888 69.6162 66.203C69.7951 66.34 69.9016 66.5912 69.8978 66.8766C69.8978 67.1925 69.757 67.4399 69.5096 67.5617C69.3459 67.6455 69.1861 67.6683 68.7826 67.6645L67.637 67.6569V67.3029L67.6446 67.3067Z" fill="#88C48C"/>
<path d="M70.659 67.6797H70.2137L70.229 64.8975H70.6743L70.6552 67.6797H70.659ZM72.0178 64.9089H72.5583L71.1424 66.2448L72.6268 67.6911H72.0292L70.6666 66.2638L72.0178 64.9089Z" fill="#88C48C"/>
<path d="M73.8942 64.9203H74.4765L75.5651 67.7102H75.0931L74.8153 66.9794L73.4984 66.9718L73.1977 67.6949H72.7257L73.8942 64.9203ZM73.6354 66.6178L74.6783 66.6254L74.1797 65.2552L73.6392 66.6178H73.6354ZM74.3852 64.1895H74.8305L74.3015 64.6881H73.9932L74.3852 64.1895Z" fill="#88C48C"/>
<path d="M60.8394 73.2442L62.6891 68.3496L64.105 68.361L64.0707 74.3708L63.142 74.367L63.1725 69.2554L61.2656 74.3556L60.3103 74.348L58.4035 69.225L58.373 74.3365L57.4443 74.3289L57.4824 68.3191L58.8945 68.3267L60.8394 73.2442Z" fill="#88C48C"/>
<path d="M66.008 69.9938L65.9814 74.3822H65.106L65.1326 69.9862H66.008V69.9938ZM65.8634 68.3153H66.7007L65.8558 69.4495H65.1973L65.8634 68.3153Z" fill="#88C48C"/>
<path d="M68.0899 68.3838L68.0671 71.8816C68.0633 72.6314 68.1432 72.9892 68.3373 73.2252C68.5885 73.5068 69.0034 73.6362 69.6314 73.64L70.9217 73.6476V74.4127L69.4373 74.4051C68.5276 74.4013 68.0138 74.2338 67.6028 73.7999C67.226 73.4117 67.0966 72.9321 67.1004 71.9958L67.1232 68.38L68.0861 68.3876L68.0899 68.3838Z" fill="#88C48C"/>
<path d="M75.664 69.1945L73.9132 69.1831C73.0378 69.1793 72.6496 69.3544 72.3413 69.8872C72.1586 70.1917 72.0939 70.4544 72.0635 71.0139L75.6526 71.0367V71.8017L72.052 71.7789C72.0597 72.2394 72.1472 72.6086 72.3337 72.9511C72.6268 73.465 73.034 73.6591 73.8333 73.6629L75.6374 73.6743V74.4393L73.6582 74.4279C72.623 74.4203 72.0559 74.1995 71.6067 73.64C71.1767 73.0882 70.994 72.4449 70.9978 71.5277C71.0054 70.3288 71.3365 69.4838 72.014 68.9205C72.4479 68.5627 73.034 68.4143 73.9741 68.4181L75.6678 68.4295V69.1945H75.664Z" fill="#88C48C"/>
<path d="M76.2273 64.7909C76.2273 65.1296 75.9457 65.4037 75.6069 65.3999C75.2644 65.3999 74.9865 65.122 74.9903 64.7833C74.9903 64.4407 75.272 64.1705 75.6222 64.1705C75.9571 64.1705 76.2311 64.4521 76.2273 64.7909ZM75.116 64.7833C75.116 65.0573 75.3329 65.2819 75.6069 65.2857C75.8772 65.2857 76.1017 65.0649 76.1017 64.7909C76.1017 64.5207 75.8848 64.2923 75.6184 64.2885C75.3405 64.2885 75.116 64.5054 75.116 64.7833ZM75.4737 65.122H75.3025L75.3063 64.4407H75.6184C75.7287 64.4407 75.7972 64.456 75.8429 64.4788C75.9 64.513 75.9343 64.5701 75.9343 64.6348C75.9343 64.73 75.8886 64.8023 75.8049 64.829C75.881 64.8518 75.9228 64.9165 75.9266 65.0155C75.9343 65.084 75.9343 65.0878 75.9457 65.122H75.7554C75.7554 65.122 75.7516 65.1068 75.7478 65.103C75.7478 65.0954 75.7478 65.0802 75.744 65.0687V65.0231C75.7249 64.9051 75.6793 64.867 75.5422 64.867H75.4775V65.122H75.4737ZM75.6374 64.7376C75.7135 64.7376 75.7478 64.7148 75.7478 64.6539C75.7478 64.5968 75.7173 64.5739 75.6412 64.5739H75.4813V64.7376H75.6412H75.6374Z" fill="#88C48C"/>
</g>
<defs>
<clipPath id="clip0_213_344">
<rect width="80" height="80" fill="white" transform="translate(0.904999)"/>
</clipPath>
</defs>
</svg>
