<svg width="170" height="20" viewBox="0 0 170 20" fill="none" xmlns="http://www.w3.org/2000/svg">
<g clip-path="url(#clip0_109_140)">
<path d="M103.224 0.392069C103.224 0.724853 103.231 1.02798 103.228 1.33111C103.221 1.91101 103.211 2.49092 103.201 3.07082C103.185 4.00327 103.169 4.93902 103.152 5.87148C103.136 6.77757 103.12 7.68367 103.104 8.58976C103.087 9.51892 103.071 10.4448 103.055 11.3739C103.042 12.1351 103.025 12.8995 103.012 13.6606C103.012 13.7693 103.012 13.8748 103.038 13.9934C103.064 13.9506 103.097 13.9077 103.12 13.8616C103.394 13.3212 103.665 12.7776 103.936 12.2339C104.516 11.0741 105.1 9.9176 105.681 8.7611C106.161 7.80558 106.64 6.85006 107.12 5.89124C107.593 4.94891 108.066 4.00986 108.539 3.06752C108.937 2.27345 109.335 1.47938 109.733 0.685314C109.789 0.576583 109.828 0.434902 109.916 0.378889C110.004 0.322876 110.148 0.34594 110.269 0.34594C111.417 0.336056 112.562 0.329466 113.711 0.322876C113.884 0.322876 113.887 0.326171 113.877 0.5008C113.831 1.2125 113.792 1.92419 113.747 2.63589C113.701 3.37065 113.652 4.10212 113.606 4.83688C113.561 5.57494 113.522 6.31629 113.476 7.05434C113.43 7.78251 113.385 8.51068 113.339 9.23886C113.303 9.7891 113.274 10.3426 113.238 10.8929C113.202 11.4761 113.163 12.0626 113.127 12.6458C113.094 13.1861 113.061 13.7265 113.029 14.2669C112.983 15.0346 112.934 15.799 112.885 16.5667C112.853 17.1071 112.82 17.6474 112.787 18.1878C112.765 18.5634 112.742 18.9357 112.719 19.3278C112.657 19.3344 112.601 19.3476 112.543 19.3476C111.512 19.3509 110.477 19.3542 109.446 19.3575C109.322 19.3575 109.195 19.3575 109.045 19.3575C109.11 18.481 109.198 17.6211 109.27 16.7611C109.345 15.8912 109.43 15.0247 109.505 14.1548C109.583 13.2916 109.655 12.4283 109.733 11.5651C109.812 10.6952 109.89 9.82864 109.968 8.95879C110.047 8.09882 110.122 7.23886 110.197 6.37889L110.158 6.36571C110.128 6.41513 110.096 6.46126 110.07 6.51398C109.675 7.28499 109.277 8.0527 108.882 8.8237C108.317 9.9209 107.753 11.0214 107.189 12.1186C106.807 12.8599 106.428 13.6013 106.05 14.3426C105.423 15.5651 104.794 16.7842 104.167 18.0066C103.968 18.3954 103.766 18.7809 103.573 19.173C103.524 19.2751 103.462 19.3048 103.358 19.3048C102.48 19.3048 101.603 19.3146 100.722 19.3179C100.536 19.3179 100.35 19.3179 100.138 19.3212C100.115 18.458 100.092 17.6079 100.069 16.7545C100.046 15.8978 100.03 15.0412 100.01 14.1845C99.9908 13.3278 99.9647 12.4711 99.9452 11.6178C99.9256 10.7611 99.9125 9.90442 99.8864 9.04775C99.8603 8.19438 99.8538 7.341 99.8114 6.49751C99.7853 6.49092 99.7788 6.48762 99.7755 6.49092C99.769 6.49092 99.7625 6.49421 99.7625 6.5008C97.9125 10.8072 96.0625 15.1169 94.2092 19.4366C94.082 19.4464 93.9515 19.4596 93.8209 19.4596C93.1912 19.4629 92.5583 19.4596 91.9253 19.4662C91.5011 19.4662 91.0802 19.4827 90.6561 19.4893C90.5973 19.4893 90.5386 19.4893 90.457 19.4893C90.4799 19.4267 90.4962 19.3805 90.5158 19.3377C92.4408 15.0609 94.3658 10.7875 96.2909 6.51068C97.1424 4.61942 97.994 2.72815 98.8456 0.836879C98.8913 0.734738 98.9402 0.635891 98.9761 0.533749C99.0055 0.454672 99.0512 0.415133 99.136 0.421723C99.1784 0.421723 99.2241 0.421723 99.2665 0.421723C100.519 0.415133 101.769 0.408543 103.022 0.398659C103.087 0.398659 103.152 0.398659 103.218 0.398659L103.224 0.392069Z" fill="white" fill-opacity="0.8"/>
<path d="M9.92534 6.84022C9.9025 6.88635 9.8764 6.93247 9.85356 6.9819C9.3152 8.17794 8.78011 9.37728 8.24175 10.5766C7.17809 12.9424 6.11769 15.3048 5.05403 17.6705C4.73428 18.3855 4.408 19.0972 4.09477 19.8155C4.03931 19.9407 3.97405 19.9901 3.84028 19.9901C2.7603 19.9901 1.67706 19.9967 0.597087 20C0.476364 20 0.355642 20 0.228394 20C0.221868 19.9572 0.21208 19.9209 0.21208 19.8847C0.195766 18.603 0.182715 17.3213 0.166401 16.0396C0.150087 14.748 0.137036 13.4531 0.123985 12.1615C0.11746 11.3443 0.114197 10.5272 0.107671 9.70677C0.0946203 8.53379 0.0717809 7.36411 0.0587298 6.19112C0.0489415 5.38387 0.0522043 4.57663 0.042416 3.76938C0.0293649 2.92588 0.0130511 2.0791 0 1.2356C0 1.16971 0 1.10381 0 1.01485C0.300175 0.991782 0.587298 1.00496 0.874422 0.998372C1.16481 0.995077 1.45519 0.995077 1.74884 0.991782L2.60369 0.985192L3.49116 0.978603C3.49769 1.05768 3.50421 1.12028 3.50421 1.18618C3.49769 1.83198 3.49116 2.47778 3.48464 3.12687C3.47811 3.67382 3.47485 4.22078 3.47159 4.76773C3.47159 5.35422 3.47159 5.94071 3.46832 6.52391C3.46506 7.32457 3.45853 8.12523 3.45201 8.92588C3.44548 9.78256 3.43896 10.6392 3.43243 11.4959C3.42591 12.3031 3.41938 13.1104 3.41612 13.9144C3.41612 14.0165 3.41612 14.1219 3.41612 14.2405C3.49116 14.201 3.50421 14.1318 3.52705 14.0791C3.69345 13.7068 3.85659 13.3312 4.01973 12.9588C5.53365 9.49261 7.05084 6.02308 8.56477 2.55356C8.78663 2.04944 9.00198 1.54203 9.22384 1.03462C9.2369 1.00496 9.25321 0.975308 9.26952 0.939064C10.467 0.932474 11.6677 0.925884 12.8879 0.916C12.9075 1.47613 12.901 2.02967 12.9042 2.57992C12.9108 3.13346 12.9108 3.68371 12.914 4.23725C12.914 4.7842 12.9206 5.33116 12.9238 5.87811C12.9238 6.43165 12.9303 6.9819 12.9336 7.53544C12.9336 8.08898 12.9401 8.63923 12.9434 9.19277C12.9434 9.74631 12.9499 10.2966 12.9532 10.8501C12.9532 11.3971 12.9597 11.944 12.963 12.491C12.9662 13.0379 12.9695 13.5915 12.9728 14.1582C13.0511 14.1153 13.0641 14.0461 13.087 13.9901C13.3676 13.3476 13.6482 12.7051 13.9288 12.0659C14.8391 9.99013 15.7461 7.91106 16.6564 5.83527C17.3253 4.30974 17.9909 2.7842 18.6598 1.25537C18.6989 1.16971 18.7413 1.08404 18.7674 0.995077C18.7935 0.90282 18.849 0.879756 18.9371 0.879756C19.2014 0.879756 19.4657 0.879756 19.7267 0.879756C20.6044 0.873166 21.4821 0.869871 22.363 0.863281C22.4283 0.863281 22.4903 0.863281 22.5816 0.863281C22.549 0.945654 22.5261 1.00167 22.5033 1.05439C22.0563 2.00331 21.6093 2.94895 21.1623 3.89788C20.6631 4.96213 20.1639 6.02638 19.6647 7.08733C19.296 7.87152 18.9241 8.65241 18.5554 9.43659C18.1181 10.3658 17.6842 11.2949 17.247 12.2241C16.8848 12.9984 16.5194 13.7694 16.154 14.5437C15.7168 15.4728 15.2795 16.3987 14.8456 17.3279C14.4606 18.145 14.0723 18.9654 13.6938 19.7826C13.6449 19.8847 13.5829 19.9176 13.4785 19.9176C13.1163 19.9176 12.7542 19.9176 12.392 19.9242C11.5959 19.9308 10.7998 19.9341 10.0036 19.9407C9.96776 19.9407 9.9286 19.9374 9.87314 19.9308C9.86987 19.8517 9.86335 19.776 9.86335 19.7002C9.86987 18.7611 9.87314 17.8221 9.88292 16.8831C9.89271 15.855 9.90903 14.827 9.91881 13.8023C9.92534 13.0017 9.91555 12.201 9.91881 11.3971C9.91881 10.5634 9.9286 9.72984 9.93513 8.89293C9.93839 8.45142 9.94492 8.0099 9.95144 7.56839C9.95144 7.38717 9.96449 7.20265 9.97102 7.02144C9.97102 6.95883 9.96449 6.89623 9.96449 6.83363C9.95144 6.83363 9.93839 6.83033 9.92534 6.82704V6.84022Z" fill="white" fill-opacity="0.8"/>
<path d="M88.9397 19.4827C88.5384 19.4827 88.1665 19.4893 87.7945 19.4893C87.0049 19.4893 86.2121 19.4959 85.4225 19.4992C85.3507 19.4992 85.2789 19.5058 85.2071 19.5091C85.0734 19.5157 85.0701 19.5157 85.0244 19.3938C84.9363 19.1565 84.8548 18.916 84.7667 18.6788C84.5774 18.1549 84.3882 17.631 84.1989 17.1071C84.1663 17.0181 84.1337 16.9325 84.1011 16.8435C83.7748 15.9308 83.4518 15.0148 83.1222 14.1022C82.7013 12.9358 82.2739 11.7694 81.853 10.603C81.654 10.0527 81.4647 9.49919 81.2657 8.95224C81.008 8.24055 80.7469 7.53544 80.4859 6.82374C80.4337 6.67877 80.3848 6.5305 80.3326 6.38881C80.3195 6.35587 80.2967 6.32951 80.2543 6.26361C80.2249 6.40858 80.2053 6.51073 80.1857 6.61616C79.9998 7.58486 79.8105 8.55685 79.6245 9.52555C79.3603 10.8962 79.0927 12.2669 78.8284 13.6376C78.4956 15.3509 78.1661 17.061 77.8333 18.7743C77.7909 18.9852 77.7485 19.1961 77.706 19.4069C77.6767 19.5519 77.6734 19.5552 77.5233 19.5585C76.5119 19.5618 75.5037 19.5651 74.4922 19.5684C74.3552 19.5684 74.2181 19.5684 74.0615 19.5684C74.0713 19.5025 74.0746 19.4465 74.0844 19.3872C74.2605 18.5173 74.4433 17.6475 74.6195 16.7743C74.8022 15.8715 74.9849 14.9687 75.1643 14.0659C75.3666 13.061 75.5689 12.0527 75.7712 11.0478C75.8756 10.5239 75.9833 10 76.091 9.47283C76.2835 8.52061 76.476 7.56839 76.6685 6.61616C76.8512 5.71336 77.0339 4.81056 77.2134 3.90447C77.4059 2.94565 77.5984 1.99013 77.7909 1.03132C77.8235 0.876459 77.8463 0.718304 77.8757 0.55356C77.9442 0.550265 77.9964 0.543675 78.0519 0.543675C79.2722 0.537085 80.4892 0.527201 81.7094 0.520611C81.8824 0.520611 81.8824 0.520611 81.9346 0.675471C82.3914 1.97695 82.8514 3.27844 83.3082 4.57992C83.8107 6.00661 84.3099 7.4333 84.8091 8.85998C85.3833 10.5008 85.9608 12.1384 86.5351 13.7793C86.5547 13.8353 86.5775 13.888 86.633 13.9407C86.6493 13.8913 86.6689 13.8452 86.6786 13.7957C86.8548 12.8798 87.031 11.9638 87.2039 11.0478C87.4291 9.86493 87.6477 8.68206 87.8761 7.49919C88.0718 6.48107 88.2676 5.45965 88.4666 4.44153C88.6853 3.31468 88.9071 2.18783 89.1257 1.06097C89.1551 0.909408 89.1747 0.754548 89.204 0.602983C89.2269 0.481072 89.2301 0.481072 89.3541 0.477777C89.377 0.477777 89.3965 0.477777 89.4194 0.477777C90.4667 0.471187 91.5173 0.464598 92.5647 0.458008C92.6234 0.458008 92.6821 0.458008 92.7507 0.458008C92.7507 0.520611 92.7572 0.566739 92.7507 0.606278C91.4814 6.89623 90.2122 13.1862 88.9397 19.4827Z" fill="white" fill-opacity="0.8"/>
<path d="M157.507 5.80231C157.49 5.86821 157.474 5.9341 157.461 6.0033C157.295 6.88303 157.132 7.75947 156.962 8.63921C156.626 10.3723 156.29 12.1054 155.954 13.8418C155.686 15.2125 155.422 16.5832 155.154 17.9539C155.092 18.2801 155.027 18.603 154.962 18.9292C154.929 19.0972 154.929 19.0972 154.76 19.0972C153.804 19.1005 152.848 19.1038 151.895 19.1071C151.709 19.1071 151.523 19.1071 151.324 19.1104C151.327 19.0643 151.324 19.0214 151.334 18.9819C151.438 18.4679 151.549 17.9572 151.653 17.4432C151.846 16.4909 152.035 15.5387 152.228 14.5865C152.335 14.056 152.443 13.5255 152.551 12.9951C152.756 11.9769 152.958 10.9621 153.164 9.94399C153.259 9.47941 153.353 9.01483 153.448 8.54695C153.65 7.53542 153.856 6.52389 154.058 5.51236C154.26 4.51071 154.463 3.51236 154.662 2.51071C154.812 1.76277 154.955 1.01483 155.102 0.270183C155.112 0.217465 155.128 0.164747 155.145 0.0988488C155.21 0.0955539 155.269 0.0889641 155.327 0.0889641C156.528 0.0823743 157.732 0.0757845 158.933 0.0658999C158.959 0.0658999 158.988 0.0658999 159.014 0.0658999C159.102 0.0658999 159.154 0.0988488 159.181 0.187811C159.256 0.418453 159.337 0.645801 159.419 0.876444C159.938 2.34926 160.456 3.82208 160.975 5.29489C161.634 7.16969 162.29 9.04448 162.946 10.916C163.23 11.7232 163.51 12.5305 163.794 13.3377C163.81 13.3872 163.833 13.4333 163.856 13.4827C163.869 13.4827 163.879 13.4827 163.892 13.4827C163.905 13.4333 163.925 13.3839 163.934 13.3311C164.257 11.6573 164.577 9.98023 164.897 8.30643C165.165 6.91269 165.432 5.52224 165.7 4.1285C165.902 3.06425 166.101 2.0033 166.3 0.939046C166.349 0.67875 166.401 0.418453 166.453 0.158157C166.479 0.029656 166.483 0.0263612 166.613 0.0263612C166.943 0.0230663 167.272 0.0230663 167.602 0.0197714C168.326 0.0164765 169.05 0.00988669 169.775 0.0065918C169.847 0.0065918 169.915 0.0131816 170.003 0.0164765C169.997 0.0757845 169.997 0.125208 169.99 0.171336C169.794 1.14992 169.602 2.1318 169.406 3.11038C169.207 4.10544 169.008 5.1005 168.806 6.09555C168.571 7.25865 168.336 8.42175 168.104 9.58485C167.83 10.9489 167.553 12.3097 167.279 13.6738C166.992 15.0972 166.705 16.5206 166.417 17.9407C166.346 18.2932 166.271 18.6425 166.192 19.0082C166.104 19.0148 166.026 19.028 165.944 19.028C164.845 19.0346 163.748 19.0379 162.649 19.0412C162.626 19.0412 162.606 19.0412 162.584 19.0412C162.28 19.0511 162.336 19.1038 162.221 18.7908C161.905 17.9143 161.598 17.0346 161.282 16.1582C161.044 15.4992 160.799 14.8435 160.561 14.1845C160.323 13.5255 160.094 12.8633 159.859 12.2043C159.631 11.5651 159.393 10.9325 159.161 10.2932C158.926 9.64415 158.701 8.99176 158.469 8.34267C158.283 7.81878 158.094 7.29489 157.905 6.77101C157.787 6.4514 157.67 6.1318 157.552 5.8089C157.539 5.8089 157.526 5.8056 157.513 5.80231H157.507Z" fill="white" fill-opacity="0.8"/>
<path d="M148.446 0.135126C149.624 0.128536 150.792 0.121946 151.98 0.115356C151.976 0.17137 151.976 0.220793 151.967 0.266922C151.745 1.36412 151.523 2.46462 151.301 3.56181C151.092 4.59971 150.88 5.6376 150.671 6.67878C150.358 8.23068 150.045 9.78257 149.732 11.3378C149.445 12.7546 149.161 14.1714 148.874 15.5915C148.645 16.7282 148.41 17.8617 148.182 18.9984C148.152 19.1434 148.152 19.1434 147.999 19.1434C146.88 19.1434 145.761 19.15 144.638 19.1532C144.56 19.1532 144.485 19.1532 144.407 19.1631C144.315 19.1763 144.267 19.1434 144.234 19.0544C144.11 18.6887 143.983 18.3262 143.852 17.9605C143.666 17.4465 143.477 16.9358 143.291 16.4218C143.16 16.0626 143.036 15.7035 142.906 15.3476C142.733 14.8633 142.56 14.3822 142.384 13.9012C142.221 13.4498 142.064 12.9984 141.898 12.547C141.519 11.5058 141.138 10.4646 140.759 9.42343C140.56 8.87318 140.361 8.32293 140.165 7.77269C139.956 7.1862 139.748 6.59971 139.539 6.00992C139.529 5.98027 139.513 5.95391 139.496 5.91766C139.444 6.00662 139.017 8.16478 138.818 9.24221C138.612 10.3493 138.39 11.4531 138.178 12.5602C137.963 13.6705 137.747 14.7809 137.532 15.8913C137.317 16.9951 137.105 18.0989 136.889 19.1994C135.679 19.206 134.488 19.2126 133.281 19.2191C133.291 19.1401 133.297 19.0742 133.307 19.0116C133.463 18.2373 133.623 17.4663 133.777 16.692C134.002 15.5651 134.227 14.4416 134.452 13.3147C134.648 12.3394 134.847 11.3674 135.043 10.3954C135.219 9.51898 135.395 8.64254 135.574 7.7661C135.754 6.88307 135.933 6.00333 136.113 5.1203C136.24 4.48768 136.364 3.85176 136.488 3.21915C136.563 2.85012 136.641 2.48438 136.716 2.11536C136.837 1.51569 136.951 0.912721 137.069 0.31305C137.075 0.280101 137.088 0.250447 137.101 0.204319C137.16 0.201024 137.219 0.194434 137.278 0.194434C138.475 0.187844 139.673 0.181254 140.867 0.17137C140.89 0.17137 140.909 0.17137 140.932 0.17137C141.076 0.174665 141.085 0.181254 141.134 0.316345C141.333 0.883067 141.536 1.44979 141.735 2.01651C142.387 3.86824 143.036 5.72326 143.689 7.57499C144.309 9.33776 144.929 11.1038 145.552 12.8666C145.627 13.0808 145.702 13.2916 145.78 13.5058C145.79 13.5355 145.81 13.5618 145.852 13.5915C146.714 9.11041 147.575 4.62936 148.436 0.131831L148.446 0.135126Z" fill="white" fill-opacity="0.8"/>
<path d="M75.0241 0.560181C74.8055 1.74634 74.5771 2.89296 74.3552 4.05936C74.29 4.05936 74.2312 4.05936 74.1725 4.05936C73.8593 4.05936 73.546 4.05936 73.2328 4.06595C70.5932 4.08901 67.9537 4.11208 65.3108 4.13514C65.2195 4.13514 65.1248 4.13514 65.0237 4.13514C64.7398 5.55194 64.4592 6.96216 64.1786 8.38555C64.2243 8.39544 64.2602 8.40861 64.2928 8.40861C64.4233 8.40861 64.5571 8.40861 64.6876 8.40861C67.3076 8.39214 69.9244 8.37896 72.5444 8.36249C72.6096 8.36249 72.6716 8.36249 72.7662 8.36249C72.5313 9.47286 72.2997 10.5602 72.068 11.6541L63.5326 11.7035C63.2422 13.173 62.9518 14.6294 62.6582 16.1022C62.7104 16.1055 62.7528 16.1154 62.7952 16.1121C65.5294 16.0956 68.2636 16.0791 70.9978 16.0626C71.3502 16.0626 71.6993 16.0725 72.0517 16.0824C72.0713 16.0824 72.0941 16.089 72.1267 16.0956C72.1039 16.2241 72.0843 16.346 72.0582 16.4712C71.8592 17.4564 71.6569 18.4383 71.4611 19.4267C71.4285 19.5948 71.4024 19.5849 71.2686 19.5849C68.5964 19.5981 65.921 19.6145 63.2487 19.6277C61.7675 19.6343 60.2829 19.6442 58.8016 19.6508C58.583 19.6508 58.3644 19.6508 58.136 19.6541C58.136 19.6112 58.136 19.5849 58.1393 19.5618C58.2698 18.9127 58.4035 18.2636 58.5308 17.6145C58.7624 16.4449 58.9908 15.2752 59.2192 14.1055C59.3432 13.4663 59.4607 12.8271 59.5879 12.1879C59.7641 11.2982 59.9436 10.4119 60.1197 9.52558C60.3775 8.21422 60.632 6.90285 60.8898 5.59148C61.1247 4.39873 61.3596 3.20927 61.5913 2.01652C61.6728 1.60466 61.7446 1.1928 61.8229 0.780938C61.8523 0.635963 61.8555 0.635963 62.0056 0.632668C62.0937 0.632668 62.1818 0.632668 62.2699 0.632668C66.4267 0.609604 70.5834 0.583245 74.737 0.560181C74.8185 0.560181 74.9001 0.560181 75.0208 0.560181H75.0241Z" fill="white" fill-opacity="0.8"/>
<path d="M132.031 19.2059C131.861 19.2454 128.126 19.2553 127.972 19.2158C127.747 17.6375 127.525 16.056 127.297 14.4612C127.228 14.4579 127.176 14.4514 127.121 14.4546C125.085 14.4678 123.049 14.4777 121.009 14.4909C120.889 14.4909 120.768 14.4909 120.647 14.4843C120.566 14.4777 120.52 14.5074 120.481 14.5831C120.07 15.3772 119.652 16.168 119.238 16.9588C118.85 17.7001 118.458 18.4448 118.076 19.1894C118.024 19.2916 117.959 19.3212 117.858 19.3212C117.518 19.3212 117.176 19.3212 116.836 19.3212C115.809 19.3245 114.784 19.3311 113.756 19.3344C113.74 19.3344 113.727 19.3278 113.698 19.3212C113.707 19.2948 113.717 19.2685 113.727 19.2454C114.422 17.9967 115.12 16.7512 115.812 15.5024C116.709 13.8945 117.603 12.2833 118.497 10.6721C119.871 8.20424 121.241 5.73636 122.615 3.26849C123.15 2.30308 123.685 1.34097 124.217 0.372276C124.262 0.289904 124.315 0.26684 124.4 0.26684C124.625 0.26684 124.85 0.26684 125.075 0.26684C126.129 0.26025 127.183 0.25366 128.237 0.24707C128.279 0.24707 128.325 0.24707 128.367 0.24707C128.481 0.250365 128.498 0.263545 128.517 0.378866C128.566 0.649047 128.608 0.922523 128.661 1.196C128.843 2.17788 129.029 3.15976 129.212 4.14163C129.411 5.20918 129.61 6.28002 129.812 7.34756C130.08 8.76766 130.344 10.1911 130.612 11.6112C130.821 12.7347 131.029 13.8583 131.242 14.9818C131.499 16.3492 131.757 17.7166 132.012 19.084C132.018 19.1268 132.021 19.1696 132.025 19.2092L132.031 19.2059ZM126.814 11.3146C126.798 10.9983 125.75 4.54032 125.695 4.4184C125.669 4.45135 125.646 4.48101 125.63 4.51066C125.359 5.04114 125.088 5.57162 124.817 6.1021C124.393 6.93241 123.969 7.76272 123.545 8.58974C123.098 9.46289 122.651 10.336 122.207 11.2125C122.187 11.2487 122.181 11.2916 122.165 11.3443C123.724 11.3344 125.264 11.3245 126.814 11.3179V11.3146Z" fill="white" fill-opacity="0.8"/>
<path d="M53.2419 4.18776C52.8765 4.18117 52.511 4.18776 52.1489 4.18776C51.7867 4.18776 51.4245 4.19106 51.0624 4.19435L49.9595 4.20094C49.5974 4.20094 49.2352 4.20424 48.873 4.20753C48.5109 4.21083 48.1389 4.21083 47.7702 4.21412C47.4081 4.21412 47.0459 4.21742 46.6837 4.22071L45.5809 4.2273L44.4748 4.23389C44.5107 4.06585 44.5434 3.91758 44.5727 3.76602C44.7652 2.82038 44.9577 1.87475 45.1535 0.92582C45.16 0.892871 45.1665 0.859922 45.1698 0.826973C45.1763 0.761075 45.2155 0.731421 45.2807 0.731421C45.3199 0.731421 45.359 0.731421 45.3949 0.731421C49.7866 0.705062 54.1783 0.678703 58.57 0.652344C58.6418 0.652344 58.7103 0.658934 58.8016 0.662228C58.7919 0.734716 58.7919 0.794024 58.7788 0.850037C58.583 1.85827 58.384 2.86322 58.1915 3.87145C58.1719 3.97689 58.1263 4.05597 58.0577 4.12846C57.6662 4.53043 57.2714 4.93241 56.8864 5.33768C56.2926 5.96042 55.7053 6.58645 55.1147 7.20918C54.7623 7.57821 54.3969 7.94065 54.0413 8.30968C53.3659 9.01149 52.6937 9.71659 52.0184 10.4217C51.6366 10.8204 51.2549 11.2158 50.8764 11.6145C50.2271 12.2965 49.5778 12.9785 48.9252 13.6573C48.1487 14.4678 47.3689 15.2784 46.5924 16.0889C46.5597 16.1219 46.5336 16.1581 46.4749 16.2273C49.7409 16.2075 52.9646 16.1878 56.2045 16.1713C56.1947 16.2471 56.1947 16.2998 56.1849 16.3525C56.0055 17.3179 55.826 18.2833 55.6433 19.2487C55.6237 19.3575 55.5943 19.4629 55.5813 19.5749C55.5715 19.6507 55.5356 19.6804 55.4638 19.6804C55.3496 19.6804 55.2322 19.6738 55.118 19.6771C52.5665 19.6935 50.0118 19.7133 47.4603 19.7265C45.3688 19.7397 43.2774 19.7495 41.186 19.7594C41.1501 19.7594 41.1109 19.7528 41.0587 19.7495C41.0979 19.5453 41.1338 19.3509 41.1729 19.1565C41.3426 18.2734 41.5155 17.3904 41.6786 16.5041C41.7047 16.369 41.7635 16.2603 41.8581 16.1614C42.1224 15.8912 42.3769 15.6079 42.6412 15.3344C43.0131 14.9456 43.3949 14.5601 43.7668 14.1713C44.3052 13.6046 44.8403 13.0346 45.3819 12.4678C45.6201 12.2174 45.868 11.9736 46.1095 11.7232C46.6544 11.1532 47.196 10.5832 47.7376 10.0131C48.5011 9.21248 49.2646 8.41182 50.0313 7.61116C50.3348 7.29155 50.648 6.98183 50.9547 6.66552C51.3527 6.25366 51.7443 5.83521 52.1391 5.42005C52.4556 5.09057 52.7721 4.75778 53.0853 4.42829C53.144 4.36569 53.2027 4.29979 53.2615 4.23719C53.2549 4.22071 53.2517 4.20424 53.2452 4.19106L53.2419 4.18776Z" fill="white" fill-opacity="0.8"/>
<path d="M34.631 4.29653C32.9246 4.30641 31.2573 4.3163 29.5901 4.32618C29.5737 4.18779 30.1676 1.09059 30.2589 0.830298C34.7746 0.803939 39.2968 0.77758 43.8157 0.751221C43.8386 0.886311 43.3296 3.55188 43.1501 4.24051L38.4485 4.26687C37.437 9.44315 36.4255 14.6062 35.4108 19.7924C34.1318 19.8056 32.8757 19.8155 31.5901 19.8122C31.8316 18.5107 32.1089 17.229 32.3536 15.9407C32.6016 14.6458 32.8593 13.3509 33.1138 12.056C33.3683 10.7677 33.6228 9.47939 33.8741 8.18779C34.1253 6.89949 34.3765 5.61119 34.631 4.29323V4.29653Z" fill="white" fill-opacity="0.8"/>
<path d="M28.2686 0.840205C28.249 0.968706 28.236 1.07744 28.2131 1.18287C27.9195 2.67217 27.6258 4.16146 27.3289 5.64745C27.0353 7.13674 26.7383 8.62604 26.4447 10.1153C26.1837 11.4465 25.9227 12.7809 25.6584 14.112C25.4071 15.3806 25.1559 16.6458 24.9047 17.911C24.7839 18.5107 24.6665 19.1137 24.5458 19.7134C24.5164 19.8616 24.5131 19.8649 24.3631 19.8649C23.2994 19.8682 22.2325 19.8715 21.1688 19.8748C21.0252 19.8748 20.8849 19.8748 20.7218 19.8748C20.7251 19.8254 20.7218 19.7792 20.7349 19.7331C20.8784 18.9918 21.022 18.2471 21.1688 17.5058C21.3515 16.57 21.5375 15.631 21.7235 14.6952C21.8638 13.9868 22.0106 13.2784 22.1509 12.57C22.3728 11.4432 22.5914 10.3163 22.81 9.18946C22.9829 8.30643 23.1558 7.4234 23.332 6.54037C23.4723 5.84185 23.6159 5.14663 23.7562 4.44811C23.9291 3.58815 24.0988 2.72818 24.2684 1.86492C24.3239 1.58485 24.3696 1.30149 24.4218 1.01813C24.4511 0.853384 24.4577 0.846795 24.6208 0.846795C25.7856 0.840205 26.9472 0.83032 28.112 0.82373C28.1544 0.82373 28.1968 0.827025 28.2686 0.833615V0.840205Z" fill="white" fill-opacity="0.8"/>
</g>
<defs>
<clipPath id="clip0_109_140">
<rect width="170" height="20" fill="white"/>
</clipPath>
</defs>
</svg>
