<svg width="81" height="80" viewBox="0 0 81 80" fill="none" xmlns="http://www.w3.org/2000/svg">
<g clip-path="url(#clip0_213_369)">
<path d="M78.256 78.8582H3.55402C2.7243 78.8582 2.04681 78.1845 2.04681 77.351V2.64902C2.04681 1.81549 2.72049 1.14182 3.55402 1.14182H78.256C79.0895 1.14182 79.7632 1.81549 79.7632 2.64902V77.351C79.7632 78.1845 79.0895 78.8582 78.256 78.8582Z" fill="#C97911"/>
<path d="M78.256 1.14182H3.55402C2.72161 1.14182 2.04681 1.81662 2.04681 2.64902V77.351C2.04681 78.1834 2.72161 78.8582 3.55402 78.8582H78.256C79.0884 78.8582 79.7632 78.1834 79.7632 77.351V2.64902C79.7632 1.81662 79.0884 1.14182 78.256 1.14182Z" stroke="black" stroke-width="2.28365" stroke-miterlimit="10"/>
<path d="M13.4384 10.0899L12.3955 22.9202C12.3537 23.4112 12.19 23.8831 11.9084 24.2904L11.2309 25.2838L10.5001 26.3799C9.97488 27.1678 9.62472 28.0584 9.47248 28.9909L9.39255 29.4781C9.33546 29.8244 9.2974 30.1746 9.27837 30.5248L9.19083 32.07V58.1341C9.19083 58.351 9.2365 58.568 9.32404 58.7697L9.60188 59.4091C9.71987 59.6793 9.92159 59.9077 10.1766 60.0561L10.6067 60.3073C10.7361 60.3834 10.8731 60.4444 11.0177 60.4938L11.3565 60.608C11.4935 60.6537 11.6419 60.6765 11.7866 60.6765H20.6547C20.8184 60.6765 20.9821 60.6575 21.1419 60.6156L21.5149 60.5243C21.7775 60.4596 22.0135 60.3073 22.1848 60.0942L22.3561 59.8772C22.5159 59.6755 22.6415 59.4472 22.7252 59.1998L22.7938 58.9942C22.8927 58.7012 22.9384 58.3967 22.9384 58.0884L22.8585 30.7531C22.8585 29.6608 22.6605 28.576 22.2837 27.5484C22.044 26.8899 21.6862 26.281 21.2295 25.7519L20.9021 25.3675L20.5368 24.8727C20.1638 24.3627 19.9392 23.7652 19.8821 23.1372L18.6946 9.75498L18.9648 9.45049L18.8392 8.91003L18.6794 8.62457H19.2503V8.05366L19.1399 7.10975L18.5842 7.00699H14.0588C14.0588 7.00699 14.036 7.00699 14.0284 7.00699L13.1187 7.05647L12.8979 7.4523L12.8675 8.15262L13.1225 8.66263H13.545L13.3965 8.94428L13.0464 9.40482L13.0654 9.71692L13.4384 10.0975V10.0899Z" fill="#75480C"/>
<path d="M13.4384 10.0899L12.3955 22.9202C12.3537 23.4112 12.19 23.8831 11.9084 24.2904L11.2309 25.2838L10.5001 26.3799C9.97488 27.1678 9.62472 28.0584 9.47248 28.9909L9.39255 29.4781C9.33546 29.8244 9.2974 30.1746 9.27837 30.5248L9.19083 32.07V58.1341C9.19083 58.351 9.2365 58.568 9.32404 58.7697L9.60188 59.4091C9.71987 59.6793 9.92159 59.9077 10.1766 60.0561L10.6067 60.3073C10.7361 60.3835 10.8731 60.4444 11.0177 60.4938L11.3565 60.608C11.4935 60.6537 11.6419 60.6765 11.7866 60.6765H20.6547C20.8184 60.6765 20.9821 60.6575 21.1419 60.6156L21.5149 60.5243C21.7775 60.4596 22.0135 60.3073 22.1848 60.0942L22.3561 59.8772C22.5159 59.6755 22.6415 59.4472 22.7252 59.1998L22.7938 58.9942C22.8927 58.7012 22.9384 58.3967 22.9384 58.0884L22.8585 30.7531C22.8585 29.6608 22.6605 28.576 22.2837 27.5484C22.044 26.8899 21.6862 26.281 21.2295 25.7519L20.9021 25.3675L20.5368 24.8727C20.1638 24.3627 19.9392 23.7652 19.8821 23.1372L18.6946 9.75498L18.9648 9.45049L18.8392 8.91003L18.6794 8.62457H19.2503V8.05366L19.1399 7.10975L18.5842 7.00699H14.0588C14.0588 7.00699 14.036 7.00699 14.0284 7.00699L13.1187 7.05647L12.8979 7.4523L12.8675 8.15262L13.1225 8.66263H13.545L13.3965 8.94428L13.0464 9.40482L13.0654 9.71692L13.4384 10.0975V10.0899Z" stroke="black" stroke-width="0.380608" stroke-miterlimit="10"/>
<path d="M30.3755 10.0899L29.3326 22.9202C29.2907 23.4112 29.1271 23.8831 28.8454 24.2904L28.1679 25.2838L27.4372 26.3799C26.9119 27.1678 26.5618 28.0584 26.4095 28.9909L26.3296 29.4781C26.2725 29.8244 26.2344 30.1746 26.2154 30.5248L26.1279 32.07V58.1341C26.1279 58.351 26.1735 58.568 26.2611 58.7697L26.5389 59.4091C26.6569 59.6793 26.8586 59.9077 27.1136 60.0561L27.5437 60.3073C27.6731 60.3834 27.8102 60.4444 27.9548 60.4938L28.2935 60.608C28.4305 60.6537 28.579 60.6765 28.7236 60.6765H37.5918C37.7554 60.6765 37.9191 60.6575 38.0752 60.6156L38.4482 60.5243C38.7108 60.4596 38.9467 60.3073 39.118 60.0942L39.2893 59.8772C39.453 59.6755 39.5747 59.4472 39.6585 59.1998L39.727 58.9942C39.826 58.7012 39.8716 58.3967 39.8716 58.0884L39.7917 30.7531C39.7917 29.6608 39.5938 28.576 39.217 27.5484C38.9772 26.8899 38.6194 26.281 38.1627 25.7519L37.8316 25.3675L37.4662 24.8727C37.0932 24.3627 36.8686 23.7652 36.8115 23.1372L35.624 9.75498L35.8943 9.45049L35.7687 8.91003L35.6088 8.62457H36.1797V8.05366L36.0694 7.10975L35.5137 7.00699H30.9882C30.9882 7.00699 30.9654 7.00699 30.9578 7.00699L30.0481 7.05647L29.8274 7.4523L29.7969 8.15262L30.0519 8.66263H30.4744L30.326 8.94428L29.9758 9.40482L29.9948 9.71692L30.3678 10.0975L30.3755 10.0899Z" fill="#75480C"/>
<path d="M30.3755 10.0899L29.3326 22.9202C29.2907 23.4112 29.1271 23.8831 28.8454 24.2904L28.1679 25.2838L27.4372 26.3799C26.9119 27.1678 26.5618 28.0584 26.4095 28.9909L26.3296 29.4781C26.2725 29.8244 26.2344 30.1746 26.2154 30.5248L26.1279 32.07V58.1341C26.1279 58.351 26.1735 58.568 26.2611 58.7697L26.5389 59.4091C26.6569 59.6793 26.8586 59.9077 27.1136 60.0561L27.5437 60.3073C27.6731 60.3835 27.8102 60.4444 27.9548 60.4938L28.2935 60.608C28.4305 60.6537 28.579 60.6765 28.7236 60.6765H37.5918C37.7554 60.6765 37.9191 60.6575 38.0752 60.6156L38.4482 60.5243C38.7108 60.4596 38.9467 60.3073 39.118 60.0942L39.2893 59.8772C39.453 59.6755 39.5748 59.4472 39.6585 59.1998L39.727 58.9942C39.826 58.7012 39.8716 58.3967 39.8716 58.0884L39.7917 30.7531C39.7917 29.6608 39.5938 28.576 39.217 27.5484C38.9772 26.8899 38.6194 26.281 38.1627 25.7519L37.8316 25.3675L37.4662 24.8727C37.0932 24.3627 36.8686 23.7652 36.8115 23.1372L35.624 9.75498L35.8943 9.45049L35.7687 8.91003L35.6088 8.62457H36.1797V8.05366L36.0694 7.10975L35.5137 7.00699H30.9882C30.9882 7.00699 30.9654 7.00699 30.9578 7.00699L30.0481 7.05647L29.8274 7.4523L29.7969 8.15262L30.0519 8.66263H30.4744L30.326 8.94428L29.9758 9.40482L29.9948 9.71692L30.3678 10.0975L30.3755 10.0899Z" stroke="black" stroke-width="0.380608" stroke-miterlimit="10"/>
<path d="M47.3087 10.0899L46.2658 22.9202C46.2278 23.4112 46.0603 23.8831 45.7787 24.2904L45.1012 25.2838L44.3704 26.3799C43.8452 27.1678 43.495 28.0584 43.3428 28.9909L43.2628 29.4781C43.2058 29.8244 43.1677 30.1746 43.1487 30.5248L43.0611 32.07V58.1341C43.0611 58.351 43.1068 58.568 43.1943 58.7697L43.4722 59.4091C43.5902 59.6793 43.7919 59.9077 44.0469 60.0561L44.477 60.3073C44.6064 60.3834 44.7434 60.4444 44.888 60.4938L45.2268 60.608C45.3638 60.6537 45.5084 60.6765 45.6569 60.6765H54.525C54.6887 60.6765 54.8524 60.6575 55.0122 60.6156L55.3852 60.5243C55.6478 60.4596 55.8838 60.3073 56.0551 60.0942L56.2264 59.8772C56.39 59.6755 56.5118 59.4472 56.5955 59.1998L56.6641 58.9942C56.763 58.7012 56.8087 58.3967 56.8087 58.0884L56.7288 30.7531C56.7288 29.6608 56.5308 28.576 56.154 27.5484C55.9143 26.8899 55.5565 26.281 55.0998 25.7519L54.7686 25.3675L54.4032 24.8727C54.0302 24.3627 53.8057 23.7652 53.7486 23.1372L52.5611 9.75498L52.8313 9.45049L52.7057 8.91003L52.5459 8.62457H53.1168V8.05366L53.0064 7.10975L52.4507 7.00699H47.9253C47.9253 7.00699 47.9025 7.00699 47.8948 7.00699L46.9852 7.05647L46.7644 7.4523L46.734 8.15262L46.989 8.66263H47.4115L47.263 8.94428L46.9129 9.40482L46.9319 9.71692L47.3049 10.0975L47.3087 10.0899Z" fill="#75480C"/>
<path d="M47.3087 10.0899L46.2658 22.9202C46.2278 23.4112 46.0603 23.8831 45.7787 24.2904L45.1012 25.2838L44.3704 26.3799C43.8452 27.1678 43.495 28.0584 43.3428 28.9909L43.2628 29.4781C43.2058 29.8244 43.1677 30.1746 43.1487 30.5248L43.0611 32.07V58.1341C43.0611 58.351 43.1068 58.568 43.1943 58.7697L43.4722 59.4091C43.5902 59.6793 43.7919 59.9077 44.0469 60.0561L44.477 60.3073C44.6064 60.3835 44.7434 60.4444 44.888 60.4938L45.2268 60.608C45.3638 60.6537 45.5084 60.6765 45.6569 60.6765H54.525C54.6887 60.6765 54.8524 60.6575 55.0122 60.6156L55.3852 60.5243C55.6478 60.4596 55.8838 60.3073 56.0551 60.0942L56.2264 59.8772C56.39 59.6755 56.5118 59.4472 56.5955 59.1998L56.6641 58.9942C56.763 58.7012 56.8087 58.3967 56.8087 58.0884L56.7288 30.7531C56.7288 29.6608 56.5308 28.576 56.154 27.5484C55.9143 26.8899 55.5565 26.281 55.0998 25.7519L54.7686 25.3675L54.4032 24.8727C54.0302 24.3627 53.8057 23.7652 53.7486 23.1372L52.5611 9.75498L52.8313 9.45049L52.7057 8.91003L52.5459 8.62457H53.1168V8.05366L53.0064 7.10975L52.4507 7.00699H47.9253C47.9253 7.00699 47.9025 7.00699 47.8948 7.00699L46.9852 7.05647L46.7644 7.4523L46.734 8.15262L46.989 8.66263H47.4115L47.263 8.94428L46.9129 9.40482L46.9319 9.71692L47.3049 10.0975L47.3087 10.0899Z" stroke="black" stroke-width="0.380608" stroke-miterlimit="10"/>
<path d="M64.242 10.0899L63.1991 22.9202C63.1611 23.4112 62.9936 23.8831 62.7157 24.2904L62.0383 25.2838L61.3075 26.3799C60.7823 27.1678 60.4321 28.0584 60.2799 28.9909L60.1999 29.4781C60.1428 29.8244 60.1048 30.1746 60.0857 30.5248L59.9982 32.07V58.1341C59.9982 58.351 60.0439 58.568 60.1314 58.7697L60.4093 59.4091C60.5272 59.6793 60.729 59.9077 60.984 60.0561L61.4141 60.3073C61.5435 60.3834 61.6805 60.4444 61.8251 60.4938L62.1639 60.608C62.3009 60.6537 62.4455 60.6765 62.5939 60.6765H71.4621C71.6258 60.6765 71.7894 60.6575 71.9455 60.6156L72.3185 60.5243C72.5811 60.4596 72.8171 60.3073 72.9884 60.0942L73.1596 59.8772C73.3233 59.6755 73.4451 59.4472 73.5288 59.1998L73.5973 58.9942C73.6963 58.7012 73.742 58.3967 73.742 58.0884L73.662 30.7531C73.662 29.6608 73.4641 28.576 73.0873 27.5484C72.8475 26.8899 72.4898 26.281 72.033 25.7519L71.7019 25.3675L71.3365 24.8727C70.9635 24.3627 70.739 23.7652 70.6819 23.1372L69.4944 9.75498L69.7646 9.45049L69.639 8.91003L69.4791 8.62457H70.0501V8.05366L69.9397 7.10975L69.384 7.00699H64.8586C64.8586 7.00699 64.8357 7.00699 64.8281 7.00699L63.9185 7.05647L63.6977 7.4523L63.6673 8.15262L63.9223 8.66263H64.3447L64.1963 8.94428L63.8461 9.40482L63.8652 9.71692L64.2382 10.0975L64.242 10.0899Z" fill="#75480C"/>
<path d="M64.242 10.0899L63.1991 22.9202C63.1611 23.4112 62.9936 23.8831 62.7157 24.2904L62.0383 25.2838L61.3075 26.3799C60.7823 27.1678 60.4321 28.0584 60.2799 28.9909L60.1999 29.4781C60.1428 29.8244 60.1048 30.1746 60.0857 30.5248L59.9982 32.07V58.1341C59.9982 58.351 60.0439 58.568 60.1314 58.7697L60.4093 59.4091C60.5272 59.6793 60.729 59.9077 60.984 60.0561L61.4141 60.3073C61.5435 60.3835 61.6805 60.4444 61.8251 60.4938L62.1639 60.608C62.3009 60.6537 62.4455 60.6765 62.5939 60.6765H71.4621C71.6258 60.6765 71.7894 60.6575 71.9455 60.6156L72.3185 60.5243C72.5811 60.4596 72.8171 60.3073 72.9884 60.0942L73.1596 59.8772C73.3233 59.6755 73.4451 59.4472 73.5288 59.1998L73.5973 58.9942C73.6963 58.7012 73.742 58.3967 73.742 58.0884L73.662 30.7531C73.662 29.6608 73.4641 28.576 73.0873 27.5484C72.8475 26.8899 72.4898 26.281 72.033 25.7519L71.7019 25.3675L71.3365 24.8727C70.9635 24.3627 70.739 23.7652 70.6819 23.1372L69.4944 9.75498L69.7646 9.45049L69.639 8.91003L69.4791 8.62457H70.0501V8.05366L69.9397 7.10975L69.384 7.00699H64.8586C64.8586 7.00699 64.8357 7.00699 64.8281 7.00699L63.9185 7.05647L63.6977 7.4523L63.6673 8.15262L63.9223 8.66263H64.3447L64.1963 8.94428L63.8461 9.40482L63.8652 9.71692L64.2382 10.0975L64.242 10.0899Z" stroke="black" stroke-width="0.380608" stroke-miterlimit="10"/>
<path d="M8.10132 72.6257V71.2293L11.8219 67.1753H13.6725V71.4564H14.5423V72.6257H13.6725V73.7709H12.2713V72.6257H8.10132ZM9.6717 71.4564H12.2713V68.6345L9.6717 71.4564ZM19.2921 67.1753V70.8572L21.0702 68.9534H22.5488L20.6692 70.8572H21.0316C21.489 70.8572 21.8063 70.9941 21.9835 71.2679C22.1639 71.5385 22.2541 72.0169 22.2541 72.703V73.7709H20.9301V72.6402C20.9301 72.3374 20.8802 72.1361 20.7803 72.0362C20.6837 71.9331 20.4888 71.8816 20.1957 71.8816H19.2921V73.7709H17.9681V67.1753H19.2921ZM25.5011 68.881C26.3902 68.881 27.0473 69.1387 27.4726 69.6541C27.8623 70.1244 28.0572 70.7139 28.0572 71.4226C28.0572 72.1763 27.8124 72.7771 27.3228 73.2249C26.875 73.6372 26.2613 73.8434 25.4818 73.8434C24.6765 73.8434 24.0451 73.613 23.5877 73.1524C23.1689 72.7304 22.9595 72.1232 22.9595 71.3307C22.9595 70.6543 23.1609 70.0922 23.5635 69.6444C24.0113 69.1451 24.6571 68.8906 25.5011 68.881ZM25.5108 69.8957C24.7151 69.8957 24.3173 70.3901 24.3173 71.3791C24.3173 71.7817 24.3817 72.0877 24.5106 72.2971C24.7264 72.6515 25.063 72.8286 25.5205 72.8286C26.3064 72.8286 26.6994 72.3374 26.6994 71.3549C26.6994 70.3917 26.3032 69.9053 25.5108 69.8957ZM30.3669 73.7709H29.0429V67.1753H30.3669V73.7709ZM35.0104 70.8427C35.0104 70.5045 34.9411 70.2774 34.8026 70.1614C34.6673 70.0422 34.3999 69.9826 34.0005 69.9826H31.7585V68.9534H34.0005C34.3999 68.9534 34.6754 68.9615 34.8268 68.9776C34.9814 68.9905 35.136 69.0211 35.2906 69.0694C36.0219 69.3464 36.3698 70.0084 36.3343 71.0553V73.7709H33.5415C33.0422 73.7709 32.6959 73.7564 32.5026 73.7274C32.3125 73.6984 32.145 73.6356 32.0001 73.5389C31.6071 73.2748 31.4106 72.877 31.4106 72.3455C31.4106 72.0201 31.4879 71.7318 31.6425 71.4805C31.8004 71.2261 32.0065 71.0537 32.261 70.9635C32.4865 70.883 32.8618 70.8427 33.3868 70.8427H35.0104ZM35.0104 71.8719H33.4787L33.2564 71.8671C33.105 71.8671 32.9842 71.9074 32.894 71.9879C32.807 72.0684 32.7635 72.1763 32.7635 72.3116C32.7635 72.4695 32.8167 72.5806 32.923 72.645C33.0325 72.7095 33.2177 72.7417 33.4787 72.7417H35.0104V71.8719ZM38.9774 67.1753V72.1522H37.5761V67.1753H38.9774ZM38.9774 72.6499V73.7709H37.5761V72.6499H38.9774ZM42.3501 72.6257V71.2293L46.0707 67.1753H47.9213V71.4564H48.7911V72.6257H47.9213V73.7709H46.5201V72.6257H42.3501ZM43.9205 71.4564H46.5201V68.6345L43.9205 71.4564ZM52.2169 68.9534H54.5314C54.9824 68.9534 55.3238 68.9824 55.5558 69.0404C55.7877 69.0952 56.0068 69.2031 56.2129 69.3641C56.7863 69.8151 57.073 70.5061 57.073 71.437C57.073 72.1425 56.862 72.7143 56.44 73.1524C56.2306 73.3682 55.989 73.5261 55.7152 73.6259C55.4414 73.7226 55.1064 73.7709 54.7102 73.7709H53.5409V75.5829H52.2169V68.9534ZM53.5409 69.9826V72.7417H54.3526C54.7811 72.7417 55.0967 72.6499 55.2997 72.4663C55.5767 72.2182 55.7152 71.8413 55.7152 71.3356C55.7152 70.9007 55.6057 70.5673 55.3867 70.3354C55.1676 70.1002 54.8535 69.9826 54.4444 69.9826H53.5409ZM58.0539 68.9534H59.3778V73.7709H58.0539V68.9534ZM58.0539 68.4606V67.1753H59.3778V68.4606H58.0539ZM62.7844 72.2681L64.1276 68.9534H65.5289L63.4512 73.7709H62.0306L60.1075 68.9534H61.5522L62.7844 72.2681ZM69.5008 70.8427C69.5008 70.5045 69.4315 70.2774 69.293 70.1614C69.1577 70.0422 68.8903 69.9826 68.4909 69.9826H66.2489V68.9534H68.4909C68.8903 68.9534 69.1657 68.9615 69.3171 68.9776C69.4718 68.9905 69.6264 69.0211 69.781 69.0694C70.5122 69.3464 70.8601 70.0084 70.8247 71.0553V73.7709H68.0318C67.5325 73.7709 67.1863 73.7564 66.993 73.7274C66.8029 73.6984 66.6354 73.6356 66.4905 73.5389C66.0975 73.2748 65.901 72.877 65.901 72.3455C65.901 72.0201 65.9783 71.7318 66.1329 71.4805C66.2907 71.2261 66.4969 71.0537 66.7514 70.9635C66.9769 70.883 67.3521 70.8427 67.8772 70.8427H69.5008ZM69.5008 71.8719H67.969L67.7468 71.8671C67.5954 71.8671 67.4746 71.9074 67.3844 71.9879C67.2974 72.0684 67.2539 72.1763 67.2539 72.3116C67.2539 72.4695 67.3071 72.5806 67.4134 72.645C67.5229 72.7095 67.7081 72.7417 67.969 72.7417H69.5008V71.8719ZM73.4678 67.1753V72.1522H72.0665V67.1753H73.4678ZM73.4678 72.6499V73.7709H72.0665V72.6499H73.4678Z" fill="#56370D"/>
<path d="M9.67421 71.3526L12.2661 68.5323V71.3526H9.67421ZM8.10229 72.521H12.2661V73.6705H13.6706V72.521H14.5422V71.3526H13.6706V67.0669H11.8208L8.10229 71.1242V72.521Z" stroke="black" stroke-width="0.285456" stroke-miterlimit="10"/>
<path d="M19.2922 67.0669H17.9677V73.6667H19.2922V71.775H20.1942C20.7689 71.775 20.925 71.9425 20.925 72.5363V73.6629H22.2495V72.5933C22.2495 71.8702 22.181 71.4553 22.0021 71.1889C21.8156 70.9034 21.4769 70.755 21.0315 70.755H20.6662L22.5464 68.8444H21.062L19.2922 70.755V67.0631V67.0669Z" stroke="black" stroke-width="0.285456" stroke-miterlimit="10"/>
<path d="M25.5151 69.7997C26.2954 69.7997 26.7026 70.2945 26.7026 71.2536C26.7026 72.2127 26.3068 72.719 25.5265 72.719C24.7463 72.719 24.32 72.2242 24.32 71.2726C24.32 70.3211 24.7158 69.7997 25.5189 69.7997H25.5151ZM25.5037 68.7797C23.9699 68.7797 22.9612 69.7502 22.9612 71.2346C22.9612 72.8103 23.8899 73.739 25.4847 73.739C27.0794 73.739 28.0576 72.8103 28.0576 71.3145C28.0576 70.6028 27.8711 70.0281 27.4753 69.5523C27.049 69.0499 26.3867 68.7797 25.5075 68.7797H25.5037Z" stroke="black" stroke-width="0.285456" stroke-miterlimit="10"/>
<path d="M30.3755 67.0669H29.051V73.6667H30.3755V67.0669Z" stroke="black" stroke-width="0.285456" stroke-miterlimit="10"/>
<path d="M35.0075 71.7674V72.639H33.4736C32.9598 72.639 32.7695 72.521 32.7695 72.2127C32.7695 72.0148 32.8799 71.8473 33.055 71.7979C33.1286 71.7776 33.2668 71.7674 33.4698 71.7674H35.0037H35.0075ZM33.3861 70.7398C32.8723 70.7398 32.4841 70.7778 32.2671 70.8578C31.7533 71.0367 31.4146 71.5885 31.4146 72.2432C31.4146 72.7494 31.6315 73.1833 32.0083 73.4307C32.2938 73.6286 32.5411 73.6667 33.5421 73.6667H36.332V70.9567C36.332 70.4429 36.313 70.2526 36.2216 69.9786C36.0618 69.4838 35.7154 69.107 35.2929 68.97C34.977 68.871 34.7982 68.852 33.9951 68.852H31.7571V69.8796H33.9951C34.7982 69.8796 35.0037 70.0661 35.0037 70.7398H33.3823H33.3861Z" stroke="black" stroke-width="0.285456" stroke-miterlimit="10"/>
<path d="M38.9734 72.5515H37.569V73.6705H38.9734V72.5515ZM38.9734 67.0707H37.569V72.0567H38.9734V67.0707Z" stroke="black" stroke-width="0.285456" stroke-miterlimit="10"/>
<path d="M43.9213 71.3526L46.5132 68.5323V71.3526H43.9213ZM42.3494 72.521H46.5171V73.6705H47.9215V72.521H48.7931V71.3526H47.9215V67.0669H46.0717L42.3532 71.1242V72.521H42.3494Z" stroke="black" stroke-width="0.285456" stroke-miterlimit="10"/>
<path d="M53.5393 69.8796H54.4489C55.2596 69.8796 55.7163 70.3668 55.7163 71.2346C55.7163 71.7408 55.5793 72.1138 55.3015 72.3612C55.1036 72.5401 54.7686 72.639 54.35 72.639H53.5393V69.8796ZM52.2148 68.852V75.4822H53.5393V73.6705H54.7077C55.5108 73.6705 56.0132 73.484 56.4395 73.0463C56.8544 72.62 57.0713 72.0262 57.0713 71.3335C57.0713 70.4125 56.7744 69.7007 56.2111 69.2668C55.8039 68.9395 55.4309 68.852 54.5288 68.852H52.2148Z" stroke="black" stroke-width="0.285456" stroke-miterlimit="10"/>
<path d="M58.0533 68.3534H59.3778V67.0669H58.0533V68.3534ZM58.0533 68.8482V73.6667H59.3778V68.8482H58.0533Z" stroke="black" stroke-width="0.285456" stroke-miterlimit="10"/>
<path d="M62.7728 72.1633L61.5473 68.8482H60.101L62.023 73.6667H63.4465L65.5246 68.8482H64.1202L62.7728 72.1633Z" stroke="black" stroke-width="0.285456" stroke-miterlimit="10"/>
<path d="M69.4944 71.7674V72.639H67.9605C67.4467 72.639 67.2564 72.521 67.2564 72.2127C67.2564 72.0148 67.3668 71.8473 67.5418 71.7979C67.6154 71.7776 67.7537 71.7674 67.9567 71.7674H69.4906H69.4944ZM67.873 70.7398C67.3592 70.7398 66.9709 70.7778 66.754 70.8578C66.2402 71.0367 65.9014 71.5885 65.9014 72.2432C65.9014 72.7494 66.1184 73.1833 66.4952 73.4307C66.7806 73.6286 67.028 73.6667 68.029 73.6667H70.8189V70.9567C70.8189 70.4429 70.7999 70.2526 70.7123 69.9786C70.5525 69.4838 70.2061 69.107 69.7836 68.97C69.4677 68.871 69.2888 68.852 68.4858 68.852H66.2478V69.8796H68.4858C69.2888 69.8796 69.4944 70.0661 69.4944 70.7398H67.873Z" stroke="black" stroke-width="0.285456" stroke-miterlimit="10"/>
<path d="M73.4603 72.5515H72.0558V73.6705H73.4603V72.5515ZM73.4603 67.0707H72.0558V72.0567H73.4603V67.0707Z" stroke="black" stroke-width="0.285456" stroke-miterlimit="10"/>
<path d="M9.99734 41.1179V40.5808L11.4283 39.0216H12.1401V40.6682H12.4746V41.1179H12.1401V41.5584H11.6012V41.1179H9.99734ZM10.6013 40.6682H11.6012V39.5829L10.6013 40.6682ZM13.9577 39.0067C14.4347 39.0067 14.7717 39.1337 14.9687 39.3877C15.1372 39.6033 15.2214 39.9044 15.2214 40.2909C15.2214 40.7493 15.1099 41.0839 14.8869 41.2945C14.6887 41.4803 14.4018 41.5732 14.0264 41.5732C13.5222 41.5732 13.1641 41.4345 12.9523 41.157C12.7949 40.9513 12.7162 40.6601 12.7162 40.2835C12.7162 39.8499 12.8166 39.5296 13.0173 39.3227C13.2192 39.1158 13.5327 39.0105 13.9577 39.0067ZM13.9465 39.4323C13.8301 39.4323 13.726 39.4571 13.6343 39.5067C13.5426 39.555 13.472 39.6231 13.4224 39.7111C13.3902 39.7681 13.3636 39.8492 13.3425 39.9545C13.3215 40.0586 13.3109 40.1608 13.3109 40.2612C13.3109 40.3752 13.3215 40.4898 13.3425 40.605C13.3648 40.719 13.3933 40.8076 13.428 40.8708C13.5259 41.0541 13.7155 41.1458 13.9967 41.1458C14.1516 41.1458 14.2711 41.1148 14.3554 41.0529C14.4731 40.9662 14.5499 40.8373 14.5858 40.6663C14.6131 40.535 14.6267 40.4024 14.6267 40.2686C14.6267 40.1398 14.6112 40.019 14.5802 39.9062C14.5505 39.7935 14.5096 39.7043 14.4576 39.6386C14.408 39.5754 14.3374 39.5259 14.2457 39.4899C14.1553 39.4528 14.0555 39.4336 13.9465 39.4323ZM16.7156 39.0067C17.1926 39.0067 17.5296 39.1337 17.7266 39.3877C17.8951 39.6033 17.9793 39.9044 17.9793 40.2909C17.9793 40.7493 17.8678 41.0839 17.6448 41.2945C17.4466 41.4803 17.1598 41.5732 16.7844 41.5732C16.2801 41.5732 15.922 41.4345 15.7102 41.157C15.5528 40.9513 15.4742 40.6601 15.4742 40.2835C15.4742 39.8499 15.5745 39.5296 15.7752 39.3227C15.9772 39.1158 16.2906 39.0105 16.7156 39.0067ZM16.7044 39.4323C16.588 39.4323 16.4839 39.4571 16.3922 39.5067C16.3005 39.555 16.2299 39.6231 16.1804 39.7111C16.1481 39.7681 16.1215 39.8492 16.1004 39.9545C16.0794 40.0586 16.0689 40.1608 16.0689 40.2612C16.0689 40.3752 16.0794 40.4898 16.1004 40.605C16.1227 40.719 16.1512 40.8076 16.1859 40.8708C16.2838 41.0541 16.4734 41.1458 16.7546 41.1458C16.9095 41.1458 17.029 41.1148 17.1133 41.0529C17.231 40.9662 17.3078 40.8373 17.3437 40.6663C17.371 40.535 17.3846 40.4024 17.3846 40.2686C17.3846 40.1398 17.3691 40.019 17.3382 39.9062C17.3084 39.7935 17.2675 39.7043 17.2155 39.6386C17.166 39.5754 17.0953 39.5259 17.0036 39.4899C16.9132 39.4528 16.8135 39.4336 16.7044 39.4323ZM19.3081 39.7055H21.1814C21.3524 39.7055 21.4819 39.7179 21.5698 39.7427C21.659 39.7675 21.7334 39.8121 21.7928 39.8765C21.9043 39.9979 21.9601 40.1652 21.9601 40.3783V41.5584H21.4509V40.4582C21.4509 40.369 21.4466 40.307 21.4379 40.2723C21.4304 40.2377 21.4131 40.2061 21.3858 40.1776C21.3338 40.1268 21.2539 40.1014 21.1461 40.1014H20.8748V41.5584H20.3656V40.1014H19.8173V41.5584H19.3081V39.7055Z" fill="black"/>
<path d="M11.8677 43.395C12.3924 43.395 12.7631 43.5347 12.9798 43.8141C13.1651 44.0512 13.2578 44.3824 13.2578 44.8076C13.2578 45.3119 13.1351 45.6798 12.8898 45.9115C12.6718 46.116 12.3563 46.2182 11.9433 46.2182C11.3886 46.2182 10.9948 46.0655 10.7617 45.7602C10.5887 45.534 10.5021 45.2137 10.5021 44.7994C10.5021 44.3224 10.6125 43.9701 10.8333 43.7425C11.0554 43.5149 11.4002 43.3991 11.8677 43.395ZM11.8554 43.8632C11.7273 43.8632 11.6128 43.8904 11.512 43.9449C11.4111 43.9981 11.3335 44.073 11.2789 44.1698C11.2435 44.2325 11.2142 44.3218 11.191 44.4376C11.1679 44.5521 11.1563 44.6645 11.1563 44.7749C11.1563 44.9003 11.1679 45.0264 11.191 45.1531C11.2156 45.2785 11.2469 45.3759 11.2851 45.4454C11.3927 45.6471 11.6013 45.748 11.9106 45.748C12.081 45.748 12.2125 45.7139 12.3052 45.6458C12.4346 45.5504 12.5191 45.4086 12.5587 45.2206C12.5886 45.0761 12.6036 44.9303 12.6036 44.7831C12.6036 44.6413 12.5866 44.5085 12.5525 44.3844C12.5198 44.2604 12.4748 44.1623 12.4176 44.0901C12.3631 44.0206 12.2854 43.9661 12.1846 43.9265C12.0851 43.8856 11.9754 43.8645 11.8554 43.8632ZM14.1593 45.658V46.1425L13.8363 46.7742H13.5808L13.8363 46.2018H13.6523V45.658H14.1593ZM14.5171 46.2018V45.7071H15.713C15.8793 45.7071 15.9917 45.6832 16.0503 45.6355C16.1212 45.5783 16.1566 45.4924 16.1566 45.378C16.1566 45.2376 16.1103 45.1408 16.0176 45.0877C15.9603 45.0536 15.8588 45.0366 15.713 45.0366H14.7808V44.5419H15.713C15.8888 44.5419 16.004 44.5201 16.0585 44.4764C16.1225 44.4247 16.1545 44.3429 16.1545 44.2311C16.1545 44.1085 16.1123 44.0185 16.0278 43.9613C15.9965 43.9381 15.9603 43.9231 15.9195 43.9163C15.8786 43.9095 15.8097 43.9061 15.713 43.9061H14.5171V43.4114H15.8172C16.0026 43.4127 16.1205 43.4161 16.1709 43.4216C16.2227 43.427 16.2799 43.4414 16.3426 43.4645C16.4857 43.5177 16.6002 43.6144 16.6861 43.7548C16.7678 43.8884 16.8087 44.0301 16.8087 44.18C16.8087 44.4403 16.6847 44.642 16.4367 44.7851C16.6861 44.9473 16.8108 45.1729 16.8108 45.4618C16.8108 45.7275 16.7106 45.9245 16.5103 46.0526C16.4203 46.1112 16.3229 46.1507 16.2179 46.1711C16.113 46.1916 15.9556 46.2018 15.7457 46.2018H14.5171ZM17.1092 46.2018V45.7071H18.3051C18.4714 45.7071 18.5838 45.6832 18.6424 45.6355C18.7133 45.5783 18.7487 45.4924 18.7487 45.378C18.7487 45.2376 18.7024 45.1408 18.6097 45.0877C18.5525 45.0536 18.451 45.0366 18.3051 45.0366H17.3729V44.5419H18.3051C18.4809 44.5419 18.5961 44.5201 18.6506 44.4764C18.7147 44.4247 18.7467 44.3429 18.7467 44.2311C18.7467 44.1085 18.7044 44.0185 18.62 43.9613C18.5886 43.9381 18.5525 43.9231 18.5116 43.9163C18.4707 43.9095 18.4019 43.9061 18.3051 43.9061H17.1092V43.4114H18.4094C18.5947 43.4127 18.7126 43.4161 18.7631 43.4216C18.8148 43.427 18.8721 43.4414 18.9348 43.4645C19.0779 43.5177 19.1923 43.6144 19.2782 43.7548C19.36 43.8884 19.4009 44.0301 19.4009 44.18C19.4009 44.4403 19.2768 44.642 19.0288 44.7851C19.2782 44.9473 19.4029 45.1729 19.4029 45.4618C19.4029 45.7275 19.3027 45.9245 19.1024 46.0526C19.0125 46.1112 18.915 46.1507 18.8101 46.1711C18.7051 46.1916 18.5477 46.2018 18.3378 46.2018H17.1092ZM21.4451 46.2018H20.885V43.4114H21.4451V46.2018Z" fill="black"/>
<path d="M27.514 40.2928C27.3752 40.2085 27.2774 40.1206 27.2204 40.0289C27.1634 39.936 27.1349 39.8189 27.1349 39.6776C27.1349 39.3753 27.2718 39.1734 27.5456 39.0718C27.6596 39.0284 27.903 39.0067 28.276 39.0067C28.5547 39.0067 28.7492 39.0111 28.8595 39.0198C28.9698 39.0284 29.0602 39.0464 29.1308 39.0736C29.2721 39.1294 29.3793 39.2267 29.4524 39.3654C29.5069 39.472 29.5341 39.5866 29.5341 39.7092C29.5341 39.983 29.404 40.1776 29.1439 40.2928C29.2591 40.3572 29.3408 40.4185 29.3892 40.4768C29.4771 40.587 29.5211 40.7208 29.5211 40.8782C29.5211 41.0653 29.4499 41.2319 29.3074 41.3781C29.2355 41.4524 29.1333 41.5039 29.0008 41.5324C28.8694 41.5596 28.6675 41.5732 28.3949 41.5732C28.2177 41.5732 28.0511 41.5702 27.895 41.564C27.6596 41.554 27.4806 41.4927 27.3579 41.38C27.208 41.2412 27.133 41.0777 27.133 40.8893C27.133 40.737 27.177 40.6044 27.265 40.4916C27.3145 40.4285 27.3975 40.3622 27.514 40.2928ZM28.3317 39.4323C28.1112 39.4323 27.9693 39.4435 27.9061 39.4658C27.7884 39.5067 27.7296 39.6014 27.7296 39.7501C27.7296 39.9137 27.7928 40.0128 27.9191 40.0475C27.9538 40.0574 28.092 40.0648 28.3336 40.0698C28.5269 40.0661 28.6421 40.063 28.6792 40.0605C28.7164 40.0568 28.7505 40.0493 28.7815 40.0382C28.8868 39.9973 28.9394 39.905 28.9394 39.7613C28.9394 39.5977 28.8688 39.4968 28.7276 39.4583C28.6669 39.441 28.5349 39.4323 28.3317 39.4323ZM28.328 40.4898C28.1062 40.4898 27.9637 40.5022 27.9006 40.5269C27.7866 40.5703 27.7296 40.6676 27.7296 40.8187C27.7296 40.9872 27.7915 41.0894 27.9154 41.1254C27.9501 41.1353 28.0876 41.1427 28.328 41.1477C28.5188 41.1439 28.6328 41.1409 28.67 41.1384C28.7071 41.1347 28.7406 41.1266 28.7703 41.1142C28.8744 41.0721 28.9264 40.9761 28.9264 40.8262C28.9264 40.6601 28.857 40.5567 28.7183 40.5158C28.6576 40.4985 28.5275 40.4898 28.328 40.4898ZM31.0469 39.0067C31.5239 39.0067 31.8609 39.1337 32.0579 39.3877C32.2264 39.6033 32.3106 39.9044 32.3106 40.2909C32.3106 40.7493 32.1991 41.0839 31.9761 41.2945C31.7779 41.4803 31.4911 41.5732 31.1157 41.5732C30.6114 41.5732 30.2533 41.4345 30.0415 41.157C29.8841 40.9513 29.8055 40.6601 29.8055 40.2835C29.8055 39.8499 29.9058 39.5296 30.1065 39.3227C30.3085 39.1158 30.6219 39.0105 31.0469 39.0067ZM31.0357 39.4323C30.9193 39.4323 30.8152 39.4571 30.7235 39.5067C30.6318 39.555 30.5612 39.6231 30.5117 39.7111C30.4795 39.7681 30.4528 39.8492 30.4318 39.9545C30.4107 40.0586 30.4002 40.1608 30.4002 40.2612C30.4002 40.3752 30.4107 40.4898 30.4318 40.605C30.4541 40.719 30.4825 40.8076 30.5172 40.8708C30.6151 41.0541 30.8047 41.1458 31.0859 41.1458C31.2408 41.1458 31.3604 41.1148 31.4446 41.0529C31.5623 40.9662 31.6391 40.8373 31.675 40.6663C31.7023 40.535 31.7159 40.4024 31.7159 40.2686C31.7159 40.1398 31.7004 40.019 31.6695 39.9062C31.6397 39.7935 31.5989 39.7043 31.5468 39.6386C31.4973 39.5754 31.4266 39.5259 31.335 39.4899C31.2445 39.4528 31.1448 39.4336 31.0357 39.4323ZM33.8048 39.0067C34.2818 39.0067 34.6188 39.1337 34.8158 39.3877C34.9843 39.6033 35.0686 39.9044 35.0686 40.2909C35.0686 40.7493 34.957 41.0839 34.734 41.2945C34.5358 41.4803 34.249 41.5732 33.8736 41.5732C33.3693 41.5732 33.0113 41.4345 32.7994 41.157C32.6421 40.9513 32.5634 40.6601 32.5634 40.2835C32.5634 39.8499 32.6637 39.5296 32.8644 39.3227C33.0664 39.1158 33.3799 39.0105 33.8048 39.0067ZM33.7937 39.4323C33.6772 39.4323 33.5731 39.4571 33.4814 39.5067C33.3898 39.555 33.3191 39.6231 33.2696 39.7111C33.2374 39.7681 33.2107 39.8492 33.1897 39.9545C33.1686 40.0586 33.1581 40.1608 33.1581 40.2612C33.1581 40.3752 33.1686 40.4898 33.1897 40.605C33.212 40.719 33.2405 40.8076 33.2752 40.8708C33.373 41.0541 33.5626 41.1458 33.8438 41.1458C33.9987 41.1458 34.1183 41.1148 34.2025 41.0529C34.3202 40.9662 34.397 40.8373 34.433 40.6663C34.4602 40.535 34.4739 40.4024 34.4739 40.2686C34.4739 40.1398 34.4584 40.019 34.4274 39.9062C34.3977 39.7935 34.3568 39.7043 34.3047 39.6386C34.2552 39.5754 34.1846 39.5259 34.0929 39.4899C34.0024 39.4528 33.9027 39.4336 33.7937 39.4323ZM36.3973 39.7055H38.2706C38.4416 39.7055 38.5711 39.7179 38.6591 39.7427C38.7483 39.7675 38.8226 39.8121 38.8821 39.8765C38.9936 39.9979 39.0493 40.1652 39.0493 40.3783V41.5584H38.5401V40.4582C38.5401 40.369 38.5358 40.307 38.5271 40.2723C38.5197 40.2377 38.5023 40.2061 38.4751 40.1776C38.423 40.1268 38.3431 40.1014 38.2353 40.1014H37.964V41.5584H37.4548V40.1014H36.9065V41.5584H36.3973V39.7055Z" fill="black"/>
<path d="M28.6563 43.395C29.181 43.395 29.5517 43.5347 29.7684 43.8141C29.9538 44.0512 30.0464 44.3824 30.0464 44.8076C30.0464 45.3119 29.9238 45.6798 29.6785 45.9115C29.4604 46.116 29.1449 46.2182 28.732 46.2182C28.1773 46.2182 27.7834 46.0655 27.5504 45.7602C27.3773 45.534 27.2907 45.2137 27.2907 44.7994C27.2907 44.3224 27.4011 43.9701 27.6219 43.7425C27.8441 43.5149 28.1889 43.3991 28.6563 43.395ZM28.6441 43.8632C28.516 43.8632 28.4015 43.8904 28.3006 43.9449C28.1998 43.9981 28.1221 44.073 28.0676 44.1698C28.0321 44.2325 28.0028 44.3218 27.9797 44.4376C27.9565 44.5521 27.9449 44.6645 27.9449 44.7749C27.9449 44.9003 27.9565 45.0264 27.9797 45.1531C28.0042 45.2785 28.0355 45.3759 28.0737 45.4454C28.1814 45.6471 28.3899 45.748 28.6993 45.748C28.8696 45.748 29.0011 45.7139 29.0938 45.6458C29.2233 45.5504 29.3078 45.4086 29.3473 45.2206C29.3773 45.0761 29.3923 44.9303 29.3923 44.7831C29.3923 44.6413 29.3752 44.5085 29.3412 44.3844C29.3085 44.2604 29.2635 44.1623 29.2062 44.0901C29.1517 44.0206 29.074 43.9661 28.9732 43.9265C28.8737 43.8856 28.764 43.8645 28.6441 43.8632ZM30.948 45.658V46.1425L30.625 46.7742H30.3694L30.625 46.2018H30.441V45.658H30.948ZM31.9721 44.5582H32.9105C33.1244 44.5582 33.2819 44.5691 33.3827 44.5909C33.4849 44.6114 33.5715 44.6509 33.6423 44.7095C33.8236 44.858 33.9142 45.0672 33.9142 45.3371C33.9142 45.6533 33.7766 45.8952 33.5013 46.0628C33.3309 46.1664 33.0686 46.2182 32.7142 46.2182C32.4621 46.2182 32.259 46.1964 32.105 46.1527C31.951 46.1078 31.8181 46.0335 31.7064 45.9299C31.5687 45.7991 31.4658 45.6253 31.3977 45.4086C31.3364 45.2083 31.3057 45.0059 31.3057 44.8015C31.3057 44.4894 31.3698 44.2086 31.4979 43.9592C31.6287 43.7044 31.8256 43.5415 32.0887 43.4707C32.2331 43.4311 32.4478 43.4114 32.7326 43.4114H33.7629V43.9061H32.9105C32.5384 43.9006 32.2965 43.9367 32.1848 44.0144C32.118 44.0621 32.0662 44.133 32.0294 44.227C31.9926 44.3211 31.9735 44.4315 31.9721 44.5582ZM31.9721 45.0529C31.9735 45.2574 32.0137 45.4189 32.0928 45.5374C32.1459 45.6178 32.2181 45.6737 32.3095 45.7051C32.4021 45.735 32.5405 45.75 32.7244 45.75C32.8362 45.75 32.9234 45.7432 32.9861 45.7296C33.0502 45.7146 33.1047 45.6901 33.1497 45.656C33.2232 45.6001 33.26 45.5136 33.26 45.3964C33.26 45.2737 33.2158 45.1804 33.1272 45.1163C33.0686 45.0741 32.9629 45.0529 32.8103 45.0529H31.9721ZM34.8669 44.5582H35.8052C36.0191 44.5582 36.1766 44.5691 36.2774 44.5909C36.3796 44.6114 36.4662 44.6509 36.537 44.7095C36.7183 44.858 36.8089 45.0672 36.8089 45.3371C36.8089 45.6533 36.6713 45.8952 36.396 46.0628C36.2256 46.1664 35.9633 46.2182 35.6089 46.2182C35.3568 46.2182 35.1537 46.1964 34.9997 46.1527C34.8457 46.1078 34.7128 46.0335 34.6011 45.9299C34.4634 45.7991 34.3606 45.6253 34.2924 45.4086C34.2311 45.2083 34.2004 45.0059 34.2004 44.8015C34.2004 44.4894 34.2645 44.2086 34.3926 43.9592C34.5234 43.7044 34.7203 43.5415 34.9834 43.4707C35.1278 43.4311 35.3425 43.4114 35.6273 43.4114H36.6576V43.9061H35.8052C35.4331 43.9006 35.1912 43.9367 35.0795 44.0144C35.0127 44.0621 34.9609 44.133 34.9241 44.227C34.8873 44.3211 34.8682 44.4315 34.8669 44.5582ZM34.8669 45.0529C34.8682 45.2574 34.9084 45.4189 34.9875 45.5374C35.0406 45.6178 35.1128 45.6737 35.2042 45.7051C35.2968 45.735 35.4352 45.75 35.6191 45.75C35.7309 45.75 35.8181 45.7432 35.8808 45.7296C35.9449 45.7146 35.9994 45.6901 36.0444 45.656C36.118 45.6001 36.1547 45.5136 36.1547 45.3964C36.1547 45.2737 36.1105 45.1804 36.0219 45.1163C35.9633 45.0741 35.8576 45.0529 35.705 45.0529H34.8669ZM38.8389 46.2018H38.2788V43.4114H38.8389V46.2018Z" fill="black"/>
<path d="M44.0544 41.5584H43.5154V39.0216H44.0544V41.5584ZM45.004 41.1086H46.6618V41.5584H44.4651V40.8838C44.4614 40.6 44.5326 40.3838 44.6788 40.2352C44.747 40.1683 44.8213 40.1237 44.9018 40.1014C44.9836 40.0791 45.1112 40.0679 45.2847 40.0679H45.6991C45.8379 40.0679 45.9376 40.0506 45.9983 40.0159C46.0887 39.9638 46.134 39.8858 46.134 39.7817C46.134 39.6677 46.0918 39.5841 46.0076 39.5308C45.9444 39.4912 45.8416 39.4714 45.6991 39.4714H44.506V39.0216H45.8125C46.1371 39.0216 46.3638 39.0755 46.4926 39.1833C46.567 39.2452 46.6246 39.3276 46.6655 39.4305C46.7076 39.5321 46.7287 39.6423 46.7287 39.7613C46.7287 39.9087 46.7033 40.0394 46.6525 40.1534C46.6017 40.2661 46.5311 40.3492 46.4406 40.4024C46.3105 40.4792 46.1135 40.5177 45.8496 40.5177H45.4909C45.3633 40.5177 45.2679 40.5257 45.2048 40.5418C45.1428 40.5579 45.097 40.5858 45.0672 40.6254C45.0276 40.6676 45.0065 40.7537 45.004 40.8838V41.1086ZM48.2098 39.0067C48.6868 39.0067 49.0238 39.1337 49.2208 39.3877C49.3893 39.6033 49.4736 39.9044 49.4736 40.2909C49.4736 40.7493 49.3621 41.0839 49.1391 41.2945C48.9408 41.4803 48.654 41.5732 48.2786 41.5732C47.7744 41.5732 47.4163 41.4345 47.2044 41.157C47.0471 40.9513 46.9684 40.6601 46.9684 40.2835C46.9684 39.8499 47.0688 39.5296 47.2695 39.3227C47.4714 39.1158 47.7849 39.0105 48.2098 39.0067ZM48.1987 39.4323C48.0822 39.4323 47.9782 39.4571 47.8865 39.5067C47.7948 39.555 47.7242 39.6231 47.6746 39.7111C47.6424 39.7681 47.6158 39.8492 47.5947 39.9545C47.5736 40.0586 47.5631 40.1608 47.5631 40.2612C47.5631 40.3752 47.5736 40.4898 47.5947 40.605C47.617 40.719 47.6455 40.8076 47.6802 40.8708C47.7781 41.0541 47.9676 41.1458 48.2489 41.1458C48.4037 41.1458 48.5233 41.1148 48.6075 41.0529C48.7253 40.9662 48.8021 40.8373 48.838 40.6663C48.8653 40.535 48.8789 40.4024 48.8789 40.2686C48.8789 40.1398 48.8634 40.019 48.8324 39.9062C48.8027 39.7935 48.7618 39.7043 48.7098 39.6386C48.6602 39.5754 48.5896 39.5259 48.4979 39.4899C48.4075 39.4528 48.3077 39.4336 48.1987 39.4323ZM50.9678 39.0067C51.4448 39.0067 51.7818 39.1337 51.9788 39.3877C52.1473 39.6033 52.2315 39.9044 52.2315 40.2909C52.2315 40.7493 52.12 41.0839 51.897 41.2945C51.6988 41.4803 51.4119 41.5732 51.0365 41.5732C50.5323 41.5732 50.1742 41.4345 49.9624 41.157C49.805 40.9513 49.7263 40.6601 49.7263 40.2835C49.7263 39.8499 49.8267 39.5296 50.0274 39.3227C50.2293 39.1158 50.5428 39.0105 50.9678 39.0067ZM50.9566 39.4323C50.8402 39.4323 50.7361 39.4571 50.6444 39.5067C50.5527 39.555 50.4821 39.6231 50.4325 39.7111C50.4003 39.7681 50.3737 39.8492 50.3526 39.9545C50.3316 40.0586 50.321 40.1608 50.321 40.2612C50.321 40.3752 50.3316 40.4898 50.3526 40.605C50.3749 40.719 50.4034 40.8076 50.4381 40.8708C50.536 41.0541 50.7255 41.1458 51.0068 41.1458C51.1617 41.1458 51.2812 41.1148 51.3655 41.0529C51.4832 40.9662 51.56 40.8373 51.5959 40.6663C51.6232 40.535 51.6368 40.4024 51.6368 40.2686C51.6368 40.1398 51.6213 40.019 51.5903 39.9062C51.5606 39.7935 51.5197 39.7043 51.4677 39.6386C51.4181 39.5754 51.3475 39.5259 51.2558 39.4899C51.1654 39.4528 51.0656 39.4336 50.9566 39.4323ZM53.5603 39.7055H55.4336C55.6046 39.7055 55.734 39.7179 55.822 39.7427C55.9112 39.7675 55.9855 39.8121 56.045 39.8765C56.1565 39.9979 56.2123 40.1652 56.2123 40.3783V41.5584H55.7031V40.4582C55.7031 40.369 55.6987 40.307 55.6901 40.2723C55.6826 40.2377 55.6653 40.2061 55.638 40.1776C55.586 40.1268 55.5061 40.1014 55.3983 40.1014H55.1269V41.5584H54.6177V40.1014H54.0695V41.5584H53.5603V39.7055Z" fill="black"/>
<path d="M45.3688 43.395C45.8935 43.395 46.2642 43.5347 46.4809 43.8141C46.6663 44.0512 46.7589 44.3824 46.7589 44.8076C46.7589 45.3119 46.6363 45.6798 46.391 45.9115C46.1729 46.116 45.8574 46.2182 45.4445 46.2182C44.8898 46.2182 44.4959 46.0655 44.2629 45.7602C44.0898 45.534 44.0032 45.2137 44.0032 44.7994C44.0032 44.3224 44.1136 43.9701 44.3344 43.7425C44.5566 43.5149 44.9014 43.3991 45.3688 43.395ZM45.3566 43.8632C45.2284 43.8632 45.114 43.8904 45.0131 43.9449C44.9123 43.9981 44.8346 44.073 44.7801 44.1698C44.7446 44.2325 44.7153 44.3218 44.6922 44.4376C44.669 44.5521 44.6574 44.6645 44.6574 44.7749C44.6574 44.9003 44.669 45.0264 44.6922 45.1531C44.7167 45.2785 44.748 45.3759 44.7862 45.4454C44.8939 45.6471 45.1024 45.748 45.4117 45.748C45.5821 45.748 45.7136 45.7139 45.8063 45.6458C45.9358 45.5504 46.0203 45.4086 46.0598 45.2206C46.0898 45.0761 46.1048 44.9303 46.1048 44.7831C46.1048 44.6413 46.0877 44.5085 46.0537 44.3844C46.0209 44.2604 45.976 44.1623 45.9187 44.0901C45.8642 44.0206 45.7865 43.9661 45.6857 43.9265C45.5862 43.8856 45.4765 43.8645 45.3566 43.8632ZM47.6605 45.658V46.1425L47.3375 46.7742H47.0819L47.3375 46.2018H47.1535V45.658H47.6605ZM49.9685 45.055H49.0301C48.8162 45.055 48.6581 45.0447 48.5559 45.0243C48.455 45.0025 48.3691 44.9623 48.2983 44.9037C48.117 44.7551 48.0264 44.5459 48.0264 44.2761C48.0264 43.9599 48.164 43.718 48.4393 43.5504C48.6097 43.4468 48.872 43.395 49.2264 43.395C49.4785 43.395 49.6816 43.4175 49.8356 43.4625C49.9896 43.5061 50.1225 43.5797 50.2342 43.6833C50.3719 43.8141 50.4748 43.9885 50.5429 44.2066C50.6042 44.4056 50.6349 44.6073 50.6349 44.8117C50.6349 45.1224 50.5708 45.4032 50.4427 45.6539C50.3119 45.9102 50.115 46.073 49.8519 46.1425C49.7075 46.1821 49.4928 46.2018 49.208 46.2018H48.1777V45.7071H49.0301C49.4035 45.7125 49.6455 45.6764 49.7558 45.5987C49.8226 45.551 49.8744 45.4802 49.9112 45.3861C49.948 45.2921 49.9671 45.1817 49.9685 45.055ZM49.9685 44.5603C49.9671 44.3558 49.9269 44.1943 49.8478 44.0758C49.7961 43.9967 49.7238 43.9415 49.6311 43.9102C49.5398 43.8788 49.4063 43.8632 49.2305 43.8632C49.0274 43.8632 48.8911 43.8863 48.8216 43.9327C48.7276 43.994 48.6806 44.0908 48.6806 44.2229C48.6806 44.3415 48.7255 44.4328 48.8155 44.4969C48.8727 44.5391 48.9777 44.5603 49.1303 44.5603H49.9685ZM52.8632 45.055H51.9248C51.7109 45.055 51.5528 45.0447 51.4506 45.0243C51.3497 45.0025 51.2638 44.9623 51.193 44.9037C51.0117 44.7551 50.9211 44.5459 50.9211 44.2761C50.9211 43.9599 51.0587 43.718 51.334 43.5504C51.5044 43.4468 51.7667 43.395 52.1211 43.395C52.3732 43.395 52.5763 43.4175 52.7303 43.4625C52.8843 43.5061 53.0172 43.5797 53.1289 43.6833C53.2666 43.8141 53.3695 43.9885 53.4376 44.2066C53.4989 44.4056 53.5296 44.6073 53.5296 44.8117C53.5296 45.1224 53.4655 45.4032 53.3374 45.6539C53.2066 45.9102 53.0097 46.073 52.7466 46.1425C52.6022 46.1821 52.3875 46.2018 52.1027 46.2018H51.0724V45.7071H51.9248C52.2983 45.7125 52.5402 45.6764 52.6505 45.5987C52.7173 45.551 52.7691 45.4802 52.8059 45.3861C52.8427 45.2921 52.8618 45.1817 52.8632 45.055ZM52.8632 44.5603C52.8618 44.3558 52.8216 44.1943 52.7425 44.0758C52.6908 43.9967 52.6185 43.9415 52.5258 43.9102C52.4345 43.8788 52.301 43.8632 52.1252 43.8632C51.9221 43.8632 51.7858 43.8863 51.7163 43.9327C51.6223 43.994 51.5753 44.0908 51.5753 44.2229C51.5753 44.3415 51.6202 44.4328 51.7102 44.4969C51.7674 44.5391 51.8724 44.5603 52.025 44.5603H52.8632ZM55.5514 46.2018H54.9913V43.4114H55.5514V46.2018Z" fill="black"/>
<path d="M61.1589 41.5584H60.62V39.0216H61.1589V41.5584ZM62.1402 40.0642H62.9932C63.1877 40.0642 63.3308 40.0741 63.4225 40.0939C63.5154 40.1125 63.5941 40.1484 63.6585 40.2017C63.8233 40.3368 63.9057 40.5269 63.9057 40.7723C63.9057 41.0597 63.7805 41.2796 63.5303 41.432C63.3754 41.5262 63.1369 41.5732 62.8148 41.5732C62.5856 41.5732 62.401 41.5534 62.261 41.5138C62.121 41.4729 62.0002 41.4054 61.8986 41.3112C61.7734 41.1923 61.6799 41.0343 61.6179 40.8373C61.5622 40.6552 61.5343 40.4712 61.5343 40.2854C61.5343 40.0016 61.5925 39.7464 61.709 39.5197C61.8279 39.288 62.007 39.1399 62.2461 39.0755C62.3774 39.0396 62.5726 39.0216 62.8315 39.0216H63.7681V39.4714H62.9932C62.6549 39.4664 62.435 39.4992 62.3334 39.5699C62.2727 39.6132 62.2256 39.6776 62.1922 39.7631C62.1587 39.8486 62.1414 39.949 62.1402 40.0642ZM62.1402 40.5139C62.1414 40.6998 62.1779 40.8466 62.2498 40.9544C62.2981 41.0275 62.3638 41.0783 62.4468 41.1068C62.531 41.134 62.6568 41.1477 62.8241 41.1477C62.9257 41.1477 63.0049 41.1415 63.0619 41.1291C63.1202 41.1155 63.1697 41.0932 63.2106 41.0622C63.2775 41.0114 63.311 40.9327 63.311 40.8262C63.311 40.7146 63.2707 40.6298 63.1902 40.5715C63.1369 40.5331 63.0409 40.5139 62.9021 40.5139H62.1402ZM65.4073 39.0067C65.8843 39.0067 66.2213 39.1337 66.4183 39.3877C66.5868 39.6033 66.671 39.9044 66.671 40.2909C66.671 40.7493 66.5595 41.0839 66.3365 41.2945C66.1383 41.4803 65.8515 41.5732 65.4761 41.5732C64.9718 41.5732 64.6137 41.4345 64.4019 41.157C64.2445 40.9513 64.1659 40.6601 64.1659 40.2835C64.1659 39.8499 64.2662 39.5296 64.4669 39.3227C64.6689 39.1158 64.9823 39.0105 65.4073 39.0067ZM65.3961 39.4323C65.2797 39.4323 65.1756 39.4571 65.0839 39.5067C64.9922 39.555 64.9216 39.6231 64.8721 39.7111C64.8398 39.7681 64.8132 39.8492 64.7921 39.9545C64.7711 40.0586 64.7606 40.1608 64.7606 40.2612C64.7606 40.3752 64.7711 40.4898 64.7921 40.605C64.8144 40.719 64.8429 40.8076 64.8776 40.8708C64.9755 41.0541 65.1651 41.1458 65.4463 41.1458C65.6012 41.1458 65.7207 41.1148 65.805 41.0529C65.9227 40.9662 65.9995 40.8373 66.0354 40.6663C66.0627 40.535 66.0763 40.4024 66.0763 40.2686C66.0763 40.1398 66.0608 40.019 66.0299 39.9062C66.0001 39.7935 65.9592 39.7043 65.9072 39.6386C65.8576 39.5754 65.787 39.5259 65.6953 39.4899C65.6049 39.4528 65.5052 39.4336 65.3961 39.4323ZM68.6967 40.5158H67.8437C67.6492 40.5158 67.5055 40.5065 67.4125 40.4879C67.3209 40.4681 67.2428 40.4315 67.1784 40.3783C67.0136 40.2432 66.9312 40.053 66.9312 39.8077C66.9312 39.5203 67.0563 39.3004 67.3066 39.148C67.4615 39.0538 67.7 39.0067 68.0221 39.0067C68.2513 39.0067 68.4359 39.0272 68.5759 39.0681C68.7159 39.1077 68.8367 39.1746 68.9383 39.2688C69.0635 39.3877 69.157 39.5463 69.2189 39.7445C69.2747 39.9254 69.3026 40.1088 69.3026 40.2946C69.3026 40.5771 69.2443 40.8324 69.1279 41.0603C69.0089 41.2932 68.8299 41.4413 68.5908 41.5045C68.4595 41.5404 68.2643 41.5584 68.0054 41.5584H67.0687V41.1086H67.8437C68.1832 41.1136 68.4031 41.0808 68.5034 41.0101C68.5642 40.9668 68.6112 40.9024 68.6447 40.8169C68.6781 40.7314 68.6955 40.631 68.6967 40.5158ZM68.6967 40.0661C68.6955 39.8802 68.6589 39.7334 68.5871 39.6256C68.54 39.5537 68.4743 39.5036 68.3901 39.4751C68.3071 39.4466 68.1857 39.4323 68.0258 39.4323C67.8412 39.4323 67.7173 39.4534 67.6541 39.4955C67.5687 39.5513 67.5259 39.6392 67.5259 39.7594C67.5259 39.8672 67.5668 39.9502 67.6486 40.0084C67.7006 40.0469 67.796 40.0661 67.9348 40.0661H68.6967ZM70.6314 39.7055H72.5047C72.6756 39.7055 72.8051 39.7179 72.8931 39.7427C72.9823 39.7675 73.0566 39.8121 73.1161 39.8765C73.2276 39.9979 73.2833 40.1652 73.2833 40.3783V41.5584H72.7741V40.4582C72.7741 40.369 72.7698 40.307 72.7611 40.2723C72.7537 40.2377 72.7363 40.2061 72.7091 40.1776C72.6571 40.1268 72.5771 40.1014 72.4694 40.1014H72.198V41.5584H71.6888V40.1014H71.1406V41.5584H70.6314V39.7055Z" fill="black"/>
<path d="M62.9858 46.2018H62.3929V43.4114H62.9858V46.2018ZM64.0263 45.658V46.1425L63.7033 46.7742H63.4478L63.7033 46.2018H63.5193V45.658H64.0263ZM64.3841 46.2018V45.7071H65.58C65.7463 45.7071 65.8587 45.6832 65.9173 45.6355C65.9882 45.5783 66.0236 45.4924 66.0236 45.378C66.0236 45.2376 65.9773 45.1408 65.8846 45.0877C65.8273 45.0536 65.7258 45.0366 65.58 45.0366H64.6478V44.5419H65.58C65.7558 44.5419 65.871 44.5201 65.9255 44.4764C65.9895 44.4247 66.0215 44.3429 66.0215 44.2311C66.0215 44.1085 65.9793 44.0185 65.8948 43.9613C65.8635 43.9381 65.8273 43.9231 65.7865 43.9163C65.7456 43.9095 65.6767 43.9061 65.58 43.9061H64.3841V43.4114H65.6842C65.8696 43.4127 65.9875 43.4161 66.0379 43.4216C66.0897 43.427 66.1469 43.4414 66.2096 43.4645C66.3527 43.5177 66.4672 43.6144 66.5531 43.7548C66.6348 43.8884 66.6757 44.0301 66.6757 44.18C66.6757 44.4403 66.5517 44.642 66.3037 44.7851C66.5531 44.9473 66.6778 45.1729 66.6778 45.4618C66.6778 45.7275 66.5776 45.9245 66.3773 46.0526C66.2873 46.1112 66.1899 46.1507 66.0849 46.1711C65.98 46.1916 65.8226 46.2018 65.6127 46.2018H64.3841ZM67.5834 45.7071H69.4069V46.2018H66.9905V45.4597C66.9865 45.1476 67.0648 44.9098 67.2256 44.7463C67.3006 44.6727 67.3824 44.6236 67.4709 44.5991C67.5609 44.5746 67.7013 44.5623 67.8921 44.5623H68.3479C68.5006 44.5623 68.6103 44.5432 68.6771 44.5051C68.7766 44.4478 68.8263 44.362 68.8263 44.2475C68.8263 44.1221 68.78 44.0301 68.6873 43.9715C68.6178 43.9279 68.5047 43.9061 68.3479 43.9061H67.0355V43.4114H68.4726C68.8297 43.4114 69.0791 43.4707 69.2208 43.5892C69.3026 43.6574 69.366 43.748 69.411 43.8611C69.4573 43.9729 69.4805 44.0942 69.4805 44.225C69.4805 44.3872 69.4525 44.531 69.3967 44.6563C69.3408 44.7804 69.2631 44.8717 69.1636 44.9303C69.0205 45.0148 68.8038 45.057 68.5135 45.057H68.119C67.9786 45.057 67.8737 45.0659 67.8042 45.0836C67.736 45.1013 67.6856 45.132 67.6529 45.1756C67.6093 45.2219 67.5861 45.3166 67.5834 45.4597V45.7071ZM71.488 46.2018H70.9278V43.4114H71.488V46.2018Z" fill="black"/>
</g>
<defs>
<clipPath id="clip0_213_369">
<rect width="80" height="80" fill="white" transform="translate(0.904999)"/>
</clipPath>
</defs>
</svg>
