<svg width="20" height="20" viewBox="0 0 20 20" fill="none" xmlns="http://www.w3.org/2000/svg">
<path d="M18.7832 5.35004C18.6843 4.95455 18.4826 4.59218 18.1988 4.29955C17.9149 4.00691 17.5589 3.79436 17.1666 3.68337C15.7332 3.33337 9.99991 3.33337 9.99991 3.33337C9.99991 3.33337 4.26657 3.33337 2.83324 3.71671C2.44095 3.82769 2.08489 4.04024 1.80103 4.33288C1.51717 4.62552 1.31556 4.98788 1.21657 5.38337C0.954252 6.838 0.825937 8.31363 0.83324 9.79171C0.823889 11.2809 0.952213 12.7678 1.21657 14.2334C1.32571 14.6166 1.53183 14.9652 1.81503 15.2454C2.09822 15.5257 2.44892 15.7282 2.83324 15.8334C4.26657 16.2167 9.99991 16.2167 9.99991 16.2167C9.99991 16.2167 15.7332 16.2167 17.1666 15.8334C17.5589 15.7224 17.9149 15.5098 18.1988 15.2172C18.4826 14.9246 18.6843 14.5622 18.7832 14.1667C19.0435 12.723 19.1718 11.2587 19.1666 9.79171C19.1759 8.3025 19.0476 6.81562 18.7832 5.35004Z" stroke="white" stroke-linecap="round" stroke-linejoin="round"/>
<path d="M8.125 12.5167L12.9167 9.79165L8.125 7.06665V12.5167Z" stroke="white" stroke-linecap="round" stroke-linejoin="round"/>
</svg>
