<svg width="80" height="80" viewBox="0 0 80 80" fill="none" xmlns="http://www.w3.org/2000/svg"><g clip-path="url(#clip0_213_319)"><path d="M76.552 78.858H3.448a2.305 2.305 0 01-2.306-2.306V3.444a2.304 2.304 0 012.306-2.302h73.107a2.307 2.307 0 012.307 2.302v73.108a2.305 2.305 0 01-2.306 2.306" fill="#F9B333"/><path d="M3.448 1.142h73.107a2.307 2.307 0 012.307 2.306v73.107a2.303 2.303 0 01-2.303 2.303H3.45a2.307 2.307 0 01-2.307-2.306V3.448a2.307 2.307 0 012.306-2.306z" stroke="#000" stroke-width="2.28" stroke-miterlimit="10"/><path d="M58.322 31.712l-.017 12.127 4.632.006.017-12.126-4.632-.007zM64.55 31.712l-.017 12.127 4.583.006.017-12.126-4.583-.007zM71.067 31.701l-.017 12.126 4.24.006.017-12.126-4.24-.006zM53.628 36.321v.895a.36.36 0 01-.362.358h-.894a.36.36 0 01-.358-.362v-.894a.36.36 0 01.361-.358h.895a.36.36 0 01.358.361zM53.632 32.215v.894a.36.36 0 01-.362.358h-.895a.36.36 0 01-.357-.362v-.894a.36.36 0 01.361-.358h.895a.36.36 0 01.358.362z" fill="#965F15"/><path d="M75.524 30.106l-4.62.015C71.79 22.64 67.218 14.688 60.39 11.4c-6.828-3.292-15.73-1.652-20.861 3.932a17.71 17.71 0 00-4.343 8.685c-.388 2.082-.396 4.218-.403 6.334-.015 5.035-.035 10.07-.05 15.11-.007 2.135-.011 4.282.377 6.383 1.153 6.184 5.976 11.513 11.982 13.39 6.006 1.876 12.94.277 17.603-3.948 4.662-4.224 7.239-10.786 6.417-17.112 1.556-.003 2.626-.007 4.183-.011.544 7.856-1.698 15.906-7.533 21.044-5.838 5.138-14.394 7-21.827 4.712-7.434-2.288-13.474-8.655-15.328-16.21-1.248-5.085-.688-10.406-.68-15.64.01-5.598-.61-11.319.878-16.716 1.428-5.188 4.819-9.797 9.31-12.762C45.867 4.8 53.24 3.745 59.782 5.93a23.176 23.176 0 014.084 1.815 23.044 23.044 0 016.771 5.77c3.662 4.636 5.237 10.813 4.88 16.599" fill="#DD9F3C"/><path d="M64.49 30.11c.91 0 4.75.08 4.75 0 0-.974-.007-2.508-.026-3.483-.05-2.793-1.047-5.537-2.585-7.848-1.31-1.971-3.007-3.715-5.009-4.993-2.257-1.443-5.031-2.261-7.688-2.505-5.153-.476-10.607 1.652-13.915 5.687-1.29 1.575-2.383 3.383-3.022 5.347-.72 2.219-.826 4.56-.784 6.874.027 1.64-.03 3.296-.027 4.94.008 2.619.03 5.233.046 7.852.015 2.535-.148 5.115.118 7.643.24 2.234.967 4.407 2.052 6.371.947 1.713 2.01 3.277 3.535 4.522 3.586 2.923 8.096 4.361 12.716 3.954 2.098-.183 4.043-.978 5.866-1.998 1.183-.662 2.405-1.31 3.414-2.234 1.012-.929 1.933-2.265 2.66-3.426 1.568-2.516 2.318-5.18 2.478-8.133.019-.373.21-4.514.118-4.53-.034-.003-4.647 0-4.647 0a756.463 756.463 0 00-.057 4.153c-.061 5.576-4.53 10.33-9.904 11.342-4.929.929-9.625-1.72-12.141-5.9-.716-1.187-1.001-2.325-1.165-3.68-.365-3.003-.148-6.032-.152-9.05V30.661c.008-3.19-.312-6.44 1.477-9.264 1.32-2.086 3.44-3.894 5.74-4.803 2.268-.895 4.947-.857 7.3-.332 2.736.61 5.027 2.387 6.694 4.606 2.082 2.767 2.15 5.895 2.15 9.237" fill="#DD9F3C"/><path d="M47.15 39.956c.026 1.774.084 3.544.194 5.313.103 1.671.125 3.464.495 5.1.35 1.542 1.221 2.684 2.797 3.065 1.606.388 3.422.266 4.895-.56 1.716-.96 2.527-2.748 2.744-4.64.038-.334.103-4.065.068-4.065.073 0 4.297.031 4.465.031-.042 2.752-.069 5.576-1.04 8.042-.844 2.158-2.545 3.947-4.612 5.017-1.69.875-3.422 1.142-5.313 1.042-.655-.034-1.412-.137-2.033-.357-1.694-.598-3.22-1.614-4.491-2.893-1.203-1.214-1.678-2.577-1.998-4.202-.468-2.375-.613-4.818-.697-7.231-.122-3.532-.026-7.084-.026-10.616 0-1.355.064-2.725.015-4.072-.038-1.077-.069-2.166.106-3.231.682-4.141 4.275-7.346 8.332-8.012 1.793-.293 3.627-.149 5.336.476 4.069 1.488 6.535 5.42 6.558 9.678 0 .168.042 2.318-.08 2.318-1.519 0-2.95-.022-4.503-.022 0-.606 0-1.21-.003-1.816-.004-1.226.041-2.55-.571-3.658-.735-1.324-2.261-2.066-3.711-2.264-2.55-.35-5.397.54-6.512 3.071-.457 1.036-.453 2.193-.389 3.304.069 1.18-.015 2.394-.023 3.581-.015 2.52-.045 5.063-.007 7.605" fill="#DD9F3C"/><path d="M42.08 12.598h6.737v47.919H42.08V12.598zm2.908 35.012l16.617-20.298 7.928.103L44.562 55.6l.43-7.993-.004.004zm7.962-6.77l4.328-4.492L72.239 60.52h-7.334L52.95 40.84z" fill="#1B8EA9"/><path d="M18.76 59.07c-1.861-.936-3.376-2.298-4.54-4.084-1.165-1.785-1.945-3.931-2.337-6.432v-.034h6.66v.034c.24 1.743.937 3.098 2.09 4.065 1.153.97 2.656 1.454 4.506 1.454 2.135 0 3.783-.712 4.948-2.139 1.165-1.427 1.747-3.33 1.747-5.922v-3.985c0-2.57-.582-4.568-1.747-5.995-1.165-1.427-2.813-2.139-4.948-2.139-1.153 0-2.264.328-3.33.978-.883.54-1.675 1.256-2.379 2.154-.293.377-.75.484-1.23.484h-3.695a1.582 1.582 0 01-1.583-1.583V14.075c0-.875.708-1.583 1.583-1.583l27.727.106v6.337H19.586v10.68a9.409 9.409 0 012.775-1.568 9.172 9.172 0 013.136-.556c2.744 0 5.089.567 7.037 1.698 1.95 1.13 3.43 2.786 4.442 4.963 1.013 2.177 1.519 4.8 1.519 7.87v3.986c0 3.071-.522 5.587-1.568 7.764-1.047 2.177-2.57 3.837-4.572 4.983-2.001 1.141-4.407 1.716-7.216 1.716-2.394 0-4.525-.468-6.386-1.404" fill="#1B8EA9"/><path d="M51.774 75.454a.186.186 0 01-.137-.054.18.18 0 01-.055-.133v-2.599l.055.064-.516.356a.179.179 0 01-.105.033.18.18 0 01-.133-.055.19.19 0 01-.054-.133c0-.067.032-.12.096-.16l.726-.48a.256.256 0 01.073-.031.198.198 0 01.073-.005c.055 0 .097.018.128.055.033.034.05.076.05.128v2.827c0 .052-.02.096-.06.133a.191.191 0 01-.14.054zm1.11-.53c.018 0 .038.005.06.014.024.006.05.022.077.046a.729.729 0 00.498.183.76.76 0 00.36-.087.711.711 0 00.265-.256.688.688 0 00.105-.379.634.634 0 00-.105-.38.584.584 0 00-.26-.218.762.762 0 00-.553-.041.304.304 0 01-.086.013.14.14 0 01-.114-.05.188.188 0 01-.042-.123c0-.028.005-.052.014-.073a.367.367 0 01.055-.078l.886-.96.073.088H52.82a.168.168 0 01-.123-.05.168.168 0 01-.05-.124c0-.049.016-.088.05-.119a.168.168 0 01.123-.05h1.489c.067 0 .116.02.146.06.03.036.046.077.046.123a.143.143 0 01-.023.077.261.261 0 01-.05.069l-.886.964-.105-.092a.262.262 0 01.105-.032.654.654 0 01.137-.018.927.927 0 01.813.47c.085.15.127.323.127.521 0 .22-.05.41-.15.571-.1.161-.24.286-.416.375-.173.088-.37.132-.59.132-.12 0-.241-.018-.36-.055a.911.911 0 01-.301-.169.198.198 0 01-.083-.073.202.202 0 01-.018-.082c0-.046.017-.09.05-.132a.169.169 0 01.133-.065zm2.445-1.333a.204.204 0 01-.15-.055.232.232 0 01-.051-.155v-.092c0-.064.017-.114.05-.15a.204.204 0 01.15-.055h.037c.067 0 .118.018.151.055.034.036.05.087.05.15v.092a.232.232 0 01-.05.155c-.033.037-.084.055-.15.055h-.037zm0 1.863a.203.203 0 01-.15-.054.232.232 0 01-.051-.156v-.091c0-.064.017-.114.05-.15a.203.203 0 01.15-.056h.037c.067 0 .118.019.151.055.034.037.05.087.05.15v.092a.232.232 0 01-.05.156c-.033.036-.084.054-.15.054h-.037zm2.653-.342c.048 0 .09.017.123.05s.05.075.05.123c0 .05-.017.09-.05.124a.177.177 0 01-.123.045h-1.658a.207.207 0 01-.137-.045.18.18 0 01-.05-.133.19.19 0 01.054-.132l1.032-1.128c.153-.165.267-.319.343-.462a.838.838 0 00.119-.388.59.59 0 00-.17-.443.59.59 0 00-.442-.169.603.603 0 00-.247.055.753.753 0 00-.224.142.773.773 0 00-.164.196.188.188 0 01-.078.078.217.217 0 01-.077.013.188.188 0 01-.124-.045.152.152 0 01-.055-.115c0-.033.01-.064.028-.091a.827.827 0 01.073-.1c.064-.089.143-.168.237-.238.098-.073.203-.13.316-.174a1.065 1.065 0 01.845.05.809.809 0 01.337.325c.08.14.12.304.12.493 0 .162-.05.34-.147.535-.097.195-.24.392-.43.593l-.798.886-.046-.045h1.343zm2.077.342a.18.18 0 01-.133-.054.189.189 0 01-.05-.133V72.77l.073.027-1.091 1.425-.018-.055h1.708c.048 0 .09.017.123.05.033.034.05.075.05.124a.163.163 0 01-.173.164h-1.96a.185.185 0 01-.128-.055.175.175 0 01-.054-.127.17.17 0 01.045-.12l1.457-1.872a.155.155 0 01.073-.055.2.2 0 01.082-.018c.052 0 .095.018.128.055.034.034.05.076.05.128v2.827a.18.18 0 01-.054.133.166.166 0 01-.128.054zm1.233-.004a.204.204 0 01-.151-.055.215.215 0 01-.05-.15v-.092c0-.067.016-.119.05-.155a.204.204 0 01.15-.055h.037c.067 0 .117.018.15.055.034.036.051.088.051.155v.091a.215.215 0 01-.05.151c-.034.037-.084.055-.15.055h-.038zm1.758-3.248a.99.99 0 01.79.366c.089.112.156.239.201.379.046.14.069.285.069.434 0 .13-.017.277-.05.438a2.707 2.707 0 01-.156.493 2.357 2.357 0 01-.264.485c-.11.152-.241.289-.393.41a1.71 1.71 0 01-.525.284.212.212 0 01-.206-.032c-.037-.03-.055-.076-.055-.137 0-.043.014-.08.041-.11a.233.233 0 01.11-.073 1.55 1.55 0 00.47-.283c.153-.13.284-.283.393-.457a1.57 1.57 0 00.224-.552l.11-.037c-.05.082-.113.16-.192.233a1.03 1.03 0 01-.279.174.85.85 0 01-.347.068.908.908 0 01-.845-.52 1.157 1.157 0 01-.119-.526c0-.186.044-.356.133-.511a1.05 1.05 0 01.37-.38.96.96 0 01.52-.146zm.005.343a.64.64 0 00-.57.338.835.835 0 00-.014.708.64.64 0 00.219.256.65.65 0 00.351.091.69.69 0 00.37-.096.64.64 0 00.238-.256.75.75 0 00.004-.694.658.658 0 00-.598-.347zm2.56-.343a.99.99 0 01.79.366c.088.112.156.239.201.379.046.14.069.285.069.434 0 .13-.017.277-.05.438a2.699 2.699 0 01-.156.493 2.357 2.357 0 01-.265.485c-.11.152-.24.289-.393.41a1.71 1.71 0 01-.525.284.212.212 0 01-.206-.032c-.036-.03-.054-.076-.054-.137 0-.043.014-.08.041-.11a.233.233 0 01.11-.073c.164-.06.32-.155.47-.283a2.02 2.02 0 00.393-.457c.112-.176.187-.36.224-.552l.11-.037a1.04 1.04 0 01-.193.233c-.079.07-.172.128-.278.174a.85.85 0 01-.347.068.908.908 0 01-.845-.52 1.159 1.159 0 01-.119-.526c0-.186.044-.356.132-.511.092-.159.215-.285.37-.38a.959.959 0 01.521-.146zm.005.343a.64.64 0 00-.571.338.836.836 0 00-.014.708.64.64 0 00.22.256.65.65 0 00.35.091.69.69 0 00.37-.096.64.64 0 00.238-.256.752.752 0 00.005-.694.657.657 0 00-.598-.347z" fill="#1D1D1B"/></g><defs><clipPath id="clip0_213_319"><path fill="#fff" d="M0 0h80v80H0z"/></clipPath></defs></svg>