<svg width="70" height="22" viewBox="0 0 70 22" fill="none" xmlns="http://www.w3.org/2000/svg"><path fill-rule="evenodd" clip-rule="evenodd" d="M29.548 9.492a2.736 2.736 0 011.766.557c.455.365.71.936.684 1.532a2.44 2.44 0 01-.394 1.401c-.28.399-.652.719-1.082.93a5.569 5.569 0 01-1.62.513c-.664.11-1.337.163-2.01.158-.002.18.029.358.09.526.065.16.171.297.306.398.17.122.36.208.562.253.29.067.587.098.885.092.4.003.799-.042 1.188-.135.27-.059.532-.14.787-.246l-.398 1.712a6.063 6.063 0 01-1.958.306 4.44 4.44 0 01-1.532-.24 2.723 2.723 0 01-1.047-.659 2.614 2.614 0 01-.591-.998A4.086 4.086 0 0125 14.326c0-.621.105-1.237.31-1.821.194-.573.498-1.099.895-1.546a4.327 4.327 0 013.343-1.467zm-.024 3.266c.202-.1.375-.253.502-.443a.926.926 0 00.142-.454.697.697 0 00-.257-.577 1.154 1.154 0 00-.726-.204c-.498.006-.98.184-1.37.506-.435.34-.736.883-.904 1.628a8.327 8.327 0 001.62-.127c.345-.058.68-.17.993-.33z" fill="#575756"/><path d="M35.766 9.346a2.007 2.007 0 011.056-.261 4.9 4.9 0 011.375.173c.337.094.657.236.948.421L40 8.21a6.304 6.304 0 00-.418-.216 3.962 3.962 0 00-.612-.237 6.958 6.958 0 00-.826-.186 6.263 6.263 0 00-1.055-.08c-1.2 0-2.125.274-2.777.82a2.74 2.74 0 00-.982 2.19c-.008.321.041.641.146.947.089.244.224.47.4.667.173.19.377.352.604.48.234.135.488.27.758.405.22.105.424.207.616.31.178.099.345.215.497.346.136.117.25.257.334.412.084.156.126.329.122.504.008.216-.046.43-.157.619a1.325 1.325 0 01-.41.41 1.74 1.74 0 01-.598.23c-.24.047-.485.07-.73.068a4.993 4.993 0 01-1.498-.245 4.852 4.852 0 01-.563-.242 7.704 7.704 0 01-.416-.218v.009l-.435 1.7c.205.11.421.201.645.273a6.748 6.748 0 002.062.315c1.31 0 2.323-.274 3.04-.821.715-.547 1.075-1.35 1.079-2.407a2.656 2.656 0 00-.169-.99 2.34 2.34 0 00-.467-.728 2.979 2.979 0 00-.703-.544 9.947 9.947 0 00-.899-.451 4.343 4.343 0 01-.891-.49.933.933 0 01-.366-.8c0-.435.145-.737.435-.913z" fill="#575756"/><path fill-rule="evenodd" clip-rule="evenodd" d="M43.191 9.99c.967 0 1.679.244 2.13.737a2.71 2.71 0 01.677 1.906 6.138 6.138 0 01-.295 1.86 4.607 4.607 0 01-.849 1.59 4.133 4.133 0 01-1.457 1.098 4.814 4.814 0 01-2.061.407c-.209 0-.372-.007-.488-.018a2.03 2.03 0 01-.298-.047l-.39 1.56-2.16.907 2.35-9.51c.228-.095.462-.172.702-.23.254-.063.507-.115.764-.155.228-.035.444-.055.654-.075l.085-.008c.237-.022.449-.022.636-.022zm.157 5.008c.244-.302.428-.646.545-1.015a3.95 3.95 0 00.195-1.215c0-.152-.016-.303-.048-.45-.03-.141-.09-.274-.175-.39a.845.845 0 00-.361-.27 1.568 1.568 0 00-.614-.104 4.04 4.04 0 00-.526.029c-.13.019-.258.045-.384.078l-1.053 4.25a.461.461 0 00.176.031h.205c.402.008.8-.078 1.163-.25.34-.166.64-.402.877-.694zM46.646 16.706c.432.521 1.092.782 1.98.782a3.895 3.895 0 001.912-.433c.534-.284 1-.684 1.366-1.17.372-.493.65-1.052.823-1.649A6.62 6.62 0 0053 12.361c0-.95-.236-1.665-.708-2.147a2.498 2.498 0 00-1.864-.722 3.958 3.958 0 00-1.904.439 4.267 4.267 0 00-1.382 1.17 5.3 5.3 0 00-.846 1.648A6.39 6.39 0 0046 14.632c-.002.864.212 1.554.646 2.074zm3.223-1.237c-.24.191-.536.293-.84.288h.005c-.434 0-.722-.149-.864-.44a2.78 2.78 0 01-.212-1.198c.004-.325.05-.649.138-.962.083-.33.21-.649.377-.944.161-.28.374-.526.628-.722.238-.19.532-.291.834-.29.45.002.741.149.884.44.159.378.23.787.211 1.198a3.886 3.886 0 01-.53 1.908 2.74 2.74 0 01-.63.722z" fill="#575756"/><path d="M59.024 9.386l-.05.208.052-.208h-.002z" fill="#575756"/><path d="M59 9.555l-.019.088-.376 1.704-.027.127a6.845 6.845 0 00-.816-.047c-.274 0-.548.02-.82.058a3.451 3.451 0 00-.777.187l-1.284 5.818H53l1.626-7.341a8.284 8.284 0 013.13-.659c.415-.003.83.019 1.244.065zM60.065 14.443a3.114 3.114 0 00-.082.606c0 .311.107.519.323.621.232.107.485.16.74.158.299-.001.596-.034.887-.099.303-.066.6-.157.887-.27v.02l-.43 1.732c-.222.073-.45.13-.68.173-.391.071-.788.106-1.185.106-.85 0-1.484-.18-1.899-.54-.415-.36-.624-.88-.626-1.559 0-.169.012-.337.034-.505a3.84 3.84 0 01.106-.56l.367-1.485.258-1.039.051-.206.392-1.585.355-1.424 2.246-1.097-.648 2.53H64l-.396 1.594h-2.828l-.71 2.829zM66.318 11.265c.127-.054.26-.088.398-.103.125-.015.25-.023.377-.024.422-.005.843.033 1.256.116.306.067.603.166.886.294L70 9.982a5.213 5.213 0 00-1.14-.342 7.778 7.778 0 00-1.577-.15c-1.16 0-2.031.235-2.612.705a2.318 2.318 0 00-.876 1.89c-.004.245.035.49.117.721.076.203.196.387.352.542.173.166.372.305.59.413.268.131.545.245.83.34.257.1.47.18.638.253.14.055.274.126.397.21a.655.655 0 01.202.22c.04.08.06.17.058.259a.638.638 0 01-.339.54c-.226.152-.636.227-1.232.224-.481.01-.96-.062-1.415-.214a9.409 9.409 0 01-.554-.213L63 17.1c.102.038.217.074.34.11.298.085.602.15.91.196.402.059.81.086 1.216.083a5.366 5.366 0 001.657-.221 3.354 3.354 0 001.13-.588 2.271 2.271 0 00.84-1.735 2.5 2.5 0 00-.107-.778 1.447 1.447 0 00-.352-.557 2.61 2.61 0 00-.605-.44 8.582 8.582 0 00-.87-.39 7.467 7.467 0 01-.675-.26 1.973 1.973 0 01-.388-.22.484.484 0 01-.175-.208.678.678 0 01-.044-.253.491.491 0 01.128-.346.91.91 0 01.313-.227z" fill="#575756"/><path d="M59.02 9.402l-.042.175.044-.175h-.002z" fill="#575756"/><path d="M59.021 9.402l-.044.175.046-.175h-.002zM21 10.99c0 5.799-4.701 10.5-10.5 10.5S0 16.789 0 10.99C0 5.19 4.701.49 10.5.49A10.498 10.498 0 0121 10.99z" fill="#575756"/><path d="M13 5.491a2 2 0 11-4-.003 2 2 0 014 .003z" fill="#fff"/><path fill-rule="evenodd" clip-rule="evenodd" d="M16.01 8.96c.488.165.928.524.98 1.047.06.428-.176.83-.398 1.178a12.91 12.91 0 01-1.857 2.226c-.818.813-1.68 1.57-2.56 2.315.566.44 1.138.873 1.72 1.293l-.058.056-1.151 1.099-.327.316c-.01.007-.345-.25-.48-.354l-.053-.04-.634-.487c-1.853-1.417-3.676-2.888-5.272-4.557-.633-.661-1.261-1.368-1.692-2.17a1.754 1.754 0 01-.218-.59c-.033-.249.019-.5.147-.719.254-.422.714-.598 1.185-.712.998-.24 2.042-.285 3.068-.33l.248-.01a46.365 46.365 0 012.606-.024c1.094.003 2.186.06 3.273.174a9.25 9.25 0 011.141.196c.114.02.225.052.333.094zm-5.484 5.4l.14-.117.01-.005c.71-.593 1.41-1.202 2.083-1.837a17.41 17.41 0 001.583-1.663 16.255 16.255 0 00-.92-.084c-1.143-.085-2.292-.097-3.437-.085a29.947 29.947 0 00-3.31.174c.533.638 1.111 1.24 1.73 1.803.355.335.719.663 1.09.985.193.169.388.335.584.5l.31.26.081.069c.018.031.038.031.056 0z" fill="#fff"/></svg>