<svg width="81" height="80" viewBox="0 0 81 80" fill="none" xmlns="http://www.w3.org/2000/svg"><g clip-path="url(#clip0_213_334)"><path d="M77.56 78.858H4.246c-1.214 0-2.2-.986-2.2-2.2V3.342c0-1.214.986-2.2 2.2-2.2h73.312c1.215 0 2.2.986 2.2 2.2v73.312c0 1.215-.985 2.2-2.2 2.2" fill="#048729"/><path d="M77.563 1.142H4.247a2.2 2.2 0 00-2.2 2.2v73.316a2.2 2.2 0 002.2 2.2h73.316a2.2 2.2 0 002.2-2.2V3.342a2.2 2.2 0 00-2.2-2.2z" stroke="#000" stroke-width="2.28" stroke-miterlimit="10"/><path d="M22.268 8.982L8.723 20.552l8.75.282L6.184 36.356h12.134L4.205 50.469H42.87L26.782 36.356l11.008-.282-13.264-15.24 7.901-1.412-10.159-10.44zM63.146 10.866l-13.253 9.146 7.837 1.066-11.59 12.906 10.908 1.127-13.995 11.377 34.761 3.592L64.661 35.9l9.922.769-10.508-14.935 7.235-.533-8.164-10.334z" fill="#1A6B2F"/><path d="M41.992 4.796L23.722 20.4l11.8.38-15.225 20.934h16.366l-19.03 19.03h52.143l-21.695-19.03 14.844-.381-17.889-20.553 10.657-1.903L41.992 4.796z" fill="#155624"/><path d="M6.042 72.22v-.542h1.39c.222 0 .371-.022.445-.067a.314.314 0 00.161-.287.343.343 0 00-.187-.324c-.072-.038-.185-.058-.342-.058h-.564c-.345 0-.593-.062-.745-.187a.81.81 0 01-.223-.297.994.994 0 01.107-.97c.122-.17.318-.27.587-.299a4.53 4.53 0 01.406-.013h1.51v.542H7.224c-.204.001-.339.01-.406.027-.137.034-.205.137-.205.31 0 .145.057.244.172.294.077.034.205.051.383.051h.489c.25 0 .436.022.56.065.215.073.363.2.443.384.066.147.098.304.098.472 0 .185-.042.35-.127.498a.728.728 0 01-.537.372c-.116.02-.29.03-.522.03h-1.53zm3.149-3.044h.647v1.708c.009.217.018.362.029.433.02.138.087.233.198.285.113.051.31.076.593.076h.623v.542h-.69c-.325.002-.561-.017-.709-.056-.336-.098-.548-.311-.638-.64-.034-.126-.052-.34-.053-.64v-1.708zm2.27 3.044l1.26-3.044h.747l1.26 3.044h-.76l-.294-.704h-1.158l-.294.704h-.76zm1.635-2.313l-.435 1.067h.867l-.432-1.067zm.738-1.523l-.573.562h-.401l.419-.562h.555zm3.827.792L16.33 72.22h-.65l-1.284-3.044h.73l.896 2.29.91-2.29h.729zm.968 0v3.044h-.647v-3.044h.647zm.022 1.503l1.166-1.503h.852L19.4 70.68l1.21 1.541h-.854l-1.104-1.54zm3.47-1.523c.305 0 .573.052.803.156.272.124.462.33.571.622.086.23.13.498.13.808 0 .309-.053.577-.159.805a1.09 1.09 0 01-.6.57c-.202.08-.435.121-.698.121-.342 0-.64-.064-.894-.192a1.08 1.08 0 01-.489-.502 1.886 1.886 0 01-.167-.831c0-.58.144-.993.433-1.24.244-.209.6-.314 1.07-.317zm.005.513c-.3 0-.513.097-.643.292-.1.152-.151.395-.151.731 0 .357.064.62.191.788.127.165.328.247.605.247.267 0 .465-.083.59-.25.129-.168.193-.427.193-.778 0-.318-.052-.561-.154-.729-.12-.2-.331-.3-.631-.301zm4.772-.493l-1.331 3.044h-.65l-1.284-3.044h.73l.896 2.29.91-2.29h.73zm.232 3.044v-.542h1.39c.223 0 .371-.022.445-.067a.314.314 0 00.161-.287.343.343 0 00-.187-.324c-.072-.038-.185-.058-.341-.058h-.565c-.345 0-.593-.062-.745-.187a.811.811 0 01-.223-.297.994.994 0 01.107-.97c.122-.17.318-.27.587-.299a4.53 4.53 0 01.406-.013h1.51v.542h-1.363c-.204.001-.339.01-.406.027-.137.034-.205.137-.205.31 0 .145.057.244.172.294.077.034.205.051.383.051h.489c.25 0 .436.022.56.065.215.073.363.2.443.384.066.147.098.304.098.472a.98.98 0 01-.127.498.728.728 0 01-.537.372c-.116.02-.29.03-.522.03h-1.53zm3.831-3.044v3.044h-.646v-3.044h.646zm.023 1.503l1.166-1.503h.852l-1.271 1.503 1.21 1.541h-.853l-1.104-1.54zm3.166.205l-1.126-1.708h.758l.699 1.189.736-1.189h.769l-1.189 1.735v1.31h-.646v-1.337zm1.055-2.5l-.573.562h-.401l.42-.562h.554zm2.215.792h.647v1.708c.008.217.018.362.029.433.02.138.087.233.198.285.113.051.31.076.593.076h.623v.542h-.69c-.325.002-.562-.017-.709-.056-.336-.098-.548-.311-.638-.64-.034-.126-.052-.34-.053-.64v-1.708zm4.755 0v.542h-.846c-.221 0-.383.016-.484.047a.534.534 0 00-.341.357c-.016.06-.03.165-.042.312h1.712v.542h-1.712c.022.263.099.446.23.548.13.103.353.154.666.154h.817v.542h-.846c-.229 0-.43-.014-.604-.042a1.034 1.034 0 01-.654-.36c-.23-.279-.345-.658-.345-1.137 0-.53.163-.943.488-1.237.112-.1.23-.17.357-.208.126-.04.296-.06.509-.06h1.095zm.504 3.044v-.542h1.389c.223 0 .372-.022.446-.067a.314.314 0 00.16-.287.343.343 0 00-.187-.324c-.071-.038-.185-.058-.341-.058h-.564c-.345 0-.593-.062-.745-.187a.812.812 0 01-.223-.297.994.994 0 01.107-.97c.122-.17.317-.27.586-.299a4.53 4.53 0 01.406-.013h1.51v.542h-1.362c-.204.001-.34.01-.406.027-.137.034-.206.137-.206.31 0 .145.058.244.172.294.078.034.205.051.384.051h.488c.25 0 .437.022.56.065.215.073.363.2.444.384.065.147.098.304.098.472a.98.98 0 01-.127.498.728.728 0 01-.538.372 3.45 3.45 0 01-.522.03h-1.53zm3.184 0v-3.044h.647v3.044h-.647zm.968-3.836l-.482.562h-.394l.352-.562h.524zm.95.792v3.044h-.647v-3.044h.647zm.022 1.503l1.167-1.503h.852L48.55 70.68l1.211 1.541h-.854l-1.104-1.54z" fill="#35ED61"/></g><defs><clipPath id="clip0_213_334"><path fill="#fff" transform="translate(.905)" d="M0 0h80v80H0z"/></clipPath></defs></svg>