<svg width="72" height="40" viewBox="0 0 72 40" fill="none" xmlns="http://www.w3.org/2000/svg"><path d="M5.315 19.638v20.08H1.923V15.87c.059-.009.121-.027.185-.027 1.585 0 3.17.005 4.754-.002.19 0 .259.069.322.237 1.351 3.605 2.71 7.208 4.066 10.811 1.025 2.725 2.047 5.45 3.073 8.175.028.076.074.145.154.298.09-.208.156-.337.204-.473.964-2.778 1.924-5.558 2.888-8.337 1.206-3.475 2.417-6.949 3.616-10.427.077-.222.178-.29.41-.29 1.526.01 3.053.006 4.58.006h.279v23.884h-3.355V19.537l-.09-.02c-.071.176-.15.35-.21.529-.922 2.691-1.84 5.384-2.76 8.076-1.298 3.789-2.599 7.576-3.89 11.366-.07.201-.164.26-.37.257-.97-.01-1.94-.015-2.91.002-.25.005-.346-.087-.423-.307-.724-2.071-1.459-4.139-2.19-6.207l-4.53-12.785c-.099-.281-.201-.562-.302-.843-.036.01-.072.02-.108.032v.001zM69.524 15.842v2.998h-.352c-2.007 0-4.015-.021-6.022.01-.86.013-1.725.088-2.574.223-1.457.231-2.49 1.081-3.23 2.342-.702 1.197-1.02 2.489-1.091 3.858-.016.305-.044.61-.07.962H69.52v2.976H56.141c.042.534.063 1.028.122 1.518.157 1.298.537 2.524 1.22 3.65.8 1.323 1.998 2.03 3.5 2.24.568.081 1.146.121 1.72.125 2.151.015 4.303.007 6.455.007h.36v2.991h-.304c-2.545 0-5.09.023-7.636-.01-1.54-.02-3.062-.221-4.468-.928-1.346-.675-2.308-1.741-3.071-3.01-1.006-1.668-1.474-3.497-1.646-5.42-.179-1.997-.12-3.983.232-5.958.36-2.02 1.093-3.88 2.4-5.488 1.272-1.565 2.91-2.508 4.896-2.793a28.416 28.416 0 013.407-.28c1.987-.045 3.976-.013 5.964-.013h.232zM37.816 15.852h3.517v.37c0 4.645-.015 9.29.014 13.935.006 1.05.116 2.105.269 3.145.266 1.818 1.436 2.818 3.167 3.195.68.148 1.384.226 2.08.242 1.593.035 3.188.012 4.782.012h.332v2.992h-.265c-1.96 0-3.918.02-5.878-.01-1.092-.016-2.185-.123-3.23-.483-2.41-.83-3.867-2.519-4.445-4.982-.252-1.078-.335-2.18-.337-3.282-.01-4.943-.005-9.886-.006-14.829v-.305zM30.45 39.723V22.348h3.148v17.375H30.45zM9.828 8.733c-.007.891-.101 1.915-.49 2.897-.522 1.322-1.502 2.113-2.842 2.495a6.154 6.154 0 01-2.819.116c-1.66-.304-2.77-1.246-3.256-2.87-.55-1.838-.58-3.68.025-5.515.58-1.755 1.836-2.7 3.627-2.97a6.206 6.206 0 012.76.189c1.28.39 2.09 1.252 2.544 2.484.36.978.445 1.996.45 3.174zm-8.219-.15c.103.727.156 1.466.319 2.18.24 1.048.837 1.836 1.94 2.08.48.106.99.122 1.485.108 1.363-.04 2.342-.898 2.61-2.227.266-1.322.257-2.645.04-3.97-.167-1.026-.594-1.876-1.613-2.311-.6-.256-1.232-.284-1.866-.232-1.178.095-2.04.641-2.468 1.79-.31.833-.363 1.698-.447 2.581zM47.093 2.961c0 .452-.005.835.002 1.217.003.155-.067.2-.209.196-.268-.006-.537-.001-.806-.001-1.23 0-2.46-.008-3.688.005-.494.006-.971.086-1.334.49-.533.594-.53 1.873.03 2.38.33.298.746.389 1.172.408.757.034 1.516.026 2.272.069.41.023.822.082 1.22.181.584.147 1.017.522 1.31 1.046.567 1.015.665 2.091.343 3.196-.331 1.136-1.22 1.853-2.4 1.958-.524.046-1.053.059-1.58.063-1.239.008-2.478.002-3.717.002h-.337c0-.421.003-.812 0-1.203-.002-.223.161-.173.285-.173 1.335-.002 2.67.003 4.005-.004a8.318 8.318 0 001.003-.06c.673-.086 1.091-.495 1.181-1.147a3.74 3.74 0 00-.057-1.33c-.154-.66-.648-.958-1.444-.98-.873-.025-1.75.003-2.618-.076a4.406 4.406 0 01-1.478-.404c-.75-.358-1.084-1.064-1.202-1.852-.129-.855-.008-1.683.43-2.446.494-.861 1.255-1.378 2.227-1.425 1.781-.085 3.566-.077 5.39-.11zM18.93 14.171c.065-.185.114-.326.166-.466C20.39 10.252 21.69 6.8 22.974 3.344c.098-.263.21-.378.506-.36.478.03.96.022 1.44.002.225-.01.317.081.387.278.676 1.905 1.359 3.807 2.042 5.709.603 1.676 1.208 3.351 1.813 5.027l.06.17c-.535 0-1.04.008-1.543-.01-.063-.002-.147-.127-.178-.211-.297-.82-.59-1.64-.871-2.465-.062-.18-.138-.255-.342-.253-1.46.01-2.92.009-4.379.001-.192 0-.282.05-.35.242-.277.796-.584 1.582-.865 2.376-.083.234-.185.351-.463.33-.416-.033-.837-.008-1.301-.008zm3.203-4.33h3.892l-1.864-5.516-.08.006-1.948 5.51zM68.608 14.171c-.522 0-1.002.01-1.48-.01-.085-.003-.203-.122-.237-.214a88.556 88.556 0 01-.878-2.462c-.068-.204-.17-.254-.371-.253-1.45.008-2.9.008-4.349 0-.193 0-.285.053-.352.24-.295.83-.613 1.651-.91 2.48-.057.157-.123.23-.303.225-.459-.014-.918-.005-1.422-.005.22-.588.424-1.141.63-1.693l3.067-8.171c.142-.376.288-.75.424-1.129.047-.132.109-.193.263-.19.557.01 1.114.01 1.67 0 .178-.004.246.064.303.225.66 1.848 1.327 3.694 1.993 5.54l1.882 5.213c.019.053.036.106.069.204h.001zm-3.197-4.326c-.629-1.861-1.241-3.675-1.855-5.488l-.098.007-1.938 5.48h3.891zM12.938 14.16H11.38V3.006c.07-.005.134-.014.198-.014 1.584 0 3.168-.012 4.752.008.989.012 1.868.305 2.473 1.159.443.624.615 1.33.642 2.081.036 1.04-.137 2.02-.807 2.864-.475.598-1.124.872-1.85.908-1.159.058-2.32.053-3.48.074-.113.002-.226 0-.37 0v4.072zm.01-5.475c1.136 0 2.24.03 3.34-.012.56-.02 1.038-.287 1.253-.857.28-.737.343-1.495.121-2.257-.186-.641-.582-1.069-1.284-1.141-.171-.018-.343-.042-.515-.043-.874-.005-1.748-.005-2.622-.004-.092 0-.185.01-.292.018v4.297zM28.109 2.992c.573 0 1.1-.008 1.628.01.08.001.196.102.226.184.628 1.698 1.244 3.4 1.864 5.1l1.489 4.075c.015.043.036.085.08.19.062-.11.11-.173.136-.242 1.119-3.028 2.238-6.055 3.35-9.085.062-.165.13-.243.323-.237.467.016.935.005 1.445.005-.216.565-.416 1.09-.618 1.615-1.16 3.001-2.322 6.001-3.481 9.003-.217.56-.212.562-.812.562-.346 0-.692-.012-1.037.005-.196.01-.284-.056-.355-.24-.805-2.092-1.62-4.178-2.432-6.267L28.23 3.332c-.037-.096-.07-.194-.121-.34h-.001zM57.67 14.17c-.681 0-1.296.008-1.909-.006-.097-.002-.215-.079-.284-.155a240.69 240.69 0 01-1.905-2.148c-.618-.704-1.232-1.411-1.849-2.118l-1.106-1.266c.295-.338.567-.656.846-.97 1.082-1.214 2.166-2.427 3.25-3.64.19-.215.39-.422.57-.646.147-.182.32-.24.549-.234.477.015.955.005 1.494.005-.091.122-.143.207-.21.278-.4.426-.803.85-1.208 1.273-1.001 1.045-2.006 2.087-3.008 3.133-.152.158-.278.347-.446.485-.226.184-.154.32.009.488.307.316.604.642.907.962.792.833 1.588 1.664 2.378 2.5.629.667 1.251 1.34 1.922 2.06zM50.496 14.161H48.96V3.011h1.536v11.15zM36.128 15.643l-1.333 1.94c-.525.763-1.055 1.522-1.573 2.29-.107.16-.22.236-.42.232-.68-.011-1.36-.004-2.09-.004.195-.37.368-.706.548-1.039a468.361 468.361 0 011.761-3.223c.046-.084.157-.187.24-.188.93-.013 1.861-.008 2.868-.008h-.001zM72 2.732a2.325 2.325 0 01-2.307 2.302c-1.281 0-2.377-1.077-2.364-2.325.014-1.263 1.095-2.31 2.382-2.306 1.233.005 2.29 1.081 2.288 2.329H72zm-4.235-.014a1.913 1.913 0 001.894 1.942c1.034.01 1.901-.84 1.929-1.89.026-1.03-.803-1.95-1.773-1.969-1.201-.023-2.03.753-2.05 1.917zM65.813.002c-.644.667-1.232 1.28-1.826 1.887a.323.323 0 01-.2.085c-.272.01-.545.004-.891.004.47-.662.893-1.266 1.328-1.862.047-.064.16-.107.245-.11.42-.01.84-.004 1.344-.004z" fill="#000"/><path d="M69.143 2.953v1.004h-.584V1.45c.533 0 1.06-.021 1.582.007.329.018.622.161.72.52.104.385-.085.66-.42.906.416.259.429.66.451 1.075h-.564c-.13-.298-.19-.64-.392-.837-.149-.148-.48-.111-.793-.168zm.014-1.085c-.044.828-.119.697.66.693.038 0 .076-.021.113-.021.227-.001.283-.134.29-.336.007-.223-.108-.322-.304-.332-.247-.013-.494-.004-.76-.004h.001z" fill="#000"/></svg>