<svg width="81" height="80" viewBox="0 0 81 80" fill="none" xmlns="http://www.w3.org/2000/svg"><g clip-path="url(#clip0_213_344)"><path d="M76.604 78.858H5.206a3.159 3.159 0 01-3.16-3.159V4.297a3.155 3.155 0 013.16-3.155h71.402a3.158 3.158 0 013.159 3.155V75.7a3.159 3.159 0 01-3.16 3.16" fill="#01443F"/><path d="M5.206 1.142h71.402A3.161 3.161 0 0179.767 4.3v71.402a3.157 3.157 0 01-3.155 3.155H5.206a3.161 3.161 0 01-3.16-3.159V4.301a3.161 3.161 0 013.16-3.16z" stroke="#000" stroke-width="2.28" stroke-miterlimit="10"/><path d="M40.404 67.113c.069-.107.11-.168.149-.233.575-1.027 1.146-2.059 1.732-3.082 1.652-2.878 3.311-5.752 4.963-8.629 1.111-1.933 2.207-3.874 3.315-5.808.932-1.629 1.876-3.25 2.813-4.872.917-1.59 1.842-3.178 2.748-4.772.856-1.508 1.777-2.98 2.375-4.633.673-1.865 1.084-3.771 1.176-5.747a19.55 19.55 0 00-.491-5.381 18.93 18.93 0 00-2.82-6.437c-1.489-2.173-3.33-3.98-5.565-5.4a19.327 19.327 0 00-8.392-2.958c-1.96-.213-3.902-.095-5.835.286-2.996.593-5.679 1.872-8.08 3.734a18.379 18.379 0 00-4.32 4.753c-.815 1.294-1.5 2.645-2.002 4.092a19.103 19.103 0 00-1.001 7.92c.178 2.132.666 4.198 1.56 6.132.628 1.359 1.412 2.649 2.15 3.958a885.101 885.101 0 003.643 6.368c1.762 3.056 3.532 6.1 5.294 9.157.837 1.454 1.66 2.92 2.497 4.377 1.134 1.975 2.272 3.95 3.406 5.926.229.396.442.803.685 1.252" fill="#E5007E"/><path d="M40.4 67.113c-.243-.45-.456-.857-.684-1.253-1.135-1.975-2.273-3.95-3.407-5.926-.833-1.457-1.655-2.923-2.497-4.377-1.762-3.056-3.532-6.1-5.294-9.157-1.222-2.12-2.44-4.24-3.642-6.368-.739-1.305-1.527-2.595-2.15-3.954-.895-1.938-1.382-4-1.561-6.132a19.117 19.117 0 011-7.92c.5-1.447 1.188-2.798 2.003-4.092a18.38 18.38 0 014.32-4.754c2.401-1.864 5.085-3.14 8.08-3.733 1.934-.385 3.875-.499 5.835-.286a19.327 19.327 0 018.392 2.958 19.15 19.15 0 015.565 5.4 18.888 18.888 0 012.82 6.437c.415 1.773.575 3.57.49 5.381-.09 1.976-.502 3.882-1.175 5.747-.598 1.648-1.519 3.121-2.375 4.632-.91 1.595-1.83 3.182-2.748 4.773-.937 1.626-1.88 3.247-2.813 4.872-1.107 1.934-2.204 3.875-3.315 5.808-1.652 2.878-3.315 5.751-4.963 8.629-.586 1.02-1.153 2.055-1.732 3.082a4.8 4.8 0 01-.148.233zm0-22.936c8.812.012 15.727-7.14 15.819-15.654.095-9.005-7.293-15.944-15.73-15.982-8.835-.038-15.834 7.121-15.906 15.689a15.811 15.811 0 0015.822 15.947" fill="#fff"/><path d="M33.329 27.548c.795 0 1.15.073 1.435.274.384.274.59.693.59 1.222 0 .598-.267 1.081-.765 1.386-.324.198-.803.289-1.458.289-.826 0-1.34-.141-1.74-.472-.551-.45-.84-1.188-.84-2.15 0-1.017.33-1.812.951-2.284.354-.274.81-.385 1.606-.385h2.018v.788h-1.797c-.773 0-1.127.103-1.385.385-.206.228-.293.495-.324.944h1.709v.003zm-1.724.788c0 1.173.434 1.622 1.553 1.622.772 0 1.15-.274 1.15-.841a.747.747 0 00-.286-.613c-.149-.118-.362-.164-.75-.164H31.6l.004-.004zM40.393 26.102c.362.419.567 1.12.567 1.93 0 .86-.22 1.576-.62 2.025-.419.456-.986.67-1.812.67-1.804 0-2.637-.834-2.637-2.653 0-.891.236-1.63.654-2.048.404-.411 1.07-.628 1.88-.628.891 0 1.576.244 1.968.708m-3.227.715c-.141.274-.229.743-.229 1.18 0 .575.118 1.135.309 1.431.228.354.612.53 1.187.53.605 0 .978-.19 1.214-.606.164-.285.267-.818.267-1.347 0-.575-.119-1.077-.332-1.37-.22-.308-.654-.48-1.187-.48-.59 0-1.016.229-1.23.663zM43.526 28.565c-.796 0-1.15-.073-1.435-.274-.385-.274-.59-.7-.59-1.23 0-.59.266-1.07.765-1.378.316-.198.803-.289 1.457-.289.826 0 1.34.141 1.74.472.56.45.84 1.188.84 2.158 0 .914-.288 1.717-.787 2.15-.441.377-.89.514-1.774.514h-2.017v-.787h1.797c.772 0 1.126-.103 1.385-.385.206-.228.293-.495.324-.944h-1.71l.005-.007zm1.724-.788c0-1.165-.434-1.622-1.542-1.622-.396 0-.67.061-.841.19-.19.134-.316.385-.316.663a.75.75 0 00.282.605c.148.118.361.164.75.164h1.67-.003zM52.68 26.848c.817 0 1.08.065 1.339.308.259.252.361.575.361 1.127v2.402h-.89v-2.33c0-.605-.19-.803-.765-.803h-.583v3.136h-.89v-3.136h-1.29v3.136h-.891v-3.836h3.608v-.004zM29.824 25.394h-.975v5.317h.975v-5.317z" fill="#fff"/><path d="M29.123 25.394h-1.59v.975h1.59v-.975z" fill="#fff"/><path d="M59.793 66.23c0 .506-.13.867-.385 1.096-.243.21-.582.32-.99.32-.46 0-.821-.149-1.035-.412-.175-.216-.285-.616-.281-1.023 0-.412.122-.8.316-1.02.236-.275.597-.412 1.062-.412.898.004 1.32.469 1.317 1.447m-2.223-.023c-.004.754.259 1.08.875 1.085.38 0 .643-.137.769-.404.06-.133.103-.388.103-.65 0-.324-.054-.617-.145-.77-.137-.216-.373-.33-.708-.334-.616-.004-.894.323-.898 1.07M60.592 67.619h-.445l.015-2.782 1.23.007c.384 0 .566.057.741.217.168.156.248.38.248.666 0 .305-.107.563-.297.716-.152.13-.377.175-.784.175h-.7l-.008 1.005v-.004zm.738-1.359c.221 0 .35-.034.438-.118.084-.084.14-.255.14-.43a.552.552 0 00-.14-.396c-.08-.084-.21-.118-.45-.118h-.71l-.008 1.058h.73v.004zM63.313 64.856h.583l1.088 2.79h-.472l-.278-.731-1.316-.008-.301.723h-.472l1.168-2.774zm-.259 1.697l1.043.008-.498-1.37-.54 1.362h-.005zM66.328 67.653l-.53-.004-1.175-2.786.513.004.933 2.367.978-2.356.48.004-1.2 2.771zM67.645 67.307l1.199.007c.205 0 .312-.019.4-.064.121-.069.186-.19.186-.362 0-.206-.084-.35-.24-.403-.08-.027-.183-.035-.426-.035h-.229c-.335 0-.544-.045-.689-.137-.19-.121-.293-.33-.293-.593 0-.305.145-.564.385-.708.16-.092.354-.126.7-.126l1.142.008v.354l-1.146-.008c-.247 0-.354.019-.449.076a.41.41 0 00-.16.339c0 .278.168.388.605.392h.168c.472.004.666.042.818.156.18.137.286.388.282.674 0 .316-.141.563-.388.685-.164.084-.324.106-.727.103l-1.146-.008v-.354l.008.004zM70.659 67.68h-.445l.015-2.783h.445l-.019 2.783h.004zm1.359-2.771h.54l-1.416 1.336 1.485 1.446h-.598l-1.362-1.427 1.35-1.355zM73.894 64.92h.582l1.09 2.79h-.473l-.278-.73-1.317-.008-.3.723h-.472l1.168-2.775zm-.259 1.698l1.043.007-.498-1.37-.54 1.363h-.005zm.75-2.428h.445l-.528.498h-.309l.392-.499zM60.84 73.244l1.85-4.894 1.415.011-.034 6.01-.929-.004.03-5.112-1.906 5.1-.956-.007-1.907-5.123-.03 5.112-.929-.008.038-6.01 1.413.008 1.944 4.917zM66.008 69.994l-.027 4.388h-.875l.027-4.396h.875v.008zm-.145-1.679h.838l-.845 1.135h-.659l.666-1.135zM68.09 68.384l-.023 3.498c-.004.75.076 1.107.27 1.343.251.282.666.411 1.294.415l1.29.008v.765l-1.484-.008c-.91-.004-1.423-.171-1.834-.605-.377-.388-.506-.868-.503-1.804l.023-3.616.963.008.004-.004zM75.664 69.195l-1.75-.012c-.876-.004-1.264.171-1.573.704-.182.305-.247.567-.277 1.127l3.589.023v.765l-3.601-.023c.008.46.095.83.282 1.172.293.514.7.708 1.5.712l1.803.011v.765l-1.979-.011c-1.035-.008-1.602-.228-2.051-.788-.43-.552-.613-1.195-.61-2.112.008-1.2.34-2.044 1.017-2.608.434-.357 1.02-.506 1.96-.502l1.694.011v.766h-.004zM76.227 64.79a.613.613 0 01-.62.61.614.614 0 11.015-1.23c.335 0 .61.282.605.62zm-1.111-.007a.5.5 0 00.49.503c.271 0 .496-.221.496-.495a.5.5 0 00-.484-.502.495.495 0 00-.502.494zm.358.339h-.172l.004-.681h.312c.11 0 .18.015.225.038a.18.18 0 01.091.156c0 .095-.045.167-.13.194.077.023.119.088.123.187.007.068.007.072.019.106h-.19s-.004-.015-.008-.019c0-.008 0-.023-.004-.034v-.046c-.02-.118-.065-.156-.202-.156h-.064v.255h-.004zm.163-.384c.076 0 .11-.023.11-.084 0-.057-.03-.08-.106-.08h-.16v.164h.16-.004z" fill="#88C48C"/></g><defs><clipPath id="clip0_213_344"><path fill="#fff" transform="translate(.905)" d="M0 0h80v80H0z"/></clipPath></defs></svg>