<svg width="170" height="20" viewBox="0 0 170 20" fill="none" xmlns="http://www.w3.org/2000/svg"><g clip-path="url(#clip0_109_140)" fill="#fff" fill-opacity=".8"><path d="M103.224.392c0 .333.007.636.004.94-.007.579-.017 1.159-.027 1.739l-.049 2.8-.048 2.719-.049 2.784c-.013.761-.03 1.525-.043 2.287 0 .108 0 .214.026.332.026-.042.059-.085.082-.131.274-.54.545-1.084.816-1.628.58-1.16 1.164-2.316 1.745-3.473.48-.955.959-1.91 1.439-2.87l1.419-2.823 1.194-2.383c.056-.108.095-.25.183-.306.088-.056.232-.033.353-.033 1.148-.01 2.293-.017 3.442-.023.173 0 .176.003.166.178-.046.711-.085 1.423-.13 2.135-.046.735-.095 1.466-.141 2.2-.045.739-.084 1.48-.13 2.218l-.137 2.185c-.036.55-.065 1.104-.101 1.654l-.111 1.753-.098 1.62c-.046.769-.095 1.533-.144 2.3l-.098 1.622-.068 1.14c-.062.006-.118.02-.176.02l-3.097.01h-.401c.065-.877.153-1.737.225-2.597.075-.87.16-1.736.235-2.606.078-.863.15-1.727.228-2.59a2302.332 2302.332 0 00.464-5.186l-.039-.013c-.03.05-.062.095-.088.148-.395.771-.793 1.539-1.188 2.31-.565 1.097-1.129 2.197-1.693 3.295-.382.74-.761 1.482-1.139 2.224-.627 1.222-1.256 2.441-1.883 3.664-.199.388-.401.774-.594 1.166-.049.102-.111.132-.215.132-.878 0-1.755.01-2.636.013-.186 0-.372 0-.584.003l-.069-2.567c-.023-.856-.039-1.713-.059-2.57-.02-.856-.045-1.713-.065-2.566-.02-.857-.032-1.714-.059-2.57-.026-.854-.032-1.707-.075-2.55-.026-.007-.032-.01-.036-.007-.006 0-.013.003-.013.01-1.85 4.306-3.7 8.616-5.553 12.936-.127.01-.258.023-.388.023-.63.003-1.263 0-1.896.006-.424 0-.845.017-1.269.023h-.199c.023-.062.04-.108.059-.151L96.29 6.51 98.846.837c.045-.102.094-.201.13-.303.03-.08.075-.119.16-.112h.13c1.253-.007 2.503-.013 3.756-.023h.196l.006-.007zM9.925 6.84c-.023.046-.049.092-.071.142-.539 1.196-1.074 2.395-1.612 3.595-1.064 2.365-2.124 4.728-3.188 7.094-.32.715-.646 1.426-.96 2.145-.055.125-.12.174-.254.174-1.08 0-2.163.007-3.243.01H.228c-.006-.043-.016-.08-.016-.115L.166 16.04C.15 14.748.137 13.453.124 12.162c-.007-.818-.01-1.635-.016-2.455C.095 8.534.072 7.364.058 6.19.049 5.384.053 4.577.043 3.77L0 1.236v-.221c.3-.023.587-.01.874-.017.29-.003.581-.003.875-.006l.855-.007L3.49.98c.007.079.013.141.013.207l-.02 1.94c-.006.548-.01 1.095-.012 1.642 0 .586 0 1.173-.004 1.756-.003.8-.01 1.601-.016 2.402l-.02 2.57c-.006.807-.013 1.614-.016 2.418v.327c.075-.04.088-.11.111-.162.166-.372.33-.748.493-1.12L8.565 2.554c.222-.505.437-1.012.659-1.52.013-.029.03-.059.046-.095 1.197-.007 2.398-.013 3.618-.023.02.56.013 1.114.016 1.664.007.553.007 1.104.01 1.657 0 .547.007 1.094.01 1.641 0 .554.006 1.104.01 1.657 0 .554.006 1.104.01 1.658 0 .553.006 1.104.01 1.657 0 .547.006 1.094.009 1.641l.01 1.667c.078-.043.091-.112.114-.168.28-.642.561-1.285.842-1.924.91-2.076 1.817-4.155 2.727-6.23.67-1.526 1.335-3.052 2.004-4.58.039-.086.081-.172.107-.26.027-.093.082-.116.17-.116h.79c.877-.007 1.755-.01 2.636-.017h.219a6.457 6.457 0 01-.079.191c-.447.95-.894 1.895-1.34 2.844l-1.498 3.19c-.369.784-.74 1.564-1.11 2.349-.437.929-.87 1.858-1.308 2.787-.362.774-.728 1.545-1.093 2.32-.437.929-.874 1.855-1.308 2.784-.385.817-.774 1.637-1.152 2.455-.05.102-.111.135-.216.135-.362 0-.724 0-1.086.006-.796.007-1.592.01-2.388.017-.036 0-.075-.004-.13-.01-.004-.08-.01-.155-.01-.23.006-.94.01-1.879.019-2.818.01-1.028.026-2.056.036-3.08.006-.801-.003-1.602 0-2.406 0-.834.01-1.667.016-2.504.003-.442.01-.883.016-1.325 0-.18.013-.365.02-.547 0-.062-.007-.125-.007-.187-.013 0-.026-.004-.039-.007v.013zM88.94 19.483c-.402 0-.773.006-1.145.006-.79 0-1.583.007-2.373.01-.071 0-.143.007-.215.01-.134.007-.137.007-.183-.115-.088-.237-.17-.478-.257-.715l-.568-1.572-.098-.264c-.326-.912-.65-1.828-.979-2.74-.42-1.167-.848-2.334-1.269-3.5-.199-.55-.388-1.104-.587-1.65-.258-.712-.52-1.418-.78-2.13-.052-.144-.101-.293-.153-.434-.013-.033-.036-.06-.079-.125-.03.145-.049.247-.068.352-.186.969-.376 1.94-.562 2.91-.264 1.37-.531 2.74-.796 4.112-.332 1.713-.662 3.423-.995 5.136l-.127.633c-.03.145-.033.148-.183.151l-3.03.01h-.431c.01-.066.013-.122.022-.18.176-.87.36-1.74.535-2.614.183-.903.366-1.805.545-2.708l.607-3.018a1428895.562 1428895.562 0 00.897-4.432c.183-.903.366-1.805.545-2.712l.578-2.873c.032-.155.055-.313.085-.477.068-.004.12-.01.176-.01 1.22-.007 2.437-.017 3.657-.023.173 0 .173 0 .226.154.456 1.302.916 2.603 1.373 3.905.503 1.427 1.002 2.853 1.501 4.28.574 1.64 1.152 3.278 1.726 4.92.02.055.043.108.098.16.016-.049.036-.095.046-.144.176-.916.352-1.832.525-2.748.225-1.183.444-2.366.672-3.549.196-1.018.392-2.04.59-3.057l.66-3.381c.03-.152.049-.306.078-.458.023-.122.026-.122.15-.125h.065l3.146-.02h.186c0 .063.006.109 0 .148L88.94 19.483zM157.507 5.802a3.058 3.058 0 00-.046.201c-.166.88-.329 1.756-.499 2.636l-1.008 5.203c-.268 1.37-.532 2.741-.8 4.112-.062.326-.127.649-.192.975-.033.168-.033.168-.202.168l-2.865.01c-.186 0-.372 0-.571.003.003-.046 0-.089.01-.128.104-.514.215-1.025.319-1.539.193-.952.382-1.904.575-2.857l.323-1.59c.205-1.02.407-2.034.613-3.052l.284-1.397c.202-1.012.408-2.023.61-3.035.202-1.001.405-2 .604-3.001.15-.748.293-1.496.44-2.24.01-.054.026-.106.043-.172.065-.003.124-.01.182-.01 1.201-.007 2.405-.013 3.606-.023h.081c.088 0 .14.033.167.122.075.23.156.458.238.688l1.556 4.419c.659 1.875 1.315 3.75 1.971 5.621.284.807.564 1.614.848 2.422.016.05.039.095.062.145h.036c.013-.05.033-.1.042-.152.323-1.674.643-3.35.963-5.025l.803-4.177c.202-1.065.401-2.126.6-3.19.049-.26.101-.52.153-.78.026-.13.03-.133.16-.133l.989-.006c.724-.004 1.448-.01 2.173-.013.072 0 .14.006.228.01-.006.059-.006.108-.013.154-.196.979-.388 1.96-.584 2.94-.199.994-.398 1.99-.6 2.985-.235 1.163-.47 2.326-.702 3.489-.274 1.364-.551 2.725-.825 4.089-.287 1.423-.574 2.847-.862 4.267-.071.352-.146.701-.225 1.067-.088.007-.166.02-.248.02-1.099.007-2.196.01-3.295.013h-.065c-.304.01-.248.063-.363-.25-.316-.877-.623-1.756-.939-2.633-.238-.659-.483-1.315-.721-1.974s-.467-1.32-.702-1.98c-.228-.639-.466-1.272-.698-1.91-.235-.65-.46-1.302-.692-1.951-.186-.524-.375-1.048-.564-1.572l-.353-.962c-.013 0-.026-.003-.039-.007h-.006zM148.446.135l3.534-.02c-.004.056-.004.106-.013.152l-.666 3.295c-.209 1.038-.421 2.076-.63 3.117l-.939 4.659c-.287 1.417-.571 2.833-.858 4.254-.229 1.136-.464 2.27-.692 3.406-.03.145-.03.145-.183.145-1.119 0-2.238.007-3.361.01-.078 0-.153 0-.231.01-.092.013-.14-.02-.173-.109a67.718 67.718 0 00-.382-1.093c-.186-.514-.375-1.025-.561-1.54-.131-.358-.255-.717-.385-1.073-.173-.485-.346-.966-.522-1.447-.163-.451-.32-.903-.486-1.354l-1.139-3.124c-.199-.55-.398-1.1-.594-1.65l-.626-1.763c-.01-.03-.026-.056-.043-.092-.052.089-.479 2.247-.678 3.324-.206 1.107-.428 2.211-.64 3.318l-.646 3.331c-.215 1.104-.427 2.208-.643 3.308l-3.608.02c.01-.079.016-.145.026-.207.156-.775.316-1.546.47-2.32l.675-3.377c.196-.976.395-1.948.591-2.92.176-.876.352-1.752.531-2.629l.539-2.646c.127-.632.251-1.268.375-1.9.075-.37.153-.736.228-1.105.121-.6.235-1.202.353-1.802.006-.033.019-.063.032-.109.059-.003.118-.01.177-.01 1.197-.006 2.395-.013 3.589-.023h.065c.144.004.153.01.202.145.199.567.402 1.134.601 1.7.652 1.852 1.301 3.707 1.954 5.559.62 1.763 1.24 3.529 1.863 5.292.075.214.15.425.228.639.01.03.03.056.072.085.862-4.48 1.723-8.962 2.584-13.46l.01.004zM75.024.56c-.219 1.186-.447 2.333-.669 3.5h-.183c-.313 0-.626 0-.94.006l-7.921.07h-.287c-.284 1.416-.565 2.826-.845 4.25.045.01.081.023.114.023h.395c2.62-.017 5.236-.03 7.856-.047h.222l-.698 3.292-8.535.05c-.29 1.469-.581 2.925-.875 4.398.052.003.095.013.137.01l8.203-.05c.352 0 .701.01 1.054.02.02 0 .042.007.075.014-.023.128-.043.25-.069.375-.199.985-.401 1.967-.597 2.956-.032.168-.059.158-.192.158-2.673.013-5.348.03-8.02.043-1.482.006-2.966.016-4.447.023-.219 0-.438 0-.666.003 0-.043 0-.07.003-.092.13-.65.264-1.298.392-1.948.231-1.17.46-2.339.688-3.509.124-.639.242-1.278.369-1.917.176-.89.356-1.776.532-2.662.258-1.312.512-2.623.77-3.935.235-1.192.47-2.382.701-3.574.082-.412.154-.824.232-1.236.03-.145.032-.145.183-.148h.264C66.427.61 70.583.583 74.737.56h.287zM132.031 19.206c-.17.04-3.905.05-4.059.01-.225-1.579-.447-3.16-.675-4.755-.069-.003-.121-.01-.176-.006-2.036.013-4.072.023-6.112.036-.12 0-.241 0-.362-.007-.081-.006-.127.023-.166.1-.411.793-.829 1.584-1.243 2.375-.388.741-.78 1.486-1.162 2.23-.052.103-.117.132-.218.132h-1.022c-1.027.003-2.052.01-3.08.013-.016 0-.029-.006-.058-.013.009-.026.019-.053.029-.076.695-1.248 1.393-2.494 2.085-3.743.897-1.607 1.791-3.219 2.685-4.83 1.374-2.468 2.744-4.936 4.118-7.404.535-.965 1.07-1.927 1.602-2.896.045-.082.098-.105.183-.105h.675l3.162-.02h.13c.114.003.131.017.15.132.049.27.091.544.144.817.182.982.368 1.964.551 2.946.199 1.067.398 2.138.6 3.206.268 1.42.532 2.843.8 4.263.209 1.124.417 2.247.63 3.37.257 1.368.515 2.736.77 4.103.006.043.009.086.013.125l.006-.003zm-5.217-7.891c-.016-.317-1.064-6.775-1.119-6.897a.676.676 0 00-.065.093l-.813 1.591-1.272 2.488c-.447.873-.894 1.746-1.338 2.623-.02.036-.026.079-.042.131 1.559-.01 3.099-.02 4.649-.026v-.003zM53.242 4.188c-.365-.007-.731 0-1.093 0s-.724.003-1.087.006l-1.102.007c-.363 0-.725.003-1.087.007-.362.003-.734.003-1.103.006-.362 0-.724.003-1.086.007l-1.103.006-1.106.007c.036-.168.068-.316.098-.468.192-.946.385-1.891.58-2.84.007-.033.014-.066.017-.099.006-.066.045-.096.11-.096h.115L58.57.652c.072 0 .14.007.232.01-.01.073-.01.132-.023.188-.196 1.008-.395 2.013-.588 3.021a.488.488 0 01-.133.257c-.392.402-.787.804-1.172 1.21-.593.622-1.18 1.248-1.771 1.871-.353.37-.718.732-1.074 1.1-.675.702-1.347 1.408-2.023 2.113-.381.398-.763.794-1.142 1.192-.649.682-1.298 1.364-1.95 2.043l-2.334 2.432c-.032.033-.058.07-.117.138 3.266-.02 6.49-.04 9.73-.056-.01.076-.01.129-.02.181-.18.966-.359 1.931-.542 2.897-.02.109-.049.214-.062.326-.01.076-.045.105-.117.105-.114 0-.232-.006-.346-.003-2.552.017-5.106.036-7.658.05-2.091.013-4.183.023-6.274.032-.036 0-.075-.006-.127-.01.039-.204.075-.398.114-.592.17-.884.343-1.767.506-2.653a.658.658 0 01.18-.343c.263-.27.518-.553.782-.827.372-.388.754-.774 1.126-1.163.538-.566 1.073-1.136 1.615-1.703.238-.25.486-.494.727-.745.545-.57 1.087-1.14 1.629-1.71l2.293-2.402c.304-.32.617-.63.924-.945.398-.412.79-.83 1.184-1.246.317-.33.633-.662.946-.992.059-.062.118-.128.176-.19-.006-.017-.01-.034-.016-.047l-.003-.003zM34.631 4.297l-5.04.03c-.017-.14.577-3.236.668-3.497L43.816.751c.023.135-.486 2.8-.666 3.49l-4.701.026-3.038 15.525c-1.28.014-2.535.023-3.82.02.24-1.301.518-2.583.763-3.871.248-1.295.505-2.59.76-3.885.254-1.288.509-2.577.76-3.868.251-1.289.502-2.577.757-3.895v.004zM28.269.84c-.02.129-.033.237-.056.343-.294 1.49-.587 2.978-.884 4.464l-.884 4.468c-.261 1.332-.522 2.666-.787 3.997-.25 1.269-.502 2.534-.753 3.799-.121.6-.239 1.203-.36 1.802-.029.149-.032.152-.182.152l-3.194.01h-.447c.003-.05 0-.096.013-.142a844.998 844.998 0 01.989-5.038c.14-.708.287-1.417.427-2.125.222-1.127.44-2.254.659-3.38.173-.884.346-1.767.522-2.65.14-.698.284-1.393.424-2.092.173-.86.343-1.72.512-2.583.056-.28.102-.564.154-.847.03-.165.036-.171.199-.171C25.786.84 26.947.83 28.112.824c.042 0 .085.003.157.01V.84z"/></g><defs><clipPath id="clip0_109_140"><path fill="#fff" d="M0 0h170v20H0z"/></clipPath></defs></svg>