<svg width="81" height="80" viewBox="0 0 81 80" fill="none" xmlns="http://www.w3.org/2000/svg"><g clip-path="url(#clip0_213_369)"><path d="M78.256 78.858H3.554c-.83 0-1.507-.674-1.507-1.507V2.649c0-.834.673-1.507 1.507-1.507h74.702c.834 0 1.507.673 1.507 1.507v74.702c0 .834-.674 1.507-1.507 1.507z" fill="#C97911"/><path d="M78.256 1.142H3.554c-.832 0-1.507.675-1.507 1.507v74.702c0 .832.675 1.507 1.507 1.507h74.702c.832 0 1.507-.675 1.507-1.507V2.649c0-.832-.675-1.507-1.507-1.507z" stroke="#000" stroke-width="2.28" stroke-miterlimit="10"/><path d="M13.438 10.09l-1.043 12.83a2.823 2.823 0 01-.487 1.37l-.677.994-.73 1.096a6.636 6.636 0 00-1.029 2.61l-.08.488a9.666 9.666 0 00-.114 1.047l-.087 1.545v26.064c0 .217.045.434.133.636l.278.64c.118.27.32.498.575.646l.43.251c.13.076.266.137.41.187l.34.114c.136.046.285.069.43.069h8.868c.163 0 .327-.02.487-.061l.373-.092c.262-.064.498-.217.67-.43l.171-.217c.16-.202.285-.43.37-.677l.068-.206c.099-.293.144-.597.144-.906l-.08-27.335a9.314 9.314 0 00-.574-3.205 5.772 5.772 0 00-1.054-1.796l-.328-.384-.365-.495a3.464 3.464 0 01-.655-1.736L18.695 9.755l.27-.305-.126-.54-.16-.285h.571v-.571l-.11-.944-.556-.103H14.06h-.03l-.91.05-.221.395-.03.7.255.51h.422l-.149.282-.35.46.02.313.372.38v-.007z" fill="#75480C"/><path d="M13.438 10.09l-1.043 12.83a2.823 2.823 0 01-.487 1.37l-.677.994-.73 1.096a6.636 6.636 0 00-1.029 2.61l-.08.488a9.666 9.666 0 00-.114 1.047l-.087 1.545v26.064c0 .217.045.434.133.636l.278.64c.118.27.32.498.575.646l.43.251c.13.076.266.137.41.187l.34.114c.136.046.285.069.43.069h8.868c.163 0 .327-.02.487-.061l.373-.092c.262-.064.498-.217.67-.43l.171-.217c.16-.202.285-.43.37-.677l.068-.206c.099-.293.144-.597.144-.906l-.08-27.335a9.314 9.314 0 00-.574-3.205 5.772 5.772 0 00-1.054-1.796l-.328-.384-.365-.495a3.464 3.464 0 01-.655-1.736L18.695 9.755l.27-.305-.126-.54-.16-.285h.571v-.571l-.11-.944-.556-.103H14.06h-.03l-.91.05-.221.395-.03.7.255.51h.422l-.149.282-.35.46.02.313.372.38v-.007z" stroke="#000" stroke-width=".38" stroke-miterlimit="10"/><path d="M30.375 10.09l-1.042 12.83a2.823 2.823 0 01-.488 1.37l-.677.994-.73 1.096a6.636 6.636 0 00-1.028 2.61l-.08.488a9.656 9.656 0 00-.115 1.047l-.087 1.545v26.064c0 .217.046.434.133.636l.278.64c.118.27.32.498.575.646l.43.251c.13.076.266.137.41.187l.34.114c.136.046.285.069.43.069h8.868c.163 0 .327-.02.483-.061l.373-.092c.263-.064.499-.217.67-.43l.171-.217c.164-.202.286-.43.37-.677l.068-.206c.099-.293.145-.597.145-.906l-.08-27.335a9.314 9.314 0 00-.575-3.205 5.774 5.774 0 00-1.054-1.796l-.331-.384-.366-.495a3.464 3.464 0 01-.654-1.736L35.623 9.755l.27-.305-.125-.54-.16-.285h.57v-.571l-.11-.944-.555-.103h-4.526-.03l-.91.05-.22.395-.031.7.255.51h.422l-.148.282-.35.46.019.313.373.38.008-.007z" fill="#75480C"/><path d="M30.375 10.09l-1.042 12.83a2.823 2.823 0 01-.488 1.37l-.677.994-.73 1.096a6.636 6.636 0 00-1.028 2.61l-.08.488a9.656 9.656 0 00-.115 1.047l-.087 1.545v26.064c0 .217.046.434.133.636l.278.64c.118.27.32.498.575.646l.43.251c.13.076.266.137.41.187l.34.114c.136.046.285.069.43.069h8.868c.163 0 .327-.02.483-.061l.373-.092c.263-.064.499-.217.67-.43l.171-.217c.164-.202.286-.43.37-.677l.068-.206c.099-.293.145-.597.145-.906l-.08-27.335a9.314 9.314 0 00-.575-3.205 5.774 5.774 0 00-1.054-1.796l-.331-.384-.366-.495a3.464 3.464 0 01-.654-1.736L35.623 9.755l.27-.305-.125-.54-.16-.285h.57v-.571l-.11-.944-.555-.103h-4.526-.03l-.91.05-.22.395-.031.7.255.51h.422l-.148.282-.35.46.019.313.373.38.008-.007z" stroke="#000" stroke-width=".38" stroke-miterlimit="10"/><path d="M47.309 10.09l-1.043 12.83a2.785 2.785 0 01-.487 1.37l-.678.994-.73 1.096a6.635 6.635 0 00-1.028 2.61l-.08.488a9.681 9.681 0 00-.114 1.047l-.088 1.545v26.064c0 .217.046.434.133.636l.278.64c.118.27.32.498.575.646l.43.251c.13.076.266.137.411.187l.339.114c.137.046.281.069.43.069h8.868c.164 0 .327-.02.487-.061l.373-.092c.263-.064.499-.217.67-.43l.171-.217c.164-.202.286-.43.37-.677l.068-.206c.099-.293.145-.597.145-.906l-.08-27.335a9.314 9.314 0 00-.575-3.205 5.772 5.772 0 00-1.054-1.796l-.331-.384-.366-.495a3.464 3.464 0 01-.654-1.736L52.56 9.755l.27-.305-.125-.54-.16-.285h.57v-.571l-.11-.944-.555-.103h-4.526-.03l-.91.05-.22.395-.031.7.255.51h.422l-.148.282-.35.46.019.313.373.38.004-.007z" fill="#75480C"/><path d="M47.309 10.09l-1.043 12.83a2.785 2.785 0 01-.487 1.37l-.678.994-.73 1.096a6.635 6.635 0 00-1.028 2.61l-.08.488a9.681 9.681 0 00-.114 1.047l-.088 1.545v26.064c0 .217.046.434.133.636l.278.64c.118.27.32.498.575.646l.43.251c.13.076.266.137.411.187l.339.114c.137.046.281.069.43.069h8.868c.164 0 .327-.02.487-.061l.373-.092c.263-.064.499-.217.67-.43l.171-.217c.164-.202.286-.43.37-.677l.068-.206c.099-.293.145-.597.145-.906l-.08-27.335a9.314 9.314 0 00-.575-3.205 5.772 5.772 0 00-1.054-1.796l-.331-.384-.366-.495a3.464 3.464 0 01-.654-1.736L52.56 9.755l.27-.305-.125-.54-.16-.285h.57v-.571l-.11-.944-.555-.103h-4.526-.03l-.91.05-.22.395-.031.7.255.51h.422l-.148.282-.35.46.019.313.373.38.004-.007z" stroke="#000" stroke-width=".38" stroke-miterlimit="10"/><path d="M64.242 10.09l-1.043 12.83a2.817 2.817 0 01-.483 1.37l-.678.994-.73 1.096a6.635 6.635 0 00-1.028 2.61l-.08.488a9.681 9.681 0 00-.114 1.047l-.088 1.545v26.064c0 .217.046.434.133.636l.278.64c.118.27.32.498.575.646l.43.251c.13.076.267.137.411.187l.339.114c.137.046.282.069.43.069h8.868c.164 0 .327-.02.483-.061l.374-.092c.262-.064.498-.217.67-.43l.17-.217c.164-.202.286-.43.37-.677l.068-.206c.1-.293.145-.597.145-.906l-.08-27.335a9.314 9.314 0 00-.575-3.205 5.772 5.772 0 00-1.054-1.796l-.331-.384-.365-.495a3.464 3.464 0 01-.655-1.736L69.494 9.755l.27-.305-.125-.54-.16-.285h.571v-.571l-.11-.944-.556-.103h-4.525-.03l-.91.05-.221.395-.03.7.254.51h.423l-.149.282-.35.46.02.313.372.38.004-.007z" fill="#75480C"/><path d="M64.242 10.09l-1.043 12.83a2.817 2.817 0 01-.483 1.37l-.678.994-.73 1.096a6.635 6.635 0 00-1.028 2.61l-.08.488a9.681 9.681 0 00-.114 1.047l-.088 1.545v26.064c0 .217.046.434.133.636l.278.64c.118.27.32.498.575.646l.43.251c.13.076.267.137.411.187l.339.114c.137.046.282.069.43.069h8.868c.164 0 .327-.02.483-.061l.374-.092c.262-.064.498-.217.67-.43l.17-.217c.164-.202.286-.43.37-.677l.068-.206c.1-.293.145-.597.145-.906l-.08-27.335a9.314 9.314 0 00-.575-3.205 5.772 5.772 0 00-1.054-1.796l-.331-.384-.365-.495a3.464 3.464 0 01-.655-1.736L69.494 9.755l.27-.305-.125-.54-.16-.285h.571v-.571l-.11-.944-.556-.103h-4.525-.03l-.91.05-.221.395-.03.7.254.51h.423l-.149.282-.35.46.02.313.372.38.004-.007z" stroke="#000" stroke-width=".38" stroke-miterlimit="10"/><path d="M8.101 72.626v-1.397l3.72-4.054h1.851v4.281h.87v1.17h-.87v1.145h-1.4v-1.145h-4.17zm1.57-1.17h2.6v-2.822l-2.6 2.822zm9.621-4.28v3.681l1.778-1.904h1.479l-1.88 1.904h.363c.457 0 .774.137.951.41.18.272.271.75.271 1.436v1.068H20.93v-1.13c0-.304-.05-.505-.15-.605-.096-.103-.291-.154-.584-.154h-.904v1.889h-1.324v-6.596h1.324zm6.21 1.705c.888 0 1.545.258 1.97.773.39.47.585 1.06.585 1.769 0 .753-.245 1.354-.734 1.802-.448.412-1.062.618-1.841.618-.805 0-1.437-.23-1.894-.69-.42-.423-.629-1.03-.629-1.822 0-.677.202-1.239.605-1.687.447-.499 1.093-.753 1.937-.763zm.009 1.015c-.796 0-1.194.494-1.194 1.483 0 .403.065.709.194.918.215.355.552.532 1.01.532.785 0 1.178-.492 1.178-1.474 0-.963-.396-1.45-1.188-1.46zm4.856 3.875h-1.324v-6.596h1.324v6.596zm4.643-2.928c0-.339-.069-.566-.207-.682-.136-.119-.403-.178-.802-.178h-2.242v-1.03H34c.399 0 .674.008.826.025.154.013.309.043.464.091.73.277 1.079.94 1.043 1.986v2.716h-2.793c-.499 0-.845-.015-1.038-.044A1.225 1.225 0 0132 73.54c-.393-.264-.59-.662-.59-1.194 0-.325.078-.613.232-.864.158-.255.365-.427.619-.517.225-.081.6-.121 1.126-.121h1.623zm0 1.029H33.48l-.223-.005a.524.524 0 00-.362.12.42.42 0 00-.13.325c0 .157.053.269.159.333.11.065.295.097.556.097h1.531v-.87zm3.967-4.697v4.977h-1.4v-4.977h1.4zm0 5.475v1.12h-1.4v-1.12h1.4zm3.373-.024v-1.397l3.72-4.054h1.851v4.281h.87v1.17h-.87v1.145h-1.4v-1.145h-4.17zm1.57-1.17h2.6v-2.822l-2.6 2.822zm8.297-2.503h2.314c.451 0 .793.03 1.025.087.232.055.45.163.657.324.573.451.86 1.142.86 2.073 0 .706-.211 1.277-.633 1.715-.21.216-.451.374-.725.474-.274.097-.609.145-1.005.145h-1.17v1.812h-1.323v-6.63zm1.324 1.03v2.759h.812c.428 0 .744-.092.947-.276.277-.248.415-.625.415-1.13 0-.435-.11-.769-.328-1-.22-.236-.534-.353-.943-.353h-.903zm4.513-1.03h1.324v4.818h-1.324v-4.818zm0-.492v-1.286h1.324v1.286h-1.324zm4.73 3.807l1.344-3.315h1.4l-2.077 4.818h-1.42l-1.923-4.818h1.444l1.232 3.315zm6.717-1.425c0-.339-.07-.566-.208-.682-.135-.119-.403-.178-.802-.178h-2.242v-1.03h2.242c.4 0 .675.008.826.025.155.013.31.043.464.091.731.277 1.08.94 1.044 1.986v2.716h-2.793c-.5 0-.846-.015-1.039-.044a1.225 1.225 0 01-.502-.188c-.394-.264-.59-.662-.59-1.194 0-.325.077-.613.232-.864.158-.255.364-.427.618-.517.226-.081.601-.121 1.126-.121h1.624zm0 1.029h-1.532l-.222-.005a.524.524 0 00-.363.12.42.42 0 00-.13.325c0 .157.053.269.16.333.109.065.294.097.555.097h1.532v-.87zm3.967-4.697v4.977h-1.401v-4.977h1.4zm0 5.475v1.12h-1.401v-1.12h1.4z" fill="#56370D"/><path d="M9.674 71.353l2.592-2.82v2.82H9.674zM8.102 72.52h4.164v1.15h1.405v-1.15h.871v-1.168h-.871v-4.286h-1.85l-3.719 4.057v1.397zM19.292 67.067h-1.324v6.6h1.324v-1.892h.902c.575 0 .731.167.731.761v1.127h1.325v-1.07c0-.723-.069-1.138-.248-1.404-.186-.286-.525-.434-.97-.434h-.366l1.88-1.91h-1.484l-1.77 1.91v-3.692.004zM25.515 69.8c.78 0 1.188.495 1.188 1.454s-.396 1.465-1.177 1.465c-.78 0-1.206-.495-1.206-1.446 0-.952.396-1.473 1.199-1.473h-.004zm-.011-1.02c-1.534 0-2.543.97-2.543 2.455 0 1.575.929 2.504 2.524 2.504 1.594 0 2.573-.929 2.573-2.425 0-.711-.187-1.286-.583-1.762-.426-.502-1.088-.772-1.968-.772h-.003zM30.375 67.067h-1.324v6.6h1.325v-6.6zM35.008 71.767v.872h-1.534c-.514 0-.704-.118-.704-.426 0-.198.11-.366.285-.415.074-.02.212-.03.415-.03h1.538zm-1.622-1.027c-.514 0-.902.038-1.119.118-.514.179-.852.73-.852 1.385 0 .506.216.94.593 1.188.286.198.533.236 1.534.236h2.79v-2.71c0-.514-.019-.704-.11-.978-.16-.495-.507-.872-.93-1.009-.315-.099-.494-.118-1.297-.118h-2.238v1.028h2.238c.803 0 1.009.186 1.009.86h-1.622.004zM38.973 72.552H37.57v1.118h1.404v-1.118zm0-5.481H37.57v4.986h1.404V67.07zM43.921 71.353l2.592-2.82v2.82h-2.592zM42.35 72.52h4.168v1.15h1.404v-1.15h.872v-1.168h-.871v-4.286h-1.85l-3.719 4.057v1.397h-.004zM53.54 69.88h.909c.81 0 1.267.487 1.267 1.355 0 .506-.137.879-.415 1.126-.197.18-.532.278-.951.278h-.81v-2.76zm-1.325-1.028v6.63h1.324v-1.811h1.169c.803 0 1.305-.187 1.732-.625.414-.426.631-1.02.631-1.713 0-.92-.297-1.632-.86-2.066-.407-.328-.78-.415-1.682-.415h-2.314zM58.053 68.353h1.325v-1.286h-1.325v1.286zm0 .495v4.819h1.325v-4.819h-1.325zM62.773 72.163l-1.226-3.315h-1.446l1.922 4.819h1.423l2.079-4.819H64.12l-1.347 3.315zM69.494 71.767v.872H67.96c-.513 0-.704-.118-.704-.426 0-.198.11-.366.286-.415.073-.02.212-.03.415-.03h1.537zm-1.621-1.027c-.514 0-.902.038-1.119.118-.514.179-.853.73-.853 1.385 0 .506.217.94.594 1.188.286.198.533.236 1.534.236h2.79v-2.71c0-.514-.02-.704-.107-.978-.16-.495-.506-.872-.928-1.009-.316-.099-.495-.118-1.298-.118h-2.238v1.028h2.238c.803 0 1.008.186 1.008.86h-1.621zM73.46 72.552h-1.404v1.118h1.404v-1.118zm0-5.481h-1.404v4.986h1.404V67.07z" stroke="#000" stroke-width=".29" stroke-miterlimit="10"/><path d="M9.997 41.118v-.537l1.431-1.56h.712v1.647h.335v.45h-.335v.44h-.539v-.44H9.997zm.604-.45h1v-1.085l-1 1.085zm3.357-1.661c.477 0 .814.127 1.01.38.17.216.253.517.253.904 0 .458-.111.793-.334 1.004-.198.185-.485.278-.86.278-.505 0-.863-.139-1.075-.416-.157-.206-.236-.497-.236-.873 0-.434.1-.754.301-.961.202-.207.516-.313.94-.316zm-.011.425a.646.646 0 00-.313.075.51.51 0 00-.212.204.846.846 0 00-.08.244 1.549 1.549 0 00-.031.306c0 .114.01.229.031.344.023.114.051.203.086.266.098.183.287.275.569.275a.598.598 0 00.358-.093.615.615 0 00.23-.387c.028-.131.042-.264.042-.397 0-.13-.016-.25-.047-.363a.727.727 0 00-.122-.267.488.488 0 00-.212-.15.807.807 0 00-.3-.057zm2.769-.425c.477 0 .814.127 1.01.38.17.216.253.517.253.904 0 .458-.111.793-.334 1.004-.198.185-.485.278-.86.278-.505 0-.863-.139-1.075-.416-.157-.206-.236-.497-.236-.873 0-.434.1-.754.301-.961.202-.207.516-.313.94-.316zm-.012.425a.646.646 0 00-.312.075.51.51 0 00-.212.204.843.843 0 00-.08.244 1.548 1.548 0 00-.031.306c0 .114.01.229.031.344.023.114.051.203.086.266.098.183.287.275.569.275a.598.598 0 00.358-.093.615.615 0 00.23-.387c.028-.131.042-.264.042-.397 0-.13-.016-.25-.047-.363a.729.729 0 00-.123-.267.488.488 0 00-.211-.15.806.806 0 00-.3-.057zm2.604.273h1.873c.171 0 .3.013.389.038.089.024.163.07.223.133.111.122.167.29.167.502v1.18h-.51v-1.1a.887.887 0 00-.012-.186.196.196 0 00-.052-.094c-.052-.051-.132-.077-.24-.077h-.271v1.457h-.51v-1.457h-.548v1.457h-.509v-1.852zM11.868 43.395c.524 0 .895.14 1.112.42.185.236.278.567.278.993 0 .504-.123.872-.368 1.103-.218.205-.534.307-.947.307-.554 0-.948-.153-1.181-.458-.173-.226-.26-.546-.26-.96 0-.478.11-.83.331-1.057.222-.228.567-.344 1.035-.348zm-.013.468a.71.71 0 00-.343.082.562.562 0 00-.233.225.932.932 0 00-.088.268 1.703 1.703 0 00-.035.337c0 .125.012.251.035.378.025.126.056.223.094.292.108.202.316.303.626.303.17 0 .302-.034.394-.102a.678.678 0 00.254-.425c.03-.145.045-.29.045-.438 0-.142-.017-.275-.051-.399a.8.8 0 00-.135-.294.537.537 0 00-.233-.164.883.883 0 00-.33-.063zm2.304 1.795v.484l-.323.632h-.255l.255-.572h-.184v-.544h.507zm.358.544v-.495h1.196c.166 0 .279-.024.337-.072.071-.057.107-.143.107-.257 0-.14-.047-.237-.14-.29-.057-.034-.158-.051-.304-.051h-.932v-.495h.932c.176 0 .291-.022.345-.066.064-.051.096-.133.096-.245 0-.123-.042-.212-.126-.27a.247.247 0 00-.108-.045c-.041-.006-.11-.01-.207-.01h-1.196v-.495h1.3c.186.002.303.005.354.01.052.006.109.02.172.044a.67.67 0 01.343.29.802.802 0 01.123.425c0 .26-.124.462-.372.605.25.162.374.388.374.677 0 .265-.1.462-.3.59a.816.816 0 01-.293.12c-.105.02-.262.03-.472.03h-1.229zm2.592 0v-.495h1.196c.166 0 .279-.024.337-.072.071-.057.107-.143.107-.257 0-.14-.047-.237-.14-.29-.057-.034-.158-.051-.304-.051h-.932v-.495h.932c.176 0 .291-.022.346-.066.064-.051.096-.133.096-.245 0-.123-.043-.212-.127-.27a.248.248 0 00-.108-.045c-.041-.006-.11-.01-.207-.01H17.11v-.495h1.3c.186.002.304.005.354.01a.72.72 0 01.172.044.67.67 0 01.343.29.801.801 0 01.123.425c0 .26-.124.462-.372.605.25.162.374.388.374.677 0 .265-.1.462-.3.59a.816.816 0 01-.293.12c-.105.02-.262.03-.472.03h-1.229zm4.336 0h-.56v-2.79h.56v2.79zM27.514 40.293a.865.865 0 01-.294-.264.662.662 0 01-.085-.351c0-.303.137-.505.41-.606.115-.044.358-.065.731-.065.279 0 .473.004.584.013.11.008.2.026.27.054a.606.606 0 01.322.291.744.744 0 01.082.344c0 .274-.13.469-.39.584a.88.88 0 01.245.184c.088.11.132.244.132.401a.697.697 0 01-.214.5.586.586 0 01-.306.154c-.132.028-.334.041-.606.041-.177 0-.344-.003-.5-.009-.235-.01-.414-.071-.537-.184a.648.648 0 01-.225-.49c0-.153.044-.286.132-.398a.909.909 0 01.249-.2zm.818-.86c-.22 0-.363.01-.426.033-.118.04-.176.135-.176.284 0 .164.063.263.19.297.034.01.172.018.414.023.193-.004.308-.007.345-.01a.429.429 0 00.103-.022c.105-.04.157-.133.157-.277 0-.163-.07-.264-.211-.303a1.838 1.838 0 00-.396-.026zm-.004 1.057c-.222 0-.364.012-.427.037-.114.043-.171.14-.171.292 0 .168.061.27.185.306.035.01.173.018.413.023.19-.004.305-.007.342-.01a.35.35 0 00.1-.024c.104-.042.156-.138.156-.288 0-.166-.069-.27-.208-.31a1.798 1.798 0 00-.39-.026zm2.719-1.483c.477 0 .814.127 1.01.38.17.216.254.517.254.904 0 .458-.112.793-.335 1.004-.198.185-.485.278-.86.278-.505 0-.863-.139-1.075-.416-.157-.206-.236-.497-.236-.873 0-.434.1-.754.302-.961.201-.207.515-.313.94-.316zm-.011.425a.646.646 0 00-.313.075.51.51 0 00-.211.204.843.843 0 00-.08.244 1.541 1.541 0 00-.032.306c0 .114.01.229.032.344.022.114.05.203.085.266.098.183.288.275.569.275.155 0 .274-.031.359-.093a.615.615 0 00.23-.387c.027-.131.04-.264.04-.397 0-.13-.015-.25-.046-.363a.727.727 0 00-.122-.267.488.488 0 00-.212-.15.807.807 0 00-.3-.057zm2.769-.425c.477 0 .814.127 1.01.38.17.216.254.517.254.904 0 .458-.112.793-.335 1.004-.198.185-.485.278-.86.278-.505 0-.863-.139-1.075-.416-.157-.206-.236-.497-.236-.873 0-.434.1-.754.301-.961.202-.207.516-.313.94-.316zm-.011.425a.646.646 0 00-.313.075.51.51 0 00-.211.204.843.843 0 00-.08.244 1.541 1.541 0 00-.032.306c0 .114.01.229.032.344.022.114.05.203.085.266.098.183.288.275.569.275.155 0 .274-.031.358-.093a.616.616 0 00.231-.387c.027-.131.04-.264.04-.397 0-.13-.015-.25-.046-.363a.725.725 0 00-.122-.267.487.487 0 00-.212-.15.807.807 0 00-.3-.057zm2.603.273h1.874c.17 0 .3.013.388.038.09.024.164.07.223.133.112.122.167.29.167.502v1.18h-.509v-1.1a.887.887 0 00-.013-.186.195.195 0 00-.052-.094c-.052-.051-.132-.077-.24-.077h-.271v1.457h-.51v-1.457h-.547v1.457h-.51v-1.852zM28.656 43.395c.525 0 .896.14 1.112.42.186.236.278.567.278.993 0 .504-.122.872-.367 1.103-.219.205-.534.307-.947.307-.555 0-.949-.153-1.182-.458-.173-.226-.26-.546-.26-.96 0-.478.111-.83.332-1.057.222-.228.567-.344 1.034-.348zm-.012.468a.711.711 0 00-.343.082.562.562 0 00-.233.225.925.925 0 00-.088.268 1.696 1.696 0 00-.035.337c0 .125.011.251.035.378.024.126.055.223.094.292.107.202.316.303.625.303.17 0 .302-.034.395-.102a.677.677 0 00.253-.425c.03-.145.045-.29.045-.438 0-.142-.017-.275-.05-.399a.798.798 0 00-.136-.294.537.537 0 00-.233-.164.883.883 0 00-.329-.063zm2.304 1.795v.484l-.323.632h-.256l.256-.572h-.184v-.544h.507zm1.024-1.1h.938c.214 0 .372.011.473.033.102.02.188.06.26.118.18.149.271.358.271.628a.802.802 0 01-.413.726c-.17.103-.432.155-.787.155a2.3 2.3 0 01-.609-.065.98.98 0 01-.399-.223 1.197 1.197 0 01-.308-.521 2.064 2.064 0 01-.092-.608c0-.312.064-.592.192-.842a.909.909 0 01.59-.488c.145-.04.36-.06.645-.06h1.03v.495h-.852c-.373-.005-.614.03-.726.108a.457.457 0 00-.156.213.936.936 0 00-.057.331zm0 .495c.002.204.042.366.12.484.054.08.126.137.218.168.092.03.23.045.414.045a1.3 1.3 0 00.262-.02.429.429 0 00.164-.074c.073-.056.11-.142.11-.26a.324.324 0 00-.133-.28c-.058-.042-.164-.063-.317-.063h-.838zm2.895-.495h.938c.214 0 .372.011.472.033.103.02.19.06.26.118.181.149.272.358.272.628a.802.802 0 01-.413.726c-.17.103-.433.155-.787.155a2.3 2.3 0 01-.61-.065.98.98 0 01-.398-.223 1.198 1.198 0 01-.309-.521 2.064 2.064 0 01-.092-.608c0-.312.064-.592.193-.842a.909.909 0 01.59-.488c.145-.04.36-.06.644-.06h1.03v.495h-.852c-.372-.005-.614.03-.725.108a.457.457 0 00-.156.213.934.934 0 00-.057.331zm0 .495c.001.204.041.366.12.484.054.08.126.137.217.168.093.03.231.045.415.045a1.3 1.3 0 00.262-.02.429.429 0 00.163-.074c.074-.056.11-.142.11-.26a.324.324 0 00-.132-.28c-.059-.042-.164-.063-.317-.063h-.838zm3.972 1.149h-.56v-2.79h.56v2.79zM44.054 41.558h-.539v-2.536h.54v2.536zm.95-.45h1.658v.45h-2.197v-.674c-.004-.284.068-.5.214-.649a.514.514 0 01.223-.134c.082-.022.21-.033.383-.033h.414c.139 0 .239-.017.3-.052a.254.254 0 00.135-.234c0-.114-.042-.198-.126-.251-.064-.04-.166-.06-.309-.06h-1.193v-.45h1.306c.325 0 .552.054.68.162a.604.604 0 01.174.248.855.855 0 01.063.33.954.954 0 01-.076.392.53.53 0 01-.212.25c-.13.076-.328.115-.591.115h-.36a1.25 1.25 0 00-.285.024.24.24 0 00-.138.083c-.04.043-.06.129-.063.259v.225zm3.206-2.101c.477 0 .814.127 1.01.38.17.216.254.517.254.904 0 .458-.112.793-.335 1.004-.198.185-.485.278-.86.278-.505 0-.863-.139-1.075-.416-.157-.206-.236-.497-.236-.873 0-.434.1-.754.301-.961.202-.207.516-.313.94-.316zm-.011.425a.645.645 0 00-.313.075.51.51 0 00-.211.204.846.846 0 00-.08.244 1.541 1.541 0 00-.032.306c0 .114.01.229.032.344.022.114.05.203.085.266.098.183.288.275.569.275a.597.597 0 00.358-.093.615.615 0 00.231-.387c.027-.131.04-.264.04-.397 0-.13-.015-.25-.046-.363a.727.727 0 00-.122-.267.488.488 0 00-.212-.15.807.807 0 00-.3-.057zm2.769-.425c.477 0 .814.127 1.01.38.17.216.253.517.253.904 0 .458-.111.793-.334 1.004-.198.185-.485.278-.86.278-.505 0-.863-.139-1.075-.416-.157-.206-.236-.497-.236-.873 0-.434.1-.754.301-.961.202-.207.516-.313.94-.316zm-.011.425a.646.646 0 00-.313.075.51.51 0 00-.212.204.846.846 0 00-.08.244 1.549 1.549 0 00-.031.306c0 .114.01.229.032.344.022.114.05.203.085.266.098.183.287.275.569.275a.598.598 0 00.358-.093.615.615 0 00.23-.387c.028-.131.042-.264.042-.397 0-.13-.016-.25-.047-.363a.727.727 0 00-.122-.267.488.488 0 00-.212-.15.807.807 0 00-.3-.057zm2.603.273h1.874c.17 0 .3.013.388.038.09.024.163.07.223.133.111.122.167.29.167.502v1.18h-.509v-1.1a.894.894 0 00-.013-.186.196.196 0 00-.052-.094c-.052-.051-.132-.077-.24-.077h-.271v1.457h-.51v-1.457h-.547v1.457h-.51v-1.852zM45.369 43.395c.525 0 .895.14 1.112.42.185.236.278.567.278.993 0 .504-.123.872-.368 1.103-.218.205-.534.307-.947.307-.554 0-.948-.153-1.181-.458-.173-.226-.26-.546-.26-.96 0-.478.11-.83.331-1.057.223-.228.567-.344 1.035-.348zm-.012.468a.71.71 0 00-.344.082.562.562 0 00-.233.225.925.925 0 00-.088.268 1.696 1.696 0 00-.035.337c0 .125.012.251.035.378.025.126.056.223.094.292.108.202.316.303.626.303.17 0 .302-.034.394-.102a.677.677 0 00.254-.425c.03-.145.045-.29.045-.438 0-.142-.017-.275-.051-.399a.8.8 0 00-.135-.294.537.537 0 00-.233-.164.883.883 0 00-.33-.063zm2.303 1.795v.484l-.322.632h-.256l.255-.572h-.184v-.544h.508zm2.309-.603h-.939c-.214 0-.372-.01-.474-.03a.593.593 0 01-.258-.121c-.181-.149-.272-.358-.272-.628 0-.316.138-.558.413-.726.17-.103.433-.155.787-.155.252 0 .456.022.61.067a.962.962 0 01.398.221c.138.131.24.306.309.524.061.199.092.4.092.605 0 .31-.064.591-.192.842a.9.9 0 01-.591.488c-.144.04-.36.06-.644.06h-1.03v-.495h.852c.373.005.615-.03.726-.108a.456.456 0 00.155-.213.935.935 0 00.057-.331zm0-.495c-.002-.204-.042-.366-.121-.484a.406.406 0 00-.217-.166 1.3 1.3 0 00-.4-.047c-.204 0-.34.023-.41.07-.093.061-.14.158-.14.29 0 .119.044.21.135.274.057.042.162.063.314.063h.838zm2.894.495h-.938c-.214 0-.372-.01-.474-.03a.593.593 0 01-.258-.121c-.181-.149-.272-.358-.272-.628 0-.316.138-.558.413-.726.17-.103.433-.155.787-.155.252 0 .455.022.61.067a.962.962 0 01.398.221c.138.131.24.306.309.524.06.199.092.4.092.605 0 .31-.065.591-.193.842a.9.9 0 01-.59.488c-.145.04-.36.06-.644.06h-1.03v-.495h.852c.373.005.615-.03.726-.108a.456.456 0 00.155-.213.935.935 0 00.057-.331zm0-.495c-.001-.204-.041-.366-.12-.484a.406.406 0 00-.217-.166 1.3 1.3 0 00-.4-.047c-.204 0-.34.023-.41.07-.094.061-.14.158-.14.29 0 .119.044.21.134.274.057.042.162.063.315.063h.838zm2.688 1.642h-.56v-2.79h.56v2.79zM61.159 41.558h-.539v-2.536h.539v2.536zm.981-1.494h.853c.195 0 .338.01.43.03a.525.525 0 01.235.108c.165.135.248.325.248.57a.729.729 0 01-.376.66c-.155.094-.393.141-.715.141-.23 0-.414-.02-.554-.06a.893.893 0 01-.362-.202 1.089 1.089 0 01-.281-.474 1.877 1.877 0 01-.084-.552c0-.283.059-.539.175-.765a.826.826 0 01.537-.445c.131-.035.327-.053.585-.053h.937v.45h-.775c-.338-.006-.558.027-.66.098a.414.414 0 00-.14.193.848.848 0 00-.053.301zm0 .45c.001.186.038.333.11.44a.377.377 0 00.197.153c.084.027.21.04.377.04.102 0 .18-.005.238-.018a.389.389 0 00.149-.067c.067-.05.1-.13.1-.236a.295.295 0 00-.12-.255c-.054-.038-.15-.057-.289-.057h-.762zm3.267-1.507c.477 0 .814.127 1.011.38.169.216.253.517.253.904 0 .458-.112.793-.335 1.004-.198.185-.484.278-.86.278-.504 0-.862-.139-1.074-.416-.157-.206-.236-.497-.236-.873 0-.434.1-.754.3-.961.203-.207.516-.313.941-.316zm-.01.425a.646.646 0 00-.313.075.51.51 0 00-.212.204.843.843 0 00-.08.244 1.548 1.548 0 00-.031.306c0 .114.01.229.031.344.022.114.05.203.086.266.097.183.287.275.568.275a.598.598 0 00.359-.093.615.615 0 00.23-.387c.028-.131.041-.264.041-.397 0-.13-.015-.25-.046-.363a.729.729 0 00-.123-.267.488.488 0 00-.212-.15.806.806 0 00-.299-.057zm3.3 1.084h-.853c-.195 0-.338-.01-.431-.028a.54.54 0 01-.235-.11c-.164-.135-.247-.325-.247-.57 0-.288.125-.508.376-.66.154-.094.393-.141.715-.141.23 0 .414.02.554.061.14.04.26.107.362.2.126.12.219.278.28.477.057.18.085.364.085.55 0 .282-.059.537-.175.765a.82.82 0 01-.537.444 2.377 2.377 0 01-.586.054h-.936v-.45h.775c.34.006.56-.027.66-.098a.414.414 0 00.14-.193.85.85 0 00.053-.301zm0-.45c-.002-.186-.038-.333-.11-.44a.37.37 0 00-.197-.15 1.184 1.184 0 00-.364-.044c-.185 0-.309.021-.372.063-.085.056-.128.144-.128.264 0 .108.04.191.123.25.052.038.147.057.286.057h.762zm1.934-.36h1.874c.17 0 .3.012.388.037.09.024.164.07.223.133.112.122.167.29.167.502v1.18h-.509v-1.1a.887.887 0 00-.013-.186.195.195 0 00-.052-.094c-.052-.051-.132-.077-.24-.077h-.271v1.457h-.51v-1.457h-.547v1.457h-.51v-1.852zM62.986 46.202h-.593v-2.79h.593v2.79zm1.04-.544v.484l-.323.632h-.255l.255-.572h-.184v-.544h.507zm.358.544v-.495h1.196c.166 0 .279-.024.337-.072.071-.057.107-.143.107-.257 0-.14-.047-.237-.14-.29-.057-.034-.158-.051-.304-.051h-.932v-.495h.932c.176 0 .291-.022.346-.066.064-.051.096-.133.096-.245 0-.123-.043-.212-.127-.27a.247.247 0 00-.108-.045c-.041-.006-.11-.01-.207-.01h-1.196v-.495h1.3c.186.002.303.005.354.01.052.006.109.02.172.044a.67.67 0 01.343.29.802.802 0 01.123.425c0 .26-.124.462-.372.605.25.162.374.388.374.677 0 .265-.1.462-.3.59a.816.816 0 01-.293.12c-.105.02-.262.03-.472.03h-1.229zm3.2-.495h1.823v.495H66.99v-.742c-.004-.312.074-.55.235-.714a.565.565 0 01.245-.147c.09-.024.23-.037.421-.037h.456c.153 0 .262-.019.33-.057.099-.057.148-.143.148-.258 0-.125-.046-.217-.139-.276-.07-.043-.182-.065-.34-.065h-1.311v-.495h1.437c.357 0 .606.06.748.178a.666.666 0 01.19.272c.046.112.07.233.07.364 0 .162-.028.306-.084.431a.583.583 0 01-.233.274c-.144.085-.36.127-.65.127h-.395c-.14 0-.245.009-.315.027a.264.264 0 00-.151.092c-.044.046-.067.14-.07.284v.247zm3.904.495h-.56v-2.79h.56v2.79z" fill="#000"/></g><defs><clipPath id="clip0_213_369"><path fill="#fff" transform="translate(.905)" d="M0 0h80v80H0z"/></clipPath></defs></svg>