<svg width="20" height="20" viewBox="0 0 20 20" fill="none" xmlns="http://www.w3.org/2000/svg"><path d="M18.783 5.35a2.316 2.316 0 00-1.616-1.667c-1.434-.35-7.167-.35-7.167-.35s-5.733 0-7.167.384a2.317 2.317 0 00-1.616 1.666 24.167 24.167 0 00-.384 4.409c-.01 1.489.12 2.976.384 4.441a2.316 2.316 0 001.616 1.6c1.434.384 7.167.384 7.167.384s5.733 0 7.167-.384a2.317 2.317 0 001.616-1.666c.26-1.444.389-2.908.384-4.375.009-1.49-.12-2.976-.384-4.442z" stroke="#fff" stroke-linecap="round" stroke-linejoin="round"/><path d="M8.125 12.517l4.792-2.725-4.792-2.725v5.45z" stroke="#fff" stroke-linecap="round" stroke-linejoin="round"/></svg>